<svg id="Layer_1" data-name="Layer 1" xmlns="http://www.w3.org/2000/svg" viewBox="0 0 210 210"><defs><style>.cls-1{fill:#fff;}.cls-2{fill:#a7a9ac;stroke:#a7a9ac;stroke-miterlimit:10;stroke-width:1.31px;}.cls-3{fill:#939598;}.cls-4{opacity:0.58;}.cls-5{fill:#414042;}.cls-6{fill:#231f20;}.cls-7{fill:#58595b;}</style></defs><circle class="cls-1" cx="105" cy="105.01" r="25.65"/><polygon class="cls-2" points="105 16.74 105 106.19 130.14 20.37 105 106.19 153.24 30.94 105 106.19 172.43 47.62 105 106.2 186.16 69.04 105 106.2 193.31 93.47 105 106.2 193.31 118.93 105 106.2 186.16 143.36 105 106.2 172.43 164.78 105 106.2 153.24 181.45 105 106.2 130.14 192.03 105 106.2 105 195.65 105 106.2 79.86 192.03 105 106.2 56.77 181.45 105 106.2 37.57 164.78 105 106.2 23.84 143.36 105 106.2 16.69 118.93 105 106.2 16.69 93.47 105 106.2 23.84 69.04 105 106.2 37.57 47.62 105 106.19 56.77 30.94 105 106.19 79.86 20.37 105 106.19 105 16.74"/><path class="cls-3" d="M105,12.05A92.95,92.95,0,1,0,198,105,93,93,0,0,0,105,12.05Zm0,181.26A88.31,88.31,0,1,1,193.31,105,88.3,88.3,0,0,1,105,193.31Z"/><g class="cls-4"><circle class="cls-1" cx="105" cy="105.01" r="36.93"/><path class="cls-5" d="M126.28,120.06a.72.72,0,0,1,.15-.55c.11-.19.22-.39.28-.51,1.22-2,3.16.71,3.68-.27.31-.76-2.59-1.53-1.91-2.88.31-.84.6-1.12.88-1.09a.79.79,0,0,1,.57.7c.1.86,2.36,2.25,1.55,3.62-.16.32-.28.37-.74.57a1.92,1.92,0,0,1,1,.24c1.71.77.79,3,1.41,4,.48.66.2,1.75-1.68.11-.87-.61-.69-1.26-.51-1.91s.49-1.22.06-1.5c-.6-.38-.82.22-1.23.7s-1.11.76-2.41-.19C127.14,120.87,126.39,120.39,126.28,120.06Z"/><path class="cls-5" d="M143.94,132.59a2.15,2.15,0,0,0,.77-.67c.24-.33.44-.7.59-.9,2.27-3.74-1.71-3.08-.73-4.6.61-1.15,2.73,1.25,3.92-1.3.86-1.45.87-2.19.66-2.42s-.66,0-1,.42c-1,1.06-3.61.38-4.47,2.48a2.86,2.86,0,0,0-.3,1.27,1.42,1.42,0,0,0-.66-.89c-1.55-1-3.47,1.38-4.59,1.23-.81-.14-1.88.52.3,1.77.83.62,1.64.14,2.23-.53s1.1-1.4,1.56-1.16c.63.33,0,1.06-.36,1.91a1.88,1.88,0,0,0,.62,2.74C142.82,132.13,143.48,132.73,143.94,132.59Z"/><path class="cls-5" d="M152.72,105.57c.28.38.15,1.56.15,2.06-.1,2.19-.93,2.55-1.71,2.6s-1.5-.19-1.6.69c-.15,1.29,2.95.58,2.48,3.36-.52,3.32-1.46,2.45-1.49,1.42-.09-1.43-2.65-2.42-2.17-4.63a2.56,2.56,0,0,1,.55-1.2,1.47,1.47,0,0,1-1.08.32c-1,0-1.35-.82-1.8-1.66s-.72-1.74-1.22-2c-.74-.37-1.14-1.52,1.35-1.26,2.1,0,1,3.46,2.07,3.6,1.41.17-.32-3.63,2.94-3.61C151.56,105.28,152.45,105.18,152.72,105.57Z"/><path class="cls-5" d="M131.07,105.31c-.3.21-.26.85-.3,1.12a1.44,1.44,0,0,0,.43,1.22,2,2,0,0,0,1,.45c.74.17,1.5.15,1.38.71-.17.81-3-.28-3.18,1.22-.64,1.68.44,1.64.89,1.16.68-.62,3.29-.43,3.39-2a1.2,1.2,0,0,0-.23-.89,1.86,1.86,0,0,0,1,.42,2,2,0,0,0,2.06-.9c.48-.6.88-1.31,1.4-1.51.78-.26,1.28-1.3-1.23-1.09-2.1,0-1.35,2.55-2.37,2.51-1.42,0,.62-2.55-2.64-2.56A4.43,4.43,0,0,0,131.07,105.31Z"/><path class="cls-6" d="M135.29,126.09a1.64,1.64,0,0,0,1,.14c1.08-.24,2.16-.56,3.27-.9l1.69-.55c.55-.21,1.08-.44,1.63-.68,1.09-.47,2.2-1,3.32-1.56s2.12-1.25,3.2-2a2.56,2.56,0,0,0,.78-.93,2,2,0,0,0-.06-1.2,40.55,40.55,0,0,0-3.25-6.68c-.64-1-1.24-2-1.93-2.94s-1.45-1.82-2.18-2.66a1.58,1.58,0,0,0-.83-.45,1.78,1.78,0,0,0-.88.4c-.82.75-1.63,1.46-2.43,2.11A30.88,30.88,0,0,1,136,110a28.31,28.31,0,0,1-5.32,2.64,1.44,1.44,0,0,0-.58.48,1.11,1.11,0,0,0,.17.73c.52.79,1.05,1.64,1.54,2.53s.85,1.78,1.25,2.74c.19.47.4,1,.57,1.47s.3,1,.45,1.48c.28,1,.56,2.08.77,3.17A1.61,1.61,0,0,0,135.29,126.09Z"/><path class="cls-5" d="M137.61,122.31a.7.7,0,0,1-.32-.36c-.24-.76-.5-1.51-.76-2.23a1.82,1.82,0,0,1,.65-2,1.9,1.9,0,0,1-1.91-.93c-.35-.68-.71-1.33-1.07-2a.53.53,0,0,1,0-.41.6.6,0,0,1,.29-.3c.64-.3,1.3-.62,2-1a1.93,1.93,0,0,1,2.1.37,1.81,1.81,0,0,1,.65-2c.62-.43,1.25-.88,1.88-1.36a.61.61,0,0,1,.46-.1.62.62,0,0,1,.41.22c.46.65.92,1.33,1.37,2a2,2,0,0,1-.36,2.29,1.63,1.63,0,0,1,2,.72c.38.76.75,1.54,1.11,2.35a.87.87,0,0,1,0,.55.94.94,0,0,1-.33.44c-.75.45-1.5.87-2.24,1.27a1.61,1.61,0,0,1-2-.59,1.93,1.93,0,0,1-1.09,2c-.76.31-1.52.6-2.26.86A.67.67,0,0,1,137.61,122.31Z"/><path class="cls-7" d="M138.68,120.09c-.34-.15-.42-.72-.19-1.37a1.89,1.89,0,0,1,.62-.83l.2-.13a1.57,1.57,0,0,0,.6-.86.45.45,0,0,0-.3-.63,1.55,1.55,0,0,0-1-.06l-.23.07a1.94,1.94,0,0,1-1,0c-.64-.22-1-.71-.87-1s.68-.5,1.32-.3a1.84,1.84,0,0,1,.87.57l.14.19a1.5,1.5,0,0,0,.84.55.48.48,0,0,0,.64-.33,1.6,1.6,0,0,0,0-1.06l-.09-.22a2,2,0,0,1,0-1.05c.17-.66.66-1,1-1s.58.63.41,1.33a2.09,2.09,0,0,1-.55.92l-.19.16a1.56,1.56,0,0,0-.51.91.46.46,0,0,0,.31.63,1.42,1.42,0,0,0,1,0l.24-.08a1.66,1.66,0,0,1,1,0c.66.19,1,.74.86,1.12a1.08,1.08,0,0,1-1.38.4,1.81,1.81,0,0,1-.82-.63l-.13-.2a1.37,1.37,0,0,0-.84-.58.5.5,0,0,0-.65.33,1.71,1.71,0,0,0-.1,1l.07.23a2.17,2.17,0,0,1-.08,1.08C139.6,120,139,120.23,138.68,120.09Z"/><path class="cls-5" d="M113.36,129.7c.1-.35.72-.49,1-.61a1.65,1.65,0,0,1,1.27,0,2.05,2.05,0,0,1,.74.8c.38.65.6,1.37,1.1,1.1.72-.41-1.17-2.71.17-3.4,1.4-1.14,1.72-.07,1.39.49-.42.77.65,3.33-.87,3.85a1.25,1.25,0,0,1-.93,0,1.89,1.89,0,0,1,.71.8,2.16,2.16,0,0,1-.2,2.27c-.42.64-1,1.22-1,1.78,0,.81-.84,1.6-1.41-.85-.68-2,2-2,1.64-3-.47-1.31-2.22,1.34-3.25-1.75A4.46,4.46,0,0,1,113.36,129.7Z"/><path class="cls-5" d="M120.3,150.21a5.22,5.22,0,0,0,2-.48,3.07,3.07,0,0,0,1.81-1.25,1.57,1.57,0,0,0,.13-1.22c-.19-.74-.65-1.36.17-1.71,1.18-.55,1.49,2.65,3.95,1.3,3-1.52,1.89-2.12.89-1.86-1.41.3-3.08-1.69-5.06-.61a2.51,2.51,0,0,0-1,.88,1.45,1.45,0,0,0,0-1.12c-.32-.89-1.22-1.08-2.13-1.15a5,5,0,0,1-2.31-.57c-.58-.59-1.81-.62-.78,1.66.62,2,3.64,0,4.07.88.61,1.31-3.57.79-2.54,3.89C119.67,149.19,119.85,150.07,120.3,150.21Z"/><path class="cls-5" d="M143.26,133.5c0,.48-.77,1.39-1,1.8-2.89,3.28-3.48-.69-4.64.69-.87,1,2.1,2.27,0,4.14-2.33,2.43-2.56,1.19-2,.3a4.77,4.77,0,0,0,.12-2.42,3,3,0,0,1,.86-2.58,2.35,2.35,0,0,1,1.12-.68,1.44,1.44,0,0,1-1.06-.37c-1.48-1.17.33-3.64-.25-4.73-.39-.74-.06-1.94,1.8-.25.85.6.58,1.47.18,2.28s-1,1.47-.62,1.85,1.07-.24,1.7-.93a1.85,1.85,0,0,1,2.8-.27C142.48,132.58,143.26,133,143.26,133.5Z"/><path class="cls-5" d="M125.9,120.56c-.35,0-.67.56-.85.76-1.58,1.76,1.62,2.76.83,3.55-.59.57-2.19-1.93-3.3-.91-1.48,1-.57,1.66,0,1.5.44-.1,1.16.3,1.91.57s1.58.45,2-.22a1.27,1.27,0,0,0,.31-.88,1.84,1.84,0,0,0,.55.92c1.24,1.38,3.22-.11,4.23.11.77.24,1.76-.33-.39-1.63a1.43,1.43,0,0,0-2,.11c-.49.43-1,.83-1.39.52-.57-.46,0-.79.27-1.38s.41-1.28-.92-2.24C126.94,121.13,126.26,120.56,125.9,120.56Z"/><path class="cls-6" d="M117.1,139.86a1.63,1.63,0,0,0,.69.66,39.31,39.31,0,0,0,14,3.18,2.48,2.48,0,0,0,1.15-.33,2.56,2.56,0,0,0,.66-1l.48-1.82c.14-.6.24-1.24.35-1.85.21-1.23.37-2.43.5-3.59s.12-2.41.12-3.55l0-1.7c0-.58-.09-1.16-.15-1.72a1.62,1.62,0,0,0-.42-.86,1.7,1.7,0,0,0-.93-.19c-.55.07-1.07.15-1.6.19l-1.63.07c-1.07,0-2.09,0-3.11,0s-2.06-.22-3-.38c-.49-.08-1-.15-1.44-.27s-1-.25-1.43-.38a1.15,1.15,0,0,0-.76,0,1.18,1.18,0,0,0-.26.72,30.48,30.48,0,0,1-3,11.86A1.85,1.85,0,0,0,117.1,139.86Z"/><path class="cls-5" d="M121.2,138.15a.77.77,0,0,1,0-.47,21.24,21.24,0,0,0,.71-2.22,1.71,1.71,0,0,1,1.67-1.22,1.89,1.89,0,0,1-1-1.87l.18-1.08.1-1.13a.58.58,0,0,1,.21-.35.52.52,0,0,1,.4-.1c.71.16,1.45.31,2.21.44a1.9,1.9,0,0,1,1.48,1.52,1.67,1.67,0,0,1,1.64-1.24,20.65,20.65,0,0,0,2.36,0,.65.65,0,0,1,.42.19.66.66,0,0,1,.2.43,21.49,21.49,0,0,1-.12,2.41,2.09,2.09,0,0,1-1.59,1.69,1.64,1.64,0,0,1,1.19,1.76c-.15.82-.33,1.65-.53,2.49a.9.9,0,0,1-.33.45.86.86,0,0,1-.51.18l-1.27-.1-1.29-.19a1.65,1.65,0,0,1-1.31-1.68,2.1,2.1,0,0,1-2.07,1c-.78-.17-1.59-.44-2.36-.67A.75.75,0,0,1,121.2,138.15Z"/><path class="cls-7" d="M123.37,137c-.17-.31.06-.89.64-1.24a2,2,0,0,1,1-.26h.25a1.34,1.34,0,0,0,1-.37.47.47,0,0,0,.12-.7,1.51,1.51,0,0,0-.79-.64l-.22-.08a1.76,1.76,0,0,1-.81-.63c-.38-.55-.38-1.16-.12-1.35s.83,0,1.24.52a1.83,1.83,0,0,1,.35,1v.24a1.55,1.55,0,0,0,.37.95.46.46,0,0,0,.7.1,1.59,1.59,0,0,0,.65-.82l.07-.23a2.53,2.53,0,0,1,.58-.87c.5-.45,1.11-.51,1.35-.24s.12.88-.41,1.36a1.7,1.7,0,0,1-1,.42h-.25a1.59,1.59,0,0,0-1,.4.48.48,0,0,0-.12.71,1.37,1.37,0,0,0,.81.62l.23.07a1.83,1.83,0,0,1,.86.59,1,1,0,0,1,0,1.42,1,1,0,0,1-1.33-.46,1.88,1.88,0,0,1-.3-1v-.25a1.45,1.45,0,0,0-.36-1,.46.46,0,0,0-.7-.09,1.94,1.94,0,0,0-.68.81l-.09.22a2.09,2.09,0,0,1-.72.79C124.17,137.37,123.55,137.31,123.37,137Z"/><path class="cls-5" d="M97.24,129.93c.28-.23.88,0,1.15,0,2.27.59.29,3.28,1.4,3.4.81.08.65-2.93,2.13-2.67,1.81-.06,1.44.92.83,1.23-.41.22-.75,1-1.2,1.6s-1,1.18-1.76,1A1.14,1.14,0,0,1,99,134a1.8,1.8,0,0,1,.1,1.05c-.21,1.94-2.63,1.66-3.35,2.56-.48.67-1.63.81-.64-1.52.6-2,2.83-.52,3.1-1.5.18-.68-.45-.72-1-1s-1.1-.73-.59-2.31C96.74,131,97,130.13,97.24,129.93Z"/><path class="cls-5" d="M90.8,150.6c.29.38,1.46.61,1.94.76,2.13.55,2.72-.09,3-.82s.28-1.48,1.15-1.31c1.28.24-.35,3,2.44,3.37a4.89,4.89,0,0,0,1.81.13c.4,0,.61-.15.69-.29s-.21-.63-.69-.81c-.66-.25-1-1.07-1.53-1.87a2.83,2.83,0,0,0-2.21-1.6,2.46,2.46,0,0,0-1.32.16,1.48,1.48,0,0,0,.64-.94c.49-1.72-2.38-2.9-2.58-4-.13-.8-1.1-1.55-1.61.89-.69,2,3,2.05,2.79,3.07C95.05,148.71,91.94,146,91,149,90.89,149.39,90.53,150.2,90.8,150.6Z"/><path class="cls-5" d="M119.22,150.6c-.28.38-1.45.61-1.93.76-2.13.54-2.72-.1-3-.82s-.27-1.48-1.14-1.31c-1.28.24.34,3-2.44,3.36a4.94,4.94,0,0,1-1.81.14c-.4,0-.62-.16-.7-.29s.22-.63.7-.81a1.9,1.9,0,0,0,.82-.73c.24-.35.46-.75.7-1.14a2.86,2.86,0,0,1,2.22-1.61,2.52,2.52,0,0,1,1.31.16,1.53,1.53,0,0,1-.64-.93c-.49-1.73,2.38-2.91,2.58-4,.13-.8,1.1-1.55,1.61.89.69,2-3,2-2.79,3.06.27,1.39,3.38-1.36,4.36,1.7C119.13,149.38,119.5,150.19,119.22,150.6Z"/><path class="cls-5" d="M112.78,129.92c-.29-.22-.88,0-1.15,0-2.28.59-.29,3.27-1.4,3.4-.82.08-.65-2.94-2.13-2.67-1.81-.06-1.44.92-.84,1.22a1.85,1.85,0,0,1,.59.66l.61.94c.45.64,1,1.19,1.77,1A1.2,1.2,0,0,0,111,134a1.89,1.89,0,0,0-.11,1.05c.22,1.94,2.64,1.65,3.36,2.55.48.68,1.63.81.65-1.51-.61-2-2.84-.52-3.11-1.5-.18-.69.45-.72,1-1s1.09-.73.58-2.31C113.28,131,113.06,130.12,112.78,129.92Z"/><path class="cls-6" d="M94.3,140.34a1.52,1.52,0,0,0,.18.93c.57.94,1.19,1.9,1.86,2.87a28.79,28.79,0,0,0,2.21,2.74,33.07,33.07,0,0,0,2.51,2.66c.9.83,1.84,1.65,2.83,2.47a2.49,2.49,0,0,0,1.12.46,2.4,2.4,0,0,0,1.12-.46c1-.82,1.94-1.64,2.83-2.47a33.21,33.21,0,0,0,2.52-2.66,31.78,31.78,0,0,0,2.2-2.74c.67-1,1.29-1.93,1.87-2.88a1.55,1.55,0,0,0,.17-.92,1.74,1.74,0,0,0-.65-.72q-1.45-.83-2.76-1.68a25.89,25.89,0,0,1-2.5-1.92,23.85,23.85,0,0,1-2.22-2c-.69-.74-1.34-1.49-1.94-2.22a.73.73,0,0,0-1.28,0c-.6.73-1.25,1.48-1.94,2.22a25.42,25.42,0,0,1-2.22,2.05,27.5,27.5,0,0,1-2.5,1.91q-1.3.85-2.76,1.68A1.87,1.87,0,0,0,94.3,140.34Z"/><path class="cls-5" d="M98.63,141.34a.7.7,0,0,1,.23-.41c.66-.46,1.28-.92,1.89-1.39a1.86,1.86,0,0,1,2.06,0,1.9,1.9,0,0,1,.29-2.1q.81-.8,1.53-1.59a.59.59,0,0,1,.76,0c.48.52,1,1.06,1.53,1.59a1.9,1.9,0,0,1,.29,2.1,1.87,1.87,0,0,1,2.07,0c.6.47,1.22.93,1.88,1.39a.7.7,0,0,1,.15.87c-.49.63-1,1.27-1.52,1.91a1.92,1.92,0,0,1-2.29.37,1.63,1.63,0,0,1-.07,2.13c-.61.59-1.24,1.18-1.89,1.76a.87.87,0,0,1-.53.18.84.84,0,0,1-.52-.18c-.66-.58-1.29-1.17-1.89-1.76a1.63,1.63,0,0,1-.08-2.13,1.91,1.91,0,0,1-2.28-.37c-.54-.64-1-1.28-1.52-1.91A.62.62,0,0,1,98.63,141.34Z"/><path class="cls-7" d="M101.06,141.71c0-.33.57-.68,1.25-.65a1.93,1.93,0,0,1,1,.35l.19.16a1.59,1.59,0,0,0,1,.31.44.44,0,0,0,.51-.47,1.64,1.64,0,0,0-.26-1l-.14-.2a2,2,0,0,1-.28-1c0-.68.38-1.14.7-1.12s.68.44.7,1.12a2,2,0,0,1-.28,1l-.14.2a1.64,1.64,0,0,0-.26,1,.44.44,0,0,0,.51.47,1.53,1.53,0,0,0,1-.32l.19-.15a1.93,1.93,0,0,1,1-.35c.69,0,1.21.31,1.25.65s-.42.77-1.14.8a2,2,0,0,1-1-.25l-.2-.13a1.65,1.65,0,0,0-1-.21.5.5,0,0,0-.51.52,1.34,1.34,0,0,0,.29,1l.15.19a1.73,1.73,0,0,1,.34,1,.87.87,0,1,1-1.6,0,1.81,1.81,0,0,1,.34-1l.16-.19a1.39,1.39,0,0,0,.28-1,.5.5,0,0,0-.51-.52,1.66,1.66,0,0,0-1,.21l-.2.14a2,2,0,0,1-1,.24C101.49,142.48,101,142.08,101.06,141.71Z"/><path class="cls-5" d="M84.11,120.57c.35,0,.67.55.85.76,1.58,1.75-1.62,2.76-.83,3.55.59.57,2.2-1.93,3.31-.91,1.48,1,.56,1.66-.06,1.49-.43-.09-1.15.31-1.9.58a3.07,3.07,0,0,1-1.12.23,1.06,1.06,0,0,1-.92-.44,1.27,1.27,0,0,1-.3-.89,2,2,0,0,1-.55.92c-1.25,1.38-3.22-.11-4.24.11-.77.25-1.76-.33.39-1.62a1.43,1.43,0,0,1,2,.11c.49.42,1,.83,1.4.51.56-.46,0-.79-.28-1.38s-.4-1.28.92-2.24C83.07,121.14,83.75,120.58,84.11,120.57Z"/><path class="cls-5" d="M66.76,133.52c0,.48.77,1.38,1,1.8,2.89,3.28,3.47-.7,4.63.69.87,1-2.09,2.26,0,4.14,2.33,2.42,2.56,1.18,2,.3a4.79,4.79,0,0,1-.12-2.42,4,4,0,0,0-.1-1.34,3,3,0,0,0-.76-1.24,2.36,2.36,0,0,0-1.12-.69,1.43,1.43,0,0,0,1.06-.36c1.48-1.17-.33-3.65.25-4.74.39-.74.06-1.93-1.8-.25-.85.61-.58,1.48-.18,2.29s1,1.47.61,1.85-1.06-.25-1.69-.93a1.85,1.85,0,0,0-2.8-.27C67.53,132.6,66.76,133.05,66.76,133.52Z"/><path class="cls-5" d="M89.73,150.22c-.46.14-1.55-.34-2-.48a3.15,3.15,0,0,1-1.81-1.25,1.52,1.52,0,0,1-.12-1.22c.19-.74.64-1.36-.17-1.71-1.18-.55-1.5,2.65-4,1.31-3-1.53-1.89-2.13-.89-1.87,1.41.3,3.08-1.69,5.06-.61a2.44,2.44,0,0,1,1,.88,1.48,1.48,0,0,1,0-1.13c.32-.88,1.23-1.07,2.13-1.15s1.89-.16,2.31-.56c.58-.6,1.81-.63.79,1.66-.63,2-3.65,0-4.08.88-.61,1.31,3.57.79,2.54,3.89C90.36,149.2,90.18,150.08,89.73,150.22Z"/><path class="cls-5" d="M96.65,129.71c-.1-.35-.72-.5-1-.61a1.66,1.66,0,0,0-1.27,0,2.12,2.12,0,0,0-.74.8c-.39.66-.61,1.38-1.11,1.1-.71-.4,1.17-2.71-.17-3.39-1.4-1.14-1.72-.07-1.38.48.42.78-.65,3.33.87,3.86a1.23,1.23,0,0,0,.92,0,1.86,1.86,0,0,0-.7.8,2.16,2.16,0,0,0,.2,2.27c.42.64,1,1.22,1,1.77,0,.81.85,1.6,1.42-.85.68-2-2-2-1.65-3,.48-1.31,2.23,1.35,3.25-1.74A4.08,4.08,0,0,0,96.65,129.71Z"/><path class="cls-6" d="M75.61,127.28a1.55,1.55,0,0,0-.42.87c-.06.56-.13,1.14-.16,1.71l0,1.7c0,1.15,0,2.35.13,3.55a42.47,42.47,0,0,0,1.33,7.26,1.72,1.72,0,0,0,1.81,1.34,39.1,39.1,0,0,0,14-3.19,1.57,1.57,0,0,0,.69-.66,1.73,1.73,0,0,0-.11-1,30.31,30.31,0,0,1-3-11.86c0-.23-.1-.6-.27-.72a1.14,1.14,0,0,0-.76,0,29.91,29.91,0,0,1-5.9,1c-1,.07-2,.06-3.1,0-.54,0-1.08,0-1.63-.07s-1.06-.11-1.6-.18A1.66,1.66,0,0,0,75.61,127.28Z"/><path class="cls-5" d="M78.49,130.66a.69.69,0,0,1,.42-.18,23.23,23.23,0,0,0,2.36,0,1.68,1.68,0,0,1,1.64,1.25,1.89,1.89,0,0,1,1.48-1.53c.76-.13,1.49-.28,2.21-.44a.53.53,0,0,1,.6.45l.11,1.13.18,1.08a1.9,1.9,0,0,1-1,1.87,1.69,1.69,0,0,1,1.66,1.22c.19.77.46,1.47.72,2.22a.67.67,0,0,1-.05.46.77.77,0,0,1-.34.33c-.77.23-1.58.5-2.36.67a2.1,2.1,0,0,1-2.07-1.05,1.65,1.65,0,0,1-1.31,1.68l-1.29.19-1.27.11a1,1,0,0,1-.51-.19.92.92,0,0,1-.33-.44c-.2-.85-.38-1.68-.53-2.49A1.65,1.65,0,0,1,80,135.19a2.09,2.09,0,0,1-1.6-1.68c-.05-.83-.14-1.58-.12-2.42A.73.73,0,0,1,78.49,130.66Z"/><path class="cls-7" d="M80.26,132.36c.24-.26.86-.21,1.36.25a2.49,2.49,0,0,1,.58.87l.07.22a1.59,1.59,0,0,0,.65.82.47.47,0,0,0,.7-.1,1.55,1.55,0,0,0,.37-.95v-.24a1.88,1.88,0,0,1,.36-1c.41-.54,1-.72,1.24-.52s.26.8-.13,1.35a1.69,1.69,0,0,1-.8.63l-.22.08a1.47,1.47,0,0,0-.79.64.48.48,0,0,0,.12.71,1.31,1.31,0,0,0,1,.36l.25,0a2,2,0,0,1,1,.27c.58.35.81.93.63,1.24s-.79.37-1.4,0a2.09,2.09,0,0,1-.72-.79l-.09-.22a1.94,1.94,0,0,0-.68-.81.47.47,0,0,0-.71.09,1.51,1.51,0,0,0-.35,1v.25a1.85,1.85,0,0,1-.3,1,1,1,0,0,1-1.33.46,1,1,0,0,1,0-1.42A1.83,1.83,0,0,1,82,136l.23-.07a1.4,1.4,0,0,0,.81-.62.48.48,0,0,0-.12-.71,1.61,1.61,0,0,0-1-.4h-.24a1.64,1.64,0,0,1-1-.42C80.15,133.24,80,132.62,80.26,132.36Z"/><path class="cls-5" d="M78.93,105.33c.3.2.26.84.3,1.11a1.46,1.46,0,0,1-.42,1.22,2,2,0,0,1-1,.45c-.74.17-1.5.16-1.38.72.17.8,3-.28,3.17,1.21.65,1.68-.44,1.65-.89,1.16-.67-.62-3.29-.42-3.38-2a1.2,1.2,0,0,1,.23-.89,1.74,1.74,0,0,1-1,.42,2,2,0,0,1-2-.9c-.49-.6-.88-1.3-1.41-1.5-.77-.26-1.28-1.31,1.23-1.09,2.1,0,1.35,2.55,2.38,2.5,1.42,0-.63-2.54,2.63-2.56A4.19,4.19,0,0,1,78.93,105.33Z"/><path class="cls-5" d="M57.28,105.59a5.19,5.19,0,0,0-.14,2.06c.09,2.19.93,2.55,1.71,2.6s1.49-.19,1.59.69c.16,1.29-2.94.59-2.47,3.36.52,3.32,1.46,2.45,1.49,1.42.09-1.42,2.65-2.42,2.16-4.62a2.45,2.45,0,0,0-.55-1.21,1.5,1.5,0,0,0,1.09.32c1,0,1.35-.82,1.79-1.66s.72-1.75,1.23-2c.74-.37,1.13-1.52-1.35-1.25-2.11,0-1,3.45-2.07,3.59-1.41.17.31-3.63-2.95-3.61C58.44,105.3,57.55,105.21,57.28,105.59Z"/><path class="cls-5" d="M66.08,132.61a2.15,2.15,0,0,1-.77-.67c-.25-.33-.45-.7-.59-.9-2.28-3.74,1.7-3.08.72-4.6-.61-1.15-2.72,1.25-3.92-1.3-.85-1.45-.87-2.19-.66-2.42s.66,0,1,.42c1,1.06,3.61.38,4.47,2.48a2.86,2.86,0,0,1,.3,1.27,1.44,1.44,0,0,1,.67-.89c1.55-1,3.47,1.38,4.58,1.23.82-.14,1.89.51-.3,1.77-.82.62-1.63.14-2.23-.53s-1.1-1.4-1.56-1.16c-.62.33,0,1.06.36,1.91a1.87,1.87,0,0,1-.61,2.74C67.2,132.15,66.54,132.75,66.08,132.61Z"/><path class="cls-5" d="M83.73,120.07a.72.72,0,0,0-.15-.55c-.11-.19-.22-.39-.28-.51-1.22-2-3.15.71-3.68-.27-.31-.76,2.59-1.53,1.91-2.87-.31-.85-.6-1.12-.88-1.1a.81.81,0,0,0-.58.7c-.09.87-2.35,2.26-1.54,3.63.16.31.28.36.75.56a1.94,1.94,0,0,0-1.06.24c-1.71.77-.78,3-1.41,4-.47.66-.2,1.76,1.69.12.87-.62.68-1.27.5-1.92s-.49-1.21,0-1.49c.59-.39.81.21,1.22.69s1.11.77,2.41-.18C82.87,120.88,83.62,120.41,83.73,120.07Z"/><path class="cls-6" d="M68.12,105.75a1.51,1.51,0,0,0-.83.45c-.74.84-1.47,1.73-2.19,2.66s-1.29,1.91-1.92,2.94a40.55,40.55,0,0,0-3.25,6.68,2.12,2.12,0,0,0-.06,1.2,2.56,2.56,0,0,0,.78.93c1.08.7,2.13,1.36,3.2,2s2.23,1.09,3.32,1.56c.55.24,1.08.47,1.63.67l1.69.56c1.12.34,2.19.65,3.28.9a1.66,1.66,0,0,0,1-.14,1.58,1.58,0,0,0,.45-.83c.22-1.08.49-2.15.78-3.16.14-.51.29-1,.44-1.49s.38-1,.57-1.47c.4-1,.82-1.87,1.25-2.74s1-1.74,1.54-2.53a1.16,1.16,0,0,0,.17-.73,1.56,1.56,0,0,0-.59-.48A28.26,28.26,0,0,1,74,110.05c-.85-.55-1.76-1.14-2.6-1.79s-1.61-1.36-2.42-2.11A1.73,1.73,0,0,0,68.12,105.75Z"/><path class="cls-5" d="M68.49,110.18a.64.64,0,0,1,.45.09c.64.49,1.27.94,1.89,1.37a1.8,1.8,0,0,1,.65,2,1.9,1.9,0,0,1,2.09-.37c.67.35,1.32.67,2,1a.57.57,0,0,1,.28.31.55.55,0,0,1,0,.4c-.37.63-.72,1.28-1.07,1.95a1.93,1.93,0,0,1-1.91.94,1.84,1.84,0,0,1,.66,1.95c-.27.72-.53,1.46-.77,2.23a.68.68,0,0,1-.32.35.62.62,0,0,1-.46.06c-.74-.26-1.49-.55-2.26-.86a1.93,1.93,0,0,1-1.09-2,1.62,1.62,0,0,1-2,.59c-.74-.4-1.49-.82-2.24-1.27a.94.94,0,0,1-.33-.44,1,1,0,0,1,0-.55c.36-.81.73-1.59,1.11-2.35a1.62,1.62,0,0,1,2-.72,2,2,0,0,1-.35-2.29c.45-.71.9-1.39,1.37-2A.62.62,0,0,1,68.49,110.18Z"/><path class="cls-7" d="M68.87,112.6c.35-.07.84.33,1,1a1.87,1.87,0,0,1,0,1l-.08.23a1.63,1.63,0,0,0,0,1,.48.48,0,0,0,.65.33,1.45,1.45,0,0,0,.84-.55l.14-.18a1.93,1.93,0,0,1,.87-.58c.64-.19,1.19,0,1.31.31s-.22.78-.86,1a1.83,1.83,0,0,1-1,0l-.23-.07a1.62,1.62,0,0,0-1,.06.46.46,0,0,0-.3.64,1.61,1.61,0,0,0,.6.86l.2.13a1.83,1.83,0,0,1,.62.83c.23.64.15,1.21-.19,1.37s-.91-.14-1.15-.82a2.18,2.18,0,0,1-.08-1.08l.07-.24a1.62,1.62,0,0,0-.11-1,.49.49,0,0,0-.64-.33,1.4,1.4,0,0,0-.84.57l-.13.21a1.81,1.81,0,0,1-.82.63,1.08,1.08,0,0,1-1.38-.4c-.15-.38.2-.93.86-1.13a1.82,1.82,0,0,1,1,0l.24.09a1.48,1.48,0,0,0,1,0,.46.46,0,0,0,.31-.63,1.68,1.68,0,0,0-.51-.92l-.19-.15a2.13,2.13,0,0,1-.55-.93C68.29,113.24,68.53,112.67,68.87,112.6Z"/><path class="cls-5" d="M83.72,90a.66.66,0,0,1-.15.55c-.1.2-.22.39-.28.51-1.22,2-3.15-.7-3.67.28-.32.76,2.58,1.53,1.91,2.87-.32.85-.6,1.12-.89,1.09a.79.79,0,0,1-.57-.69c-.1-.87-2.36-2.26-1.55-3.63.16-.31.28-.36.75-.56a2,2,0,0,1-1.06-.24c-1.71-.77-.78-3-1.41-4-.48-.66-.2-1.76,1.69-.12.87.62.68,1.27.5,1.92s-.48,1.21,0,1.49c.59.39.81-.21,1.22-.69s1.11-.77,2.42.18C82.86,89.15,83.62,89.62,83.72,90Z"/><path class="cls-5" d="M66.06,77.43a2,2,0,0,0-.76.67c-.25.32-.45.7-.59.9-2.28,3.74,1.7,3.08.72,4.6-.61,1.15-2.72-1.25-3.92,1.29-.85,1.46-.87,2.2-.66,2.43s.67,0,1-.42c1-1.07,3.62-.38,4.47-2.48a2.9,2.9,0,0,0,.3-1.27c.23.56.31.65.67.88,1.55,1,3.46-1.38,4.58-1.22.82.13,1.88-.52-.3-1.78-.82-.61-1.64-.13-2.23.53s-1.1,1.4-1.56,1.16c-.62-.33,0-1,.36-1.9a1.88,1.88,0,0,0-.61-2.75C67.18,77.89,66.52,77.29,66.06,77.43Z"/><path class="cls-5" d="M57.28,104.45c-.27-.38-.14-1.57-.15-2.06.11-2.19.93-2.55,1.72-2.6s1.49.19,1.59-.69c.15-1.3-2.94-.59-2.47-3.36.51-3.32,1.45-2.45,1.49-1.42.09,1.42,2.65,2.41,2.16,4.62a2.45,2.45,0,0,1-.55,1.21,1.49,1.49,0,0,1,1.09-.33c1,0,1.35.83,1.79,1.67s.72,1.74,1.23,2c.74.37,1.13,1.53-1.36,1.26-2.1,0-1-3.46-2.06-3.59-1.42-.17.31,3.63-2.95,3.61C58.44,104.74,57.55,104.84,57.28,104.45Z"/><path class="cls-5" d="M78.93,104.7c.3-.2.26-.84.3-1.11a1.46,1.46,0,0,0-.42-1.22,2,2,0,0,0-1-.45c-.74-.17-1.5-.15-1.38-.72.16-.8,3,.28,3.17-1.21.65-1.69-.44-1.65-.89-1.16-.67.62-3.29.42-3.38,2a1.23,1.23,0,0,0,.22.89,1.75,1.75,0,0,0-1-.42,2,2,0,0,0-2.06.9c-.48.6-.87,1.31-1.4,1.51-.77.25-1.28,1.3,1.23,1.08,2.1,0,1.35-2.54,2.38-2.5,1.42,0-.63,2.54,2.63,2.56A4.19,4.19,0,0,0,78.93,104.7Z"/><path class="cls-6" d="M74.72,83.92a1.74,1.74,0,0,0-1-.14c-1.09.25-2.16.56-3.28.91l-1.69.55c-.55.21-1.08.44-1.63.67-1.08.48-2.19,1-3.32,1.57s-2.12,1.25-3.2,1.94a2.57,2.57,0,0,0-.77.94,2,2,0,0,0,.06,1.2,41.33,41.33,0,0,0,3.24,6.68c.64,1,1.24,2,1.93,2.93s1.45,1.83,2.18,2.66a1.59,1.59,0,0,0,.84.46,1.82,1.82,0,0,0,.88-.4c.81-.76,1.62-1.46,2.42-2.12s1.75-1.24,2.6-1.79a28.26,28.26,0,0,1,5.32-2.63,1.48,1.48,0,0,0,.58-.49c.08-.19-.06-.52-.16-.72-.53-.8-1.06-1.65-1.55-2.53s-.84-1.78-1.24-2.74c-.2-.48-.4-1-.57-1.47s-.31-1-.45-1.49c-.28-1-.56-2.08-.78-3.16A1.7,1.7,0,0,0,74.72,83.92Z"/><path class="cls-5" d="M72.39,87.71a.68.68,0,0,1,.32.35c.25.77.5,1.51.77,2.24a1.85,1.85,0,0,1-.66,2,1.92,1.92,0,0,1,1.92.93c.34.68.7,1.33,1.06,1.95a.51.51,0,0,1,0,.4.57.57,0,0,1-.28.31c-.65.3-1.31.62-2,1a1.89,1.89,0,0,1-2.09-.36,1.8,1.8,0,0,1-.65,2c-.63.43-1.25.89-1.89,1.37a.71.71,0,0,1-.46.1.67.67,0,0,1-.41-.22c-.46-.66-.92-1.34-1.37-2a2,2,0,0,1,.36-2.29,1.63,1.63,0,0,1-2-.72c-.38-.76-.75-1.55-1.11-2.35a.87.87,0,0,1,0-.55,1,1,0,0,1,.33-.45c.76-.44,1.5-.87,2.24-1.26a1.62,1.62,0,0,1,2,.58,1.92,1.92,0,0,1,1.09-2c.77-.31,1.52-.6,2.26-.87A.61.61,0,0,1,72.39,87.71Z"/><path class="cls-7" d="M71.33,89.92c.34.16.41.73.19,1.37a1.86,1.86,0,0,1-.63.83l-.2.14a1.58,1.58,0,0,0-.59.86.44.44,0,0,0,.29.63,1.55,1.55,0,0,0,1,.06l.23-.07a2,2,0,0,1,1,.05c.63.22,1,.7.86,1s-.67.49-1.32.3a2,2,0,0,1-.87-.57l-.13-.19a1.53,1.53,0,0,0-.85-.55.48.48,0,0,0-.64.33,1.63,1.63,0,0,0,0,1l.09.23a1.88,1.88,0,0,1,0,1c-.17.66-.66,1.06-1,1s-.59-.64-.41-1.33a2,2,0,0,1,.55-.92l.18-.16a1.5,1.5,0,0,0,.51-.91.47.47,0,0,0-.3-.64,1.44,1.44,0,0,0-1,0l-.23.08a1.77,1.77,0,0,1-1,0c-.65-.19-1-.75-.86-1.12a1.07,1.07,0,0,1,1.38-.4,1.81,1.81,0,0,1,.82.63l.13.2a1.43,1.43,0,0,0,.84.57.49.49,0,0,0,.65-.33,1.55,1.55,0,0,0,.1-1l-.06-.24a2.05,2.05,0,0,1,.07-1.08C70.41,90.07,71,89.78,71.33,89.92Z"/><path class="cls-5" d="M96.64,80.32c-.1.34-.72.49-1,.61a1.7,1.7,0,0,1-1.27,0,2,2,0,0,1-.74-.8c-.39-.65-.61-1.38-1.11-1.1-.71.41,1.17,2.71-.17,3.39-1.4,1.15-1.72.07-1.38-.48.42-.78-.65-3.33.86-3.85a1.2,1.2,0,0,1,.93,0,1.94,1.94,0,0,1-.71-.8,2.2,2.2,0,0,1,.2-2.27c.43-.65,1-1.22,1-1.78,0-.81.85-1.6,1.41.85.69,2-2,2-1.64,3,.47,1.31,2.23-1.35,3.25,1.75A4,4,0,0,1,96.64,80.32Z"/><path class="cls-5" d="M89.7,59.81c-.45-.15-1.54.33-2,.48a3.1,3.1,0,0,0-1.81,1.25,1.55,1.55,0,0,0-.13,1.21c.2.75.65,1.36-.16,1.72-1.18.55-1.5-2.66-4-1.31-3,1.53-1.89,2.12-.89,1.87,1.42-.3,3.08,1.69,5.06.6a2.34,2.34,0,0,0,1-.87,1.4,1.4,0,0,0,0,1.12C87.12,66.76,88,67,88.93,67a5.12,5.12,0,0,1,2.31.56c.58.6,1.81.63.78-1.65-.62-2-3.64,0-4.07-.88-.61-1.32,3.57-.79,2.54-3.9C90.34,60.82,90.16,60,89.7,59.81Z"/><path class="cls-5" d="M66.74,76.51c0-.48.78-1.38,1.06-1.79,2.88-3.29,3.47.69,4.63-.7.87-1-2.09-2.26,0-4.14,2.33-2.42,2.56-1.18,2-.29A4.63,4.63,0,0,0,74.32,72a3.05,3.05,0,0,1-.85,2.59,2.49,2.49,0,0,1-1.12.68,1.45,1.45,0,0,1,1.05.36c1.48,1.17-.33,3.65.26,4.74.39.74.06,1.93-1.8.25-.86-.6-.58-1.48-.19-2.29s1-1.47.62-1.84-1.07.24-1.69.93a1.86,1.86,0,0,1-2.8.27C67.52,77.43,66.74,77,66.74,76.51Z"/><path class="cls-5" d="M84.1,89.46c.36,0,.67-.56.85-.76,1.58-1.76-1.62-2.77-.83-3.55.59-.57,2.2,1.92,3.31.9,1.48-1,.56-1.65-.06-1.49-.43.09-1.15-.31-1.9-.57s-1.59-.45-2,.21a1.25,1.25,0,0,0-.3.89,2.09,2.09,0,0,0-.55-.93c-1.25-1.37-3.22.12-4.24-.1-.77-.24-1.76.33.39,1.63a1.44,1.44,0,0,0,2-.12c.49-.42,1-.83,1.4-.52.56.46,0,.8-.28,1.39s-.4,1.28.92,2.24C83.06,88.88,83.74,89.45,84.1,89.46Z"/><path class="cls-6" d="M92.9,70.16a1.57,1.57,0,0,0-.69-.66,39.05,39.05,0,0,0-13.95-3.18,1.72,1.72,0,0,0-1.81,1.34L76,69.47c-.14.61-.24,1.25-.35,1.85-.2,1.23-.37,2.43-.5,3.6S75,77.32,75,78.47l0,1.7c0,.57.1,1.15.15,1.71a1.63,1.63,0,0,0,.43.87,1.58,1.58,0,0,0,.93.18c.54-.07,1.06-.14,1.59-.18s1.1-.06,1.63-.07c1.08,0,2.1,0,3.11,0s2.06.23,3,.38c.49.09,1,.16,1.44.27s1,.25,1.43.39a1.2,1.2,0,0,0,.76,0,1.25,1.25,0,0,0,.27-.73,30.29,30.29,0,0,1,3-11.86A1.71,1.71,0,0,0,92.9,70.16Z"/><path class="cls-5" d="M88.8,71.87a.65.65,0,0,1,0,.47c-.26.75-.52,1.44-.71,2.21a1.7,1.7,0,0,1-1.66,1.23,1.87,1.87,0,0,1,1,1.87l-.18,1.08-.1,1.12a.52.52,0,0,1-.21.36.5.5,0,0,1-.39.1c-.72-.16-1.46-.31-2.21-.44a1.88,1.88,0,0,1-1.48-1.53,1.68,1.68,0,0,1-1.64,1.25,23.28,23.28,0,0,0-2.36,0,.64.64,0,0,1-.43-.18.66.66,0,0,1-.2-.43,21.67,21.67,0,0,1,.12-2.42A2.08,2.08,0,0,1,80,74.84a1.65,1.65,0,0,1-1.2-1.77c.16-.81.33-1.64.53-2.49a1,1,0,0,1,.33-.44,1,1,0,0,1,.52-.19l1.26.1,1.29.2A1.62,1.62,0,0,1,84,71.93a2.08,2.08,0,0,1,2.07-1.05c.78.16,1.6.44,2.36.67A.63.63,0,0,1,88.8,71.87Z"/><path class="cls-7" d="M86.63,73c.17.3-.06.88-.64,1.24a2,2,0,0,1-1,.26l-.24,0a1.41,1.41,0,0,0-1,.37.48.48,0,0,0-.11.71,1.48,1.48,0,0,0,.79.64l.22.07a1.89,1.89,0,0,1,.8.63c.39.56.39,1.17.13,1.36s-.83,0-1.24-.52a1.79,1.79,0,0,1-.36-1v-.23a1.53,1.53,0,0,0-.37-1,.46.46,0,0,0-.7-.09,1.62,1.62,0,0,0-.65.81l-.06.23a2.74,2.74,0,0,1-.58.87c-.51.46-1.12.51-1.36.25s-.11-.88.41-1.36a1.64,1.64,0,0,1,1-.42h.25a1.67,1.67,0,0,0,1-.4.49.49,0,0,0,.12-.71,1.45,1.45,0,0,0-.81-.63L82,74.08a1.83,1.83,0,0,1-.86-.59,1,1,0,0,1,0-1.42,1,1,0,0,1,1.32.46,1.87,1.87,0,0,1,.31,1v.25a1.41,1.41,0,0,0,.35,1,.46.46,0,0,0,.7.1,1.94,1.94,0,0,0,.68-.81l.09-.22a2,2,0,0,1,.72-.79C85.83,72.65,86.46,72.71,86.63,73Z"/><path class="cls-5" d="M112.77,80.09c-.29.22-.89,0-1.15,0-2.28-.59-.3-3.27-1.4-3.39-.82-.08-.66,2.93-2.14,2.67-1.8.06-1.44-.93-.83-1.23.41-.22.75-1,1.2-1.6s1-1.19,1.76-1A1.18,1.18,0,0,1,111,76a1.92,1.92,0,0,1-.1-1.06c.22-1.93,2.63-1.65,3.35-2.55.49-.68,1.63-.81.65,1.51-.61,2-2.83.53-3.11,1.5-.18.69.45.72,1,1s1.09.73.58,2.31C113.27,79,113.05,79.89,112.77,80.09Z"/><path class="cls-5" d="M119.2,59.41c-.28-.37-1.46-.6-1.93-.76-2.13-.54-2.73.1-3,.82S114,61,113.12,60.78c-1.28-.24.34-3-2.44-3.36a5.23,5.23,0,0,0-1.82-.14c-.4,0-.61.16-.69.29s.22.64.7.82c.65.25,1,1.07,1.52,1.86a2.84,2.84,0,0,0,2.22,1.61,2.43,2.43,0,0,0,1.31-.16,1.48,1.48,0,0,0-.64.94c-.49,1.72,2.38,2.9,2.58,4,.13.8,1.1,1.55,1.61-.89.69-2-3-2-2.79-3.06.27-1.39,3.38,1.36,4.35-1.7C119.11,60.62,119.48,59.81,119.2,59.41Z"/><path class="cls-5" d="M90.78,59.42c.28-.38,1.46-.61,1.93-.76,2.14-.55,2.73.1,3,.82S96,61,96.87,60.79c1.28-.24-.35-3,2.44-3.37a5.17,5.17,0,0,1,1.81-.14c.4,0,.61.16.69.3s-.22.63-.7.81a2.06,2.06,0,0,0-.82.72c-.24.35-.45.76-.7,1.15a2.85,2.85,0,0,1-2.21,1.6,2.54,2.54,0,0,1-1.32-.15,1.44,1.44,0,0,1,.64.93c.49,1.72-2.38,2.9-2.58,4-.13.8-1.1,1.55-1.61-.89-.69-2,3-2,2.79-3.06C95,61.31,91.92,64.06,91,61,90.87,60.63,90.51,59.82,90.78,59.42Z"/><path class="cls-5" d="M97.22,80.09c.29.23.89,0,1.16,0,2.27-.59.29-3.28,1.39-3.4.82-.08.66,2.93,2.14,2.67,1.8,0,1.44-.93.83-1.23a1.91,1.91,0,0,1-.59-.65l-.61-1c-.44-.64-1-1.18-1.77-1A1.18,1.18,0,0,0,99,76a1.92,1.92,0,0,0,.1-1.06c-.22-1.93-2.63-1.65-3.35-2.55-.49-.67-1.64-.81-.65,1.52.6,2,2.83.52,3.1,1.5.19.68-.44.72-1,1s-1.09.74-.58,2.31C96.72,79,96.94,79.89,97.22,80.09Z"/><path class="cls-6" d="M115.7,69.68a1.59,1.59,0,0,0-.17-.93c-.58-1-1.2-1.91-1.87-2.87a31.92,31.92,0,0,0-2.2-2.75,33.21,33.21,0,0,0-2.52-2.66c-.89-.82-1.84-1.65-2.83-2.46a1.59,1.59,0,0,0-2.24,0c-1,.82-1.94,1.64-2.83,2.46a35,35,0,0,0-2.51,2.67,27.2,27.2,0,0,0-2.2,2.74c-.68,1-1.3,1.93-1.87,2.87a1.52,1.52,0,0,0-.18.93,1.83,1.83,0,0,0,.66.72c1,.55,1.88,1.11,2.75,1.68a26.18,26.18,0,0,1,2.5,1.91A25.42,25.42,0,0,1,102.41,76c.7.74,1.34,1.48,1.94,2.22.16.16.44.39.65.37s.48-.21.64-.37c.6-.74,1.24-1.48,1.94-2.23a28.55,28.55,0,0,1,2.21-2,27.08,27.08,0,0,1,2.5-1.91c.87-.57,1.79-1.14,2.76-1.69A1.71,1.71,0,0,0,115.7,69.68Z"/><path class="cls-5" d="M111.37,68.68a.63.63,0,0,1-.23.4c-.65.46-1.28.93-1.88,1.4a1.86,1.86,0,0,1-2.06,0,1.92,1.92,0,0,1-.3,2.11q-.8.8-1.53,1.59a.51.51,0,0,1-.38.14.47.47,0,0,1-.37-.14q-.74-.8-1.53-1.59a1.9,1.9,0,0,1-.3-2.11,1.84,1.84,0,0,1-2.06,0c-.6-.47-1.23-.93-1.88-1.39a.67.67,0,0,1-.24-.41.68.68,0,0,1,.09-.46c.48-.63,1-1.27,1.52-1.91a1.91,1.91,0,0,1,2.28-.38,1.62,1.62,0,0,1,.08-2.12q.9-.89,1.89-1.77a1,1,0,0,1,.52-.18,1,1,0,0,1,.53.18q1,.89,1.89,1.77a1.62,1.62,0,0,1,.07,2.12,1.92,1.92,0,0,1,2.29.38c.53.64,1,1.27,1.52,1.91A.65.65,0,0,1,111.37,68.68Z"/><path class="cls-7" d="M108.94,68.3c0,.34-.56.68-1.24.65a1.9,1.9,0,0,1-1-.35l-.19-.15a1.62,1.62,0,0,0-1-.31.44.44,0,0,0-.51.47,1.66,1.66,0,0,0,.26,1l.14.19a2,2,0,0,1,.28,1c0,.67-.37,1.14-.7,1.12s-.68-.45-.69-1.12a1.85,1.85,0,0,1,.28-1l.13-.2a1.57,1.57,0,0,0,.26-1,.44.44,0,0,0-.51-.47,1.59,1.59,0,0,0-1,.31l-.19.15a1.94,1.94,0,0,1-1,.36c-.68,0-1.21-.32-1.25-.65s.43-.78,1.14-.81a2.11,2.11,0,0,1,1,.25l.21.13a1.55,1.55,0,0,0,1,.22.5.5,0,0,0,.51-.53,1.42,1.42,0,0,0-.28-1l-.15-.18a1.73,1.73,0,0,1-.35-1,.87.87,0,1,1,1.61,0,1.81,1.81,0,0,1-.35,1l-.15.18a1.36,1.36,0,0,0-.29,1,.5.5,0,0,0,.51.52,1.51,1.51,0,0,0,1-.21l.2-.13a2.11,2.11,0,0,1,1-.25C108.52,67.54,109,67.94,108.94,68.3Z"/><path class="cls-5" d="M125.9,89.44c-.36,0-.68-.55-.86-.75-1.58-1.76,1.62-2.77.83-3.55-.59-.57-2.19,1.93-3.3.9-1.48-1-.57-1.65.05-1.49a5.3,5.3,0,0,0,1.91-.57,3,3,0,0,1,1.12-.23,1,1,0,0,1,.91.44,1.28,1.28,0,0,1,.31.89,1.88,1.88,0,0,1,.55-.93c1.24-1.37,3.22.12,4.23-.11.77-.24,1.76.34-.39,1.63a1.43,1.43,0,0,1-2-.11c-.49-.42-1-.83-1.39-.52-.57.46,0,.8.28,1.38s.4,1.29-.92,2.25C126.93,88.87,126.25,89.44,125.9,89.44Z"/><path class="cls-5" d="M143.25,76.49c0-.48-.78-1.38-1.06-1.79-2.88-3.28-3.47.69-4.63-.69-.87-1,2.09-2.27,0-4.14-2.32-2.43-2.56-1.18-2-.3a4.68,4.68,0,0,1,.12,2.42,4.29,4.29,0,0,0,.1,1.34,3,3,0,0,0,.76,1.24,2.41,2.41,0,0,0,1.12.68,1.41,1.41,0,0,0-1,.37c-1.48,1.17.33,3.64-.25,4.74-.4.74-.07,1.93,1.79.24.86-.6.58-1.48.19-2.29s-1-1.46-.62-1.84,1.07.24,1.69.93a1.85,1.85,0,0,0,2.8.27C142.47,77.41,143.24,77,143.25,76.49Z"/><path class="cls-5" d="M120.28,59.8c.45-.15,1.55.33,2,.48a3.07,3.07,0,0,1,1.81,1.25,1.55,1.55,0,0,1,.13,1.21c-.19.75-.65,1.36.17,1.72,1.18.55,1.49-2.66,4-1.31,3,1.53,1.89,2.12.89,1.86-1.41-.3-3.08,1.7-5.06.61a2.4,2.4,0,0,1-1-.87,1.45,1.45,0,0,1,0,1.12c-.32.89-1.22,1.08-2.13,1.15a5,5,0,0,0-2.31.57c-.58.59-1.8.62-.78-1.66.62-2,3.64,0,4.07-.88.61-1.31-3.57-.79-2.54-3.89C119.64,60.81,119.83,59.94,120.28,59.8Z"/><path class="cls-5" d="M113.35,80.31c.1.35.72.5,1,.61a1.58,1.58,0,0,0,1.26,0,1.92,1.92,0,0,0,.74-.8c.39-.65.61-1.37,1.11-1.1.71.41-1.17,2.72.17,3.4,1.4,1.14,1.72.07,1.38-.49-.41-.77.65-3.33-.86-3.85a1.25,1.25,0,0,0-.93,0,1.89,1.89,0,0,0,.71-.8,2.18,2.18,0,0,0-.21-2.27c-.42-.64-1-1.22-1-1.78,0-.81-.85-1.6-1.42.85-.68,2,2,2,1.65,3-.47,1.32-2.23-1.34-3.25,1.75A4.24,4.24,0,0,0,113.35,80.31Z"/><path class="cls-6" d="M134.4,82.74a1.73,1.73,0,0,0,.42-.87c.05-.56.12-1.14.15-1.71l0-1.7c0-1.15,0-2.35-.12-3.56a42.59,42.59,0,0,0-1.34-7.25,1.74,1.74,0,0,0-1.8-1.35,39.43,39.43,0,0,0-13.95,3.19,1.57,1.57,0,0,0-.69.66,1.75,1.75,0,0,0,.11,1,30.29,30.29,0,0,1,3,11.86,1.26,1.26,0,0,0,.27.72,1.15,1.15,0,0,0,.76,0,29.91,29.91,0,0,1,5.9-1c1-.06,2,0,3.11,0l1.63.06c.53,0,1,.12,1.59.19A1.71,1.71,0,0,0,134.4,82.74Z"/><path class="cls-5" d="M131.52,79.35a.65.65,0,0,1-.43.19,23.33,23.33,0,0,0-2.36,0,1.68,1.68,0,0,1-1.64-1.25,1.89,1.89,0,0,1-1.47,1.53c-.76.13-1.5.28-2.21.44a.51.51,0,0,1-.4-.1.56.56,0,0,1-.21-.36l-.1-1.12-.18-1.08a1.87,1.87,0,0,1,1-1.87,1.7,1.7,0,0,1-1.66-1.23c-.19-.77-.45-1.46-.71-2.21a.65.65,0,0,1,0-.47.63.63,0,0,1,.34-.32c.76-.23,1.57-.5,2.36-.67a2.09,2.09,0,0,1,2.07,1,1.63,1.63,0,0,1,1.31-1.69l1.28-.19,1.27-.1a1,1,0,0,1,.52.19.9.9,0,0,1,.32.44q.3,1.26.54,2.49a1.63,1.63,0,0,1-1.2,1.76,2.1,2.1,0,0,1,1.6,1.69,21.55,21.55,0,0,1,.12,2.42A.62.62,0,0,1,131.52,79.35Z"/><path class="cls-7" d="M129.74,77.66c-.24.26-.85.21-1.36-.25a2.74,2.74,0,0,1-.58-.87l-.07-.23a1.5,1.5,0,0,0-.64-.81.46.46,0,0,0-.7.09,1.61,1.61,0,0,0-.38,1v.23a1.88,1.88,0,0,1-.36,1c-.41.54-1,.71-1.24.52s-.26-.8.13-1.36a1.83,1.83,0,0,1,.8-.63l.22-.07a1.48,1.48,0,0,0,.79-.64.48.48,0,0,0-.12-.71,1.31,1.31,0,0,0-1-.36H125a2,2,0,0,1-1-.26c-.58-.36-.81-.94-.64-1.24s.79-.37,1.4,0a1.88,1.88,0,0,1,.72.79l.1.22a1.87,1.87,0,0,0,.68.81.47.47,0,0,0,.7-.1,1.41,1.41,0,0,0,.35-1v-.25a1.85,1.85,0,0,1,.3-1,.86.86,0,1,1,1.29,1,1.83,1.83,0,0,1-.85.59l-.24.06a1.45,1.45,0,0,0-.81.63.49.49,0,0,0,.12.71,1.67,1.67,0,0,0,1,.4h.25a1.59,1.59,0,0,1,1,.42C129.85,76.78,130,77.4,129.74,77.66Z"/><path class="cls-5" d="M131.07,104.69c-.3-.21-.26-.85-.3-1.12a1.41,1.41,0,0,1,.43-1.21,2,2,0,0,1,1-.46c.73-.16,1.49-.15,1.37-.71-.16-.8-3,.28-3.17-1.21-.65-1.69.44-1.65.89-1.17.67.63,3.29.43,3.39,2a1.24,1.24,0,0,1-.23.89,1.86,1.86,0,0,1,1-.42,2,2,0,0,1,2.06.9c.48.6.88,1.31,1.4,1.51.77.26,1.28,1.3-1.23,1.08-2.1,0-1.35-2.54-2.37-2.5-1.42,0,.62,2.55-2.64,2.57A4.43,4.43,0,0,1,131.07,104.69Z"/><path class="cls-5" d="M152.72,104.43c.28-.39.15-1.57.15-2.07-.1-2.19-.93-2.55-1.72-2.59s-1.49.19-1.59-.69c-.15-1.3,2.94-.59,2.47-3.36-.52-3.32-1.45-2.45-1.49-1.43-.09,1.43-2.64,2.42-2.16,4.63a2.45,2.45,0,0,0,.55,1.21,1.49,1.49,0,0,0-1.09-.33c-1,0-1.34.83-1.79,1.67s-.72,1.74-1.22,2c-.74.36-1.14,1.52,1.35,1.25,2.1,0,1-3.46,2.06-3.59,1.42-.17-.31,3.62,2.95,3.61C151.56,104.72,152.45,104.81,152.72,104.43Z"/><path class="cls-5" d="M143.93,77.41a2.13,2.13,0,0,1,.76.67c.25.32.45.7.6.9,2.27,3.74-1.71,3.08-.73,4.6.61,1.15,2.73-1.25,3.92,1.29.86,1.45.87,2.19.67,2.43s-.67,0-1-.42c-1-1.07-3.61-.38-4.47-2.48a2.9,2.9,0,0,1-.3-1.27,1.46,1.46,0,0,1-.66.89c-1.55,1-3.47-1.38-4.59-1.23-.81.14-1.88-.52.3-1.77.82-.62,1.64-.14,2.23.52s1.1,1.41,1.56,1.17c.63-.33,0-1.06-.36-1.91a1.88,1.88,0,0,1,.61-2.75C142.81,77.87,143.47,77.27,143.93,77.41Z"/><path class="cls-5" d="M126.27,89.94a.7.7,0,0,0,.15.55l.29.51c1.21,2,3.15-.7,3.67.28.31.76-2.59,1.53-1.91,2.87.31.84.6,1.12.89,1.09a.79.79,0,0,0,.57-.69c.09-.87,2.36-2.26,1.55-3.63-.17-.31-.29-.37-.75-.56a2.08,2.08,0,0,0,1.06-.25c1.7-.77.78-3,1.4-4,.48-.66.2-1.75-1.68-.11-.87.61-.69,1.27-.51,1.92s.49,1.21.06,1.49c-.6.39-.81-.21-1.22-.69s-1.11-.77-2.42.18C127.13,89.13,126.38,89.61,126.27,89.94Z"/><path class="cls-6" d="M141.88,104.27a1.56,1.56,0,0,0,.84-.46c.73-.83,1.46-1.72,2.18-2.66s1.29-1.9,1.93-2.93a41.33,41.33,0,0,0,3.24-6.68,2,2,0,0,0,.06-1.2,2.59,2.59,0,0,0-.78-.94c-1.08-.69-2.13-1.35-3.2-1.94s-2.23-1.09-3.32-1.56c-.55-.24-1.07-.47-1.63-.68l-1.69-.55c-1.11-.34-2.19-.66-3.27-.9a1.69,1.69,0,0,0-1,.14,1.66,1.66,0,0,0-.45.82c-.21,1.09-.49,2.16-.77,3.17-.15.51-.3,1-.45,1.49s-.38,1-.57,1.47c-.4,1-.82,1.87-1.25,2.73s-1,1.74-1.54,2.54a1.13,1.13,0,0,0-.17.72,1.48,1.48,0,0,0,.59.48A28.93,28.93,0,0,1,136,100c.85.55,1.76,1.14,2.6,1.79s1.61,1.36,2.43,2.11A1.78,1.78,0,0,0,141.88,104.27Z"/><path class="cls-5" d="M141.52,99.84a.66.66,0,0,1-.46-.1c-.63-.48-1.26-.93-1.89-1.36a1.81,1.81,0,0,1-.65-2,1.92,1.92,0,0,1-2.09.37c-.67-.35-1.32-.67-2-1a.55.55,0,0,1-.28-.3.51.51,0,0,1,0-.4c.36-.63.72-1.28,1.06-2a1.93,1.93,0,0,1,1.92-.94,1.83,1.83,0,0,1-.66-2c.26-.72.52-1.47.76-2.24a.72.72,0,0,1,.32-.35.67.67,0,0,1,.46,0c.74.26,1.5.55,2.26.86a1.93,1.93,0,0,1,1.09,2,1.61,1.61,0,0,1,2-.59c.74.39,1.49.82,2.24,1.26a.89.89,0,0,1,.33.45.85.85,0,0,1,0,.54c-.36.81-.73,1.6-1.11,2.36a1.64,1.64,0,0,1-2,.72,2,2,0,0,1,.36,2.29c-.45.7-.91,1.38-1.37,2A.67.67,0,0,1,141.52,99.84Z"/><path class="cls-7" d="M141.13,97.41c-.35.07-.83-.32-1-1a1.91,1.91,0,0,1,0-1.05l.09-.22a1.66,1.66,0,0,0,0-1.06.48.48,0,0,0-.64-.33,1.49,1.49,0,0,0-.85.55l-.13.19a2,2,0,0,1-.87.57c-.65.2-1.2,0-1.32-.3s.22-.78.86-1a1.87,1.87,0,0,1,1,0l.23.06a1.52,1.52,0,0,0,1-.06.45.45,0,0,0,.3-.63,1.61,1.61,0,0,0-.6-.86l-.2-.13a2,2,0,0,1-.62-.83c-.23-.65-.15-1.22.19-1.37s.92.14,1.16.81a2.09,2.09,0,0,1,.07,1.09l-.06.23a1.58,1.58,0,0,0,.1,1,.48.48,0,0,0,.65.32,1.33,1.33,0,0,0,.83-.57l.14-.2a1.76,1.76,0,0,1,.82-.63,1.05,1.05,0,0,1,1.37.4c.15.37-.2.93-.85,1.12a1.69,1.69,0,0,1-1,0l-.24-.08a1.47,1.47,0,0,0-1,0,.47.47,0,0,0-.3.64,1.5,1.5,0,0,0,.51.91l.18.16a2,2,0,0,1,.55.92C141.72,96.78,141.48,97.34,141.13,97.41Z"/></g><path d="M115.56,93.81l-12.41,13.87L90.74,93.81v25.44H88.9V90.73h1.58L103.15,105l12.68-14.3h1.58v28.52h-1.85Z"/><path d="M125.29,112a14.95,14.95,0,1,1-.13-14.26l-1.59,1a13.06,13.06,0,1,0-11.44,19.41,13.34,13.34,0,0,0,11.66-7Z"/><path class="cls-6" d="M105,0A105,105,0,1,0,210,105,105,105,0,0,0,105,0Zm0,197.54A92.54,92.54,0,1,1,197.54,105,92.54,92.54,0,0,1,105,197.54Z"/><circle class="cls-1" cx="105" cy="105" r="25.65"/><path d="M115.56,93.81l-12.41,13.87L90.74,93.81v25.44H88.9V90.73h1.58L103.15,105l12.68-14.3h1.58v28.52h-1.85Z"/><path d="M125.29,112a14.95,14.95,0,1,1-.13-14.26l-1.59,1a13.06,13.06,0,1,0-11.44,19.41,13.34,13.34,0,0,0,11.66-7Z"/></svg>