<?xml version="1.0" encoding="utf-8"?>
<!-- Generator: Adobe Illustrator 25.2.0, SVG Export Plug-In . SVG Version: 6.00 Build 0)  -->
<svg version="1.1" id="Layer_1" xmlns="http://www.w3.org/2000/svg" xmlns:xlink="http://www.w3.org/1999/xlink" x="0px" y="0px"
	 viewBox="0 0 210 210" style="enable-background:new 0 0 210 210;" xml:space="preserve">
<style type="text/css">
	.st0{fill:#FFFFFF;}
	.st1{fill:#A7A9AC;stroke:#A7A9AC;stroke-width:1.3056;stroke-miterlimit:10;}
	.st2{fill:#939598;}
	.st3{opacity:0.58;}
	.st4{fill:#414042;}
	.st5{fill:#231F20;}
	.st6{fill:#58595B;}
	.st7{fill:none;}
	.st8{font-family:'Arbotek-Light';}
	.st9{font-size:44px;}
	.st10{letter-spacing:-25;}
</style>
<g>
	<g>
		<circle class="st0" cx="105" cy="105.01" r="25.65"/>
	</g>
	<polygon class="st1" points="105,16.74 105,106.19 130.14,20.37 105,106.19 153.24,30.94 105,106.2 172.43,47.62 105,106.2 
		186.16,69.04 105.01,106.2 193.31,93.47 105.01,106.2 193.31,118.93 105.01,106.2 186.16,143.36 105,106.2 172.43,164.78 
		105,106.2 153.24,181.45 105,106.2 130.14,192.03 105,106.2 105,195.65 105,106.2 79.87,192.03 105,106.2 56.77,181.45 105,106.2 
		37.57,164.78 105,106.2 23.84,143.36 105,106.2 16.69,118.93 105,106.2 16.69,93.47 105,106.2 23.84,69.04 105,106.2 37.57,47.62 
		105,106.2 56.77,30.94 105,106.19 79.87,20.37 105,106.19 	"/>
	<path class="st2" d="M105,12.05c-51.34,0-92.95,41.62-92.95,92.95c0,51.34,41.62,92.95,92.95,92.95
		c51.34,0,92.95-41.62,92.95-92.95C197.95,53.67,156.34,12.05,105,12.05z M105,193.31c-48.77,0-88.3-39.53-88.3-88.3
		c0-48.77,39.53-88.3,88.3-88.3c48.77,0,88.3,39.53,88.3,88.3C193.31,153.77,153.77,193.31,105,193.31z"/>
	<g class="st3">
		<circle class="st0" cx="105" cy="105.01" r="36.93"/>
		<g>
			<g>
				<g>
					<g>
						<g>
							<path class="st4" d="M126.28,120.06c-0.05-0.17,0.03-0.36,0.15-0.55c0.11-0.19,0.22-0.39,0.28-0.51
								c1.22-2.02,3.15,0.7,3.68-0.27c0.31-0.76-2.59-1.53-1.91-2.87c0.31-0.84,0.6-1.12,0.88-1.09c0.28,0.03,0.53,0.37,0.57,0.7
								c0.1,0.87,2.36,2.25,1.55,3.62c-0.16,0.31-0.28,0.37-0.75,0.56c0.55,0.02,0.68,0.05,1.06,0.24c1.71,0.77,0.78,3.04,1.41,4
								c0.48,0.66,0.2,1.76-1.69,0.11c-0.87-0.61-0.68-1.27-0.51-1.92c0.19-0.64,0.49-1.21,0.06-1.49
								c-0.59-0.38-0.81,0.21-1.22,0.69c-0.4,0.49-1.11,0.77-2.42-0.18C127.14,120.87,126.39,120.39,126.28,120.06z"/>
						</g>
						<g>
							<path class="st4" d="M143.94,132.59c0.23-0.07,0.51-0.36,0.76-0.67c0.24-0.32,0.45-0.69,0.59-0.9
								c2.28-3.74-1.7-3.08-0.72-4.6c0.61-1.15,2.72,1.25,3.92-1.29c0.85-1.45,0.87-2.19,0.66-2.42c-0.21-0.23-0.67,0.01-0.98,0.42
								c-0.99,1.07-3.61,0.38-4.47,2.48c-0.2,0.48-0.27,0.61-0.3,1.27c-0.22-0.56-0.31-0.65-0.67-0.89
								c-1.55-1.04-3.47,1.38-4.58,1.22c-0.81-0.14-1.88,0.52,0.3,1.77c0.82,0.62,1.64,0.14,2.23-0.53c0.6-0.66,1.1-1.4,1.56-1.16
								c0.63,0.33,0.04,1.05-0.36,1.9c-0.38,0.86-0.73,1.77,0.61,2.75C142.82,132.13,143.48,132.73,143.94,132.59z"/>
						</g>
						<g>
							<path class="st4" d="M152.72,105.57c0.27,0.39,0.14,1.57,0.15,2.07c-0.1,2.19-0.93,2.55-1.71,2.6
								c-0.77,0.05-1.49-0.19-1.59,0.69c-0.15,1.29,2.94,0.59,2.47,3.36c-0.52,3.32-1.46,2.45-1.49,1.42
								c-0.09-1.43-2.65-2.42-2.16-4.63c0.1-0.51,0.16-0.65,0.55-1.2c-0.53,0.32-0.66,0.34-1.09,0.33
								c-0.95-0.03-1.35-0.82-1.79-1.67c-0.41-0.85-0.72-1.74-1.23-2.01c-0.74-0.37-1.13-1.52,1.35-1.26
								c2.1-0.03,1.05,3.46,2.07,3.59c1.41,0.17-0.32-3.63,2.95-3.61C151.56,105.28,152.45,105.18,152.72,105.57z"/>
						</g>
						<g>
							<path class="st4" d="M131.07,105.31c-0.3,0.21-0.26,0.85-0.3,1.12c-0.03,0.59,0.15,0.96,0.43,1.21
								c0.27,0.25,0.62,0.37,0.99,0.45c0.74,0.17,1.5,0.15,1.38,0.71c-0.17,0.81-2.99-0.28-3.17,1.22
								c-0.65,1.68,0.44,1.65,0.89,1.16c0.67-0.62,3.29-0.43,3.38-2.02c0.03-0.35,0.01-0.46-0.23-0.89c0.44,0.3,0.56,0.35,0.97,0.42
								c0.9,0.18,1.6-0.3,2.06-0.9c0.49-0.6,0.88-1.31,1.4-1.51c0.77-0.26,1.28-1.3-1.23-1.09c-2.1-0.03-1.35,2.55-2.37,2.5
								c-1.42-0.04,0.63-2.54-2.63-2.56C132.26,105.17,131.37,105.11,131.07,105.31z"/>
						</g>
						<g>
							<path class="st5" d="M135.29,126.09c0.23,0.16,0.69,0.17,0.96,0.14c1.08-0.25,2.16-0.56,3.28-0.9l1.69-0.55
								c0.55-0.2,1.08-0.44,1.63-0.67c1.09-0.47,2.2-1,3.32-1.57c1.07-0.59,2.12-1.25,3.2-1.95c0.25-0.19,0.65-0.58,0.78-0.93
								c0.14-0.35,0.04-0.9-0.06-1.2c-0.98-2.41-1.93-4.61-3.25-6.68c-0.63-1.03-1.24-2-1.93-2.94c-0.72-0.94-1.45-1.82-2.18-2.66
								c-0.19-0.18-0.55-0.45-0.83-0.45c-0.28,0-0.67,0.24-0.88,0.4c-0.81,0.75-1.62,1.46-2.42,2.11c-0.83,0.65-1.75,1.24-2.6,1.79
								c-1.66,1.11-3.59,1.95-5.32,2.64c-0.19,0.1-0.5,0.29-0.58,0.48c-0.07,0.19,0.07,0.53,0.17,0.73
								c0.52,0.79,1.06,1.65,1.54,2.53c0.43,0.86,0.85,1.78,1.25,2.74c0.19,0.48,0.4,0.98,0.57,1.47c0.15,0.48,0.3,0.98,0.45,1.49
								c0.28,1.01,0.56,2.08,0.78,3.16C134.9,125.51,135.05,125.93,135.29,126.09z"/>
						</g>
						<g>
							<path class="st4" d="M137.61,122.31c-0.15-0.08-0.26-0.2-0.32-0.35c-0.24-0.77-0.5-1.51-0.77-2.23
								c-0.27-0.72,0.1-1.42,0.66-1.95c-0.8,0.08-1.57-0.27-1.91-0.93c-0.35-0.68-0.7-1.33-1.06-1.95c-0.06-0.13-0.07-0.27-0.02-0.4
								c0.05-0.13,0.15-0.24,0.28-0.31c0.65-0.3,1.3-0.62,1.97-0.96c0.66-0.34,1.48-0.17,2.09,0.37c-0.21-0.77,0.06-1.52,0.65-1.96
								c0.62-0.43,1.25-0.89,1.89-1.37c0.13-0.08,0.29-0.12,0.46-0.1c0.16,0.02,0.31,0.1,0.41,0.22c0.46,0.65,0.92,1.33,1.37,2.04
								c0.47,0.7,0.19,1.61-0.36,2.29c0.8-0.22,1.63-0.02,2,0.72c0.38,0.76,0.75,1.54,1.11,2.35c0.05,0.17,0.04,0.36-0.03,0.55
								c-0.07,0.19-0.19,0.34-0.33,0.45c-0.75,0.45-1.5,0.87-2.24,1.27c-0.73,0.39-1.51,0.07-2.04-0.59
								c0.11,0.9-0.34,1.74-1.09,2.05c-0.76,0.31-1.52,0.6-2.26,0.86C137.92,122.4,137.76,122.38,137.61,122.31z"/>
						</g>
						<g>
							<path class="st6" d="M138.68,120.09c-0.34-0.15-0.41-0.73-0.19-1.37c0.14-0.37,0.41-0.67,0.62-0.83l0.2-0.13
								c0.29-0.2,0.44-0.43,0.6-0.86c0.11-0.3-0.01-0.53-0.3-0.63c-0.43-0.14-0.69-0.15-1.03-0.06l-0.23,0.07
								c-0.26,0.07-0.66,0.09-1.04-0.04c-0.64-0.22-0.98-0.71-0.86-1.01c0.13-0.3,0.67-0.5,1.32-0.3c0.38,0.11,0.69,0.36,0.87,0.57
								l0.14,0.19c0.2,0.27,0.42,0.41,0.85,0.55c0.29,0.08,0.55-0.02,0.64-0.33c0.12-0.45,0.12-0.72,0-1.05l-0.09-0.23
								c-0.09-0.26-0.14-0.66-0.04-1.04c0.17-0.66,0.66-1.06,1.01-0.99c0.35,0.07,0.59,0.64,0.41,1.33c-0.1,0.4-0.35,0.74-0.55,0.92
								l-0.19,0.16c-0.27,0.23-0.39,0.46-0.51,0.91c-0.1,0.3,0.02,0.53,0.3,0.64c0.43,0.14,0.69,0.15,1.03,0.04l0.23-0.08
								c0.26-0.09,0.65-0.14,1.03-0.03c0.65,0.19,1.01,0.75,0.86,1.12c-0.14,0.38-0.74,0.62-1.38,0.4
								c-0.37-0.13-0.66-0.41-0.82-0.63l-0.13-0.2c-0.2-0.29-0.41-0.43-0.84-0.57c-0.29-0.08-0.54,0.02-0.65,0.33
								c-0.16,0.43-0.19,0.7-0.1,1.05l0.06,0.24c0.06,0.27,0.07,0.69-0.07,1.08C139.6,119.95,138.98,120.23,138.68,120.09z"/>
						</g>
					</g>
				</g>
				<g>
					<g>
						<g>
							<path class="st4" d="M113.36,129.7c0.1-0.35,0.72-0.49,0.96-0.61c0.56-0.19,0.96-0.14,1.27,0.01
								c0.31,0.16,0.55,0.47,0.74,0.8c0.39,0.65,0.61,1.38,1.11,1.1c0.71-0.41-1.17-2.71,0.17-3.39c1.4-1.14,1.72-0.07,1.38,0.48
								c-0.42,0.77,0.65,3.33-0.87,3.85c-0.33,0.13-0.44,0.14-0.93,0.04c0.43,0.33,0.51,0.42,0.7,0.8c0.46,0.82,0.2,1.57-0.2,2.27
								c-0.42,0.64-0.98,1.22-1,1.78c0,0.81-0.85,1.6-1.42-0.85c-0.68-1.99,2.01-2.02,1.64-3c-0.47-1.31-2.23,1.34-3.25-1.75
								C113.59,130.87,113.26,130.05,113.36,129.7z"/>
						</g>
						<g>
							<path class="st4" d="M120.3,150.21c0.45,0.14,1.55-0.33,2.02-0.48c1.03-0.37,1.57-0.8,1.81-1.25
								c0.25-0.43,0.22-0.84,0.12-1.22c-0.19-0.75-0.65-1.36,0.17-1.72c1.18-0.55,1.5,2.66,3.96,1.31c2.99-1.53,1.89-2.12,0.89-1.86
								c-1.41,0.3-3.08-1.69-5.06-0.61c-0.46,0.25-0.57,0.34-0.98,0.88c0.14-0.6,0.12-0.73-0.03-1.12
								c-0.32-0.88-1.22-1.07-2.13-1.15c-0.94-0.14-1.89-0.17-2.31-0.56c-0.58-0.59-1.81-0.62-0.78,1.66c0.62,2,3.64-0.02,4.07,0.88
								c0.61,1.32-3.57,0.79-2.54,3.89C119.67,149.19,119.85,150.07,120.3,150.21z"/>
						</g>
						<g>
							<path class="st4" d="M143.26,133.5c0,0.48-0.77,1.38-1.05,1.8c-2.88,3.28-3.47-0.69-4.63,0.69
								c-0.87,0.97,2.09,2.26,0.01,4.14c-2.33,2.42-2.56,1.18-2.02,0.3c0.35-0.62,0.17-1.51,0.12-2.42
								c-0.07-0.92,0.06-1.77,0.86-2.58c0.37-0.36,0.49-0.45,1.12-0.68c-0.61-0.05-0.73-0.1-1.06-0.36
								c-1.48-1.17,0.33-3.65-0.25-4.74c-0.39-0.74-0.06-1.93,1.8-0.25c0.86,0.6,0.58,1.48,0.18,2.29c-0.37,0.83-1,1.47-0.62,1.84
								c0.49,0.48,1.07-0.24,1.69-0.93c0.64-0.67,1.48-1.23,2.8-0.27C142.48,132.58,143.26,133.03,143.26,133.5z"/>
						</g>
						<g>
							<path class="st4" d="M125.9,120.56c-0.36,0-0.67,0.55-0.85,0.76c-1.58,1.76,1.62,2.77,0.83,3.55
								c-0.59,0.57-2.2-1.93-3.31-0.91c-1.48,1.03-0.56,1.66,0.05,1.49c0.44-0.09,1.15,0.31,1.91,0.58
								c0.73,0.25,1.58,0.44,2.03-0.22c0.22-0.28,0.26-0.38,0.31-0.89c0.19,0.51,0.25,0.62,0.55,0.93c1.25,1.38,3.22-0.12,4.24,0.11
								c0.77,0.24,1.76-0.33-0.39-1.63c-0.84-0.63-1.47-0.3-1.98,0.11c-0.49,0.43-1.01,0.83-1.4,0.52c-0.57-0.46,0-0.79,0.28-1.38
								c0.29-0.58,0.4-1.28-0.92-2.25C126.94,121.13,126.26,120.56,125.9,120.56z"/>
						</g>
						<g>
							<path class="st5" d="M117.1,139.86c0.09,0.27,0.46,0.53,0.69,0.66c4.14,1.88,8.82,2.89,13.95,3.18
								c0.31-0.02,0.85-0.11,1.15-0.33c0.3-0.22,0.55-0.72,0.66-1.01l0.48-1.82c0.14-0.6,0.24-1.24,0.35-1.85
								c0.21-1.23,0.37-2.43,0.5-3.59c0.09-1.2,0.12-2.4,0.12-3.55l-0.02-1.7c-0.03-0.57-0.09-1.15-0.15-1.71
								c-0.05-0.27-0.2-0.7-0.42-0.87c-0.23-0.17-0.67-0.19-0.93-0.18c-0.54,0.07-1.06,0.14-1.6,0.19
								c-0.55,0.03-1.09,0.05-1.63,0.07c-1.07,0.02-2.09,0.02-3.11-0.03c-1.05-0.1-2.06-0.22-3.03-0.38
								c-0.49-0.08-0.95-0.15-1.44-0.27c-0.49-0.12-0.97-0.25-1.43-0.38c-0.22-0.04-0.59-0.08-0.76,0.05
								c-0.17,0.12-0.24,0.49-0.27,0.72c-0.18,3.79-1.09,7.97-3,11.86C117.13,139.15,117.01,139.59,117.1,139.86z"/>
						</g>
						<g>
							<path class="st4" d="M121.2,138.15c-0.07-0.15-0.09-0.31-0.05-0.46c0.26-0.75,0.52-1.44,0.71-2.22
								c0.19-0.76,0.86-1.18,1.66-1.22c-0.7-0.42-1.12-1.15-1-1.87l0.18-1.08l0.1-1.12c0.02-0.14,0.09-0.27,0.21-0.36
								c0.11-0.09,0.25-0.12,0.4-0.1c0.72,0.16,1.45,0.31,2.21,0.44c0.72,0.1,1.28,0.72,1.48,1.53c0.28-0.76,0.87-1.29,1.64-1.25
								c0.77,0.03,1.6,0.09,2.36,0.04c0.15,0.01,0.3,0.07,0.42,0.19c0.12,0.12,0.19,0.27,0.2,0.43c0.03,0.84-0.06,1.59-0.12,2.42
								c-0.07,0.8-0.77,1.45-1.6,1.69c0.77,0.28,1.32,0.93,1.2,1.76c-0.16,0.81-0.33,1.64-0.53,2.49c-0.06,0.17-0.17,0.32-0.33,0.44
								c-0.16,0.12-0.34,0.18-0.52,0.19l-1.27-0.1l-1.28-0.19c-0.83-0.14-1.28-0.86-1.31-1.68c-0.47,0.73-1.29,1.21-2.07,1.05
								c-0.78-0.16-1.6-0.44-2.36-0.67C121.4,138.41,121.28,138.29,121.2,138.15z"/>
						</g>
						<g>
							<path class="st6" d="M123.37,137c-0.17-0.31,0.06-0.89,0.64-1.24c0.34-0.21,0.74-0.27,1.02-0.26l0.24,0.02
								c0.37,0.03,0.6-0.1,0.97-0.37c0.26-0.19,0.29-0.46,0.12-0.71c-0.26-0.36-0.47-0.53-0.79-0.64l-0.22-0.07
								c-0.25-0.1-0.58-0.31-0.8-0.63c-0.39-0.56-0.39-1.16-0.13-1.36c0.26-0.19,0.83-0.02,1.24,0.52c0.24,0.31,0.34,0.7,0.36,0.96
								l0,0.24c0.01,0.35,0.11,0.59,0.37,0.95c0.19,0.24,0.45,0.29,0.7,0.09c0.37-0.28,0.54-0.48,0.65-0.81l0.07-0.23
								c0.09-0.25,0.29-0.59,0.58-0.87c0.5-0.46,1.12-0.51,1.36-0.25c0.24,0.26,0.11,0.88-0.41,1.36c-0.3,0.29-0.7,0.4-0.99,0.42
								l-0.25,0.01c-0.36,0.02-0.61,0.12-0.98,0.4c-0.26,0.19-0.29,0.46-0.12,0.71c0.26,0.36,0.47,0.53,0.81,0.63l0.23,0.06
								c0.26,0.08,0.62,0.28,0.86,0.59c0.41,0.54,0.36,1.18,0.04,1.42c-0.32,0.24-0.94,0.1-1.33-0.46c-0.22-0.32-0.3-0.73-0.3-1
								l0.01-0.25c0.01-0.36-0.09-0.6-0.35-0.97c-0.19-0.24-0.45-0.29-0.7-0.09c-0.37,0.27-0.53,0.5-0.68,0.81l-0.09,0.22
								c-0.12,0.24-0.37,0.58-0.72,0.79C124.17,137.37,123.55,137.31,123.37,137z"/>
						</g>
					</g>
				</g>
				<g>
					<g>
						<g>
							<path class="st4" d="M97.24,129.93c0.29-0.23,0.88-0.01,1.15,0.03c2.28,0.59,0.3,3.27,1.4,3.39
								c0.82,0.08,0.65-2.93,2.13-2.67c1.81-0.06,1.44,0.92,0.84,1.22c-0.41,0.23-0.76,0.98-1.2,1.6c-0.44,0.64-1,1.19-1.76,1
								c-0.35-0.08-0.44-0.13-0.78-0.48c0.15,0.51,0.16,0.63,0.1,1.05c-0.21,1.94-2.63,1.66-3.35,2.55
								c-0.48,0.67-1.63,0.81-0.65-1.51c0.61-1.96,2.83-0.52,3.1-1.5c0.18-0.68-0.45-0.72-1.03-0.98c-0.58-0.25-1.1-0.73-0.59-2.31
								C96.74,130.99,96.96,130.13,97.24,129.93z"/>
						</g>
						<g>
							<path class="st4" d="M90.8,150.6c0.28,0.38,1.45,0.61,1.93,0.76c2.13,0.54,2.72-0.1,3.01-0.82c0.28-0.72,0.28-1.48,1.15-1.31
								c1.28,0.24-0.34,2.98,2.44,3.36c0.82,0.2,1.41,0.18,1.81,0.14c0.4-0.05,0.61-0.16,0.69-0.29c0.16-0.27-0.22-0.63-0.7-0.81
								c-0.65-0.25-1.03-1.07-1.52-1.87c-0.49-0.78-1.08-1.5-2.22-1.61c-0.52-0.06-0.67-0.04-1.32,0.16
								c0.47-0.41,0.53-0.53,0.64-0.94c0.49-1.72-2.38-2.9-2.58-4.01c-0.13-0.8-1.1-1.55-1.61,0.89c-0.69,2.03,2.98,2.04,2.79,3.06
								c-0.27,1.39-3.38-1.36-4.35,1.7C90.89,149.39,90.53,150.2,90.8,150.6z"/>
						</g>
						<g>
							<path class="st4" d="M119.22,150.6c-0.28,0.38-1.46,0.61-1.93,0.76c-2.13,0.55-2.72-0.1-3.01-0.82
								c-0.28-0.72-0.28-1.48-1.15-1.31c-1.28,0.24,0.34,2.98-2.44,3.36c-0.82,0.2-1.41,0.18-1.81,0.14
								c-0.4-0.05-0.61-0.16-0.69-0.29c-0.16-0.27,0.22-0.63,0.7-0.81c0.33-0.13,0.59-0.4,0.82-0.73c0.24-0.35,0.45-0.75,0.7-1.14
								c0.49-0.78,1.08-1.5,2.22-1.61c0.52-0.06,0.67-0.04,1.32,0.16c-0.46-0.41-0.53-0.53-0.64-0.93c-0.49-1.72,2.38-2.9,2.58-4.01
								c0.13-0.8,1.1-1.55,1.61,0.89c0.69,2.03-2.98,2.04-2.79,3.06c0.27,1.38,3.38-1.36,4.35,1.69
								C119.13,149.38,119.5,150.19,119.22,150.6z"/>
						</g>
						<g>
							<path class="st4" d="M112.78,129.92c-0.29-0.22-0.88,0-1.15,0.04c-2.28,0.59-0.29,3.27-1.4,3.4
								c-0.82,0.08-0.65-2.93-2.14-2.67c-1.81-0.06-1.44,0.92-0.83,1.23c0.2,0.11,0.39,0.35,0.59,0.66c0.19,0.29,0.4,0.62,0.61,0.94
								c0.44,0.64,1,1.19,1.77,1c0.34-0.08,0.44-0.12,0.78-0.48c-0.15,0.51-0.16,0.63-0.1,1.05c0.22,1.93,2.63,1.65,3.35,2.55
								c0.49,0.68,1.63,0.81,0.65-1.52c-0.61-1.96-2.84-0.52-3.11-1.5c-0.18-0.68,0.45-0.72,1.03-0.98c0.58-0.25,1.1-0.73,0.58-2.31
								C113.28,130.99,113.06,130.12,112.78,129.92z"/>
						</g>
						<g>
							<path class="st5" d="M94.3,140.34c-0.08,0.27,0.06,0.69,0.18,0.93c0.57,0.95,1.2,1.9,1.87,2.87c0.67,1,1.42,1.82,2.2,2.74
								c0.79,0.88,1.62,1.86,2.52,2.66c0.89,0.82,1.84,1.65,2.83,2.47c0.26,0.18,0.75,0.45,1.12,0.46c0.37-0.01,0.86-0.29,1.12-0.46
								c0.99-0.82,1.94-1.64,2.83-2.47c0.89-0.8,1.73-1.78,2.52-2.66c0.78-0.93,1.53-1.74,2.2-2.75c0.67-0.97,1.29-1.93,1.87-2.87
								c0.12-0.24,0.26-0.66,0.17-0.93c-0.08-0.27-0.43-0.57-0.65-0.72c-0.97-0.55-1.89-1.11-2.76-1.68
								c-0.86-0.54-1.72-1.28-2.5-1.91c-0.79-0.68-1.52-1.28-2.22-2.04c-0.7-0.74-1.34-1.49-1.94-2.22
								c-0.16-0.16-0.44-0.39-0.64-0.37c-0.21-0.01-0.49,0.22-0.64,0.37c-0.6,0.74-1.24,1.48-1.94,2.22
								c-0.7,0.77-1.43,1.36-2.22,2.04c-0.78,0.64-1.63,1.37-2.5,1.91c-0.87,0.57-1.79,1.13-2.76,1.68
								C94.74,139.78,94.38,140.07,94.3,140.34z"/>
						</g>
						<g>
							<path class="st4" d="M98.63,141.34c0.03-0.17,0.11-0.31,0.24-0.41c0.65-0.46,1.28-0.92,1.88-1.39
								c0.59-0.43,1.39-0.42,2.06-0.01c-0.32-0.74-0.23-1.58,0.3-2.11c0.54-0.53,1.04-1.06,1.53-1.59c0.1-0.09,0.24-0.14,0.38-0.14
								c0.14-0.01,0.27,0.04,0.38,0.14c0.48,0.53,0.99,1.06,1.53,1.59c0.52,0.53,0.62,1.37,0.3,2.11c0.68-0.41,1.47-0.42,2.06,0
								c0.6,0.47,1.23,0.93,1.88,1.39c0.12,0.1,0.21,0.24,0.23,0.41c0.03,0.16,0,0.32-0.09,0.46c-0.48,0.63-0.99,1.27-1.52,1.91
								c-0.52,0.66-1.47,0.72-2.29,0.37c0.46,0.7,0.52,1.54-0.07,2.13c-0.6,0.59-1.23,1.18-1.89,1.76
								c-0.14,0.11-0.33,0.17-0.53,0.18c-0.2-0.01-0.38-0.08-0.52-0.18c-0.66-0.59-1.29-1.17-1.89-1.76
								c-0.59-0.58-0.53-1.43-0.07-2.13c-0.81,0.34-1.76,0.29-2.29-0.37c-0.53-0.64-1.04-1.28-1.52-1.91
								C98.63,141.66,98.6,141.5,98.63,141.34z"/>
						</g>
						<g>
							<path class="st6" d="M101.06,141.71c0.04-0.34,0.57-0.68,1.25-0.65c0.4,0.02,0.76,0.19,0.98,0.35l0.19,0.15
								c0.28,0.21,0.54,0.29,1,0.32c0.32,0.02,0.5-0.17,0.51-0.47c0-0.45-0.07-0.7-0.26-1l-0.14-0.2c-0.14-0.23-0.29-0.61-0.28-1
								c0.02-0.68,0.37-1.14,0.7-1.12c0.32-0.02,0.68,0.45,0.7,1.12c0.01,0.39-0.13,0.77-0.28,1l-0.14,0.2
								c-0.2,0.3-0.26,0.55-0.26,1c0.01,0.3,0.19,0.49,0.51,0.47c0.46-0.02,0.72-0.1,1-0.32l0.19-0.15
								c0.22-0.16,0.59-0.33,0.98-0.35c0.68-0.03,1.21,0.31,1.25,0.65c0.04,0.37-0.42,0.77-1.14,0.8c-0.41,0.02-0.81-0.11-1.05-0.25
								l-0.21-0.13c-0.31-0.18-0.56-0.24-1.03-0.21c-0.32,0.01-0.5,0.22-0.51,0.52c0,0.45,0.07,0.7,0.28,0.97l0.15,0.18
								c0.16,0.22,0.34,0.58,0.35,0.97c0.02,0.68-0.4,1.18-0.8,1.2c-0.4-0.02-0.82-0.52-0.8-1.2c0.01-0.39,0.18-0.75,0.35-0.97
								l0.15-0.18c0.22-0.27,0.28-0.52,0.28-0.97c-0.01-0.3-0.19-0.51-0.51-0.52c-0.46-0.02-0.72,0.03-1.03,0.21l-0.2,0.13
								c-0.24,0.14-0.64,0.27-1.05,0.25C101.49,142.48,101.02,142.08,101.06,141.71z"/>
						</g>
					</g>
				</g>
				<g>
					<g>
						<g>
							<path class="st4" d="M84.11,120.57c0.36-0.01,0.67,0.55,0.85,0.76c1.58,1.76-1.62,2.77-0.83,3.55
								c0.59,0.57,2.2-1.93,3.31-0.91c1.48,1.03,0.56,1.66-0.05,1.49c-0.44-0.09-1.15,0.31-1.91,0.58
								c-0.38,0.13-0.76,0.24-1.12,0.23c-0.37,0-0.69-0.12-0.91-0.45c-0.22-0.28-0.26-0.38-0.31-0.89
								c-0.19,0.51-0.25,0.62-0.55,0.92c-1.24,1.38-3.22-0.11-4.24,0.11c-0.77,0.24-1.76-0.33,0.39-1.63
								c0.84-0.63,1.46-0.3,1.98,0.11c0.49,0.43,1.01,0.83,1.4,0.52c0.57-0.46,0-0.8-0.28-1.38c-0.29-0.58-0.4-1.28,0.92-2.25
								C83.07,121.14,83.75,120.58,84.11,120.57z"/>
						</g>
						<g>
							<path class="st4" d="M66.76,133.52c0,0.48,0.77,1.38,1.05,1.79c2.89,3.28,3.47-0.69,4.63,0.69c0.87,0.97-2.09,2.26,0,4.14
								c2.33,2.42,2.56,1.18,2.02,0.3c-0.35-0.62-0.17-1.51-0.12-2.42c0.03-0.45,0.02-0.91-0.1-1.34c-0.13-0.42-0.36-0.84-0.76-1.24
								c-0.37-0.36-0.49-0.45-1.12-0.68c0.61-0.05,0.73-0.1,1.05-0.37c1.48-1.17-0.33-3.65,0.25-4.74c0.39-0.74,0.06-1.93-1.8-0.25
								c-0.86,0.6-0.58,1.48-0.19,2.29c0.38,0.83,1,1.47,0.62,1.84c-0.49,0.48-1.06-0.24-1.69-0.93c-0.64-0.67-1.48-1.23-2.8-0.27
								C67.53,132.6,66.76,133.05,66.76,133.52z"/>
						</g>
						<g>
							<path class="st4" d="M89.73,150.22c-0.45,0.14-1.55-0.34-2.03-0.48c-1.03-0.37-1.57-0.8-1.81-1.25
								c-0.25-0.43-0.22-0.84-0.12-1.22c0.19-0.75,0.65-1.36-0.17-1.72c-1.18-0.55-1.49,2.66-3.96,1.31
								c-2.99-1.53-1.89-2.12-0.89-1.86c1.41,0.3,3.08-1.7,5.06-0.61c0.46,0.25,0.57,0.35,0.98,0.88c-0.14-0.6-0.12-0.73,0.02-1.13
								c0.32-0.88,1.22-1.07,2.13-1.15c0.94-0.14,1.89-0.17,2.31-0.57c0.58-0.59,1.81-0.62,0.79,1.66c-0.62,2-3.64-0.03-4.08,0.88
								c-0.61,1.31,3.57,0.79,2.54,3.89C90.36,149.2,90.18,150.08,89.73,150.22z"/>
						</g>
						<g>
							<path class="st4" d="M96.65,129.71c-0.1-0.35-0.72-0.5-0.97-0.61c-0.56-0.19-0.96-0.14-1.27,0.01
								c-0.31,0.16-0.55,0.47-0.74,0.8c-0.39,0.65-0.61,1.38-1.11,1.1c-0.71-0.41,1.17-2.71-0.17-3.39
								c-1.4-1.14-1.72-0.07-1.38,0.48c0.42,0.78-0.65,3.33,0.87,3.85c0.33,0.13,0.44,0.14,0.92,0.04c-0.43,0.33-0.51,0.42-0.71,0.8
								c-0.45,0.82-0.2,1.57,0.2,2.27c0.42,0.64,0.98,1.22,1.01,1.78c0,0.81,0.85,1.6,1.42-0.85c0.68-1.99-2.01-2.02-1.65-3
								c0.47-1.32,2.23,1.34,3.25-1.75C96.43,130.88,96.76,130.05,96.65,129.71z"/>
						</g>
						<g>
							<path class="st5" d="M75.61,127.28c-0.22,0.17-0.37,0.6-0.42,0.87c-0.06,0.56-0.12,1.14-0.15,1.71l-0.02,1.7
								c0.01,1.15,0.03,2.35,0.12,3.55c0.28,2.31,0.61,4.87,1.34,7.26c0.11,0.29,0.36,0.79,0.66,1.01c0.3,0.22,0.84,0.31,1.15,0.33
								c5.13-0.3,9.81-1.31,13.95-3.19c0.23-0.13,0.6-0.39,0.69-0.66c0.09-0.27-0.02-0.71-0.11-0.95
								c-1.91-3.89-2.83-8.07-3.01-11.86c-0.03-0.23-0.1-0.6-0.27-0.72c-0.16-0.12-0.53-0.09-0.76-0.05
								c-1.91,0.59-3.78,0.82-5.9,1.04c-1.02,0.06-2.04,0.06-3.11,0.04c-0.53-0.01-1.08-0.03-1.63-0.07
								c-0.54-0.04-1.06-0.12-1.6-0.19C76.28,127.09,75.83,127.11,75.61,127.28z"/>
						</g>
						<g>
							<path class="st4" d="M78.49,130.66c0.12-0.12,0.27-0.18,0.42-0.19c0.76,0.05,1.59-0.01,2.36-0.04
								c0.77-0.04,1.36,0.48,1.64,1.25c0.2-0.81,0.75-1.42,1.48-1.53c0.76-0.13,1.5-0.28,2.21-0.44c0.14-0.02,0.28,0.01,0.4,0.1
								c0.11,0.09,0.18,0.21,0.21,0.36l0.1,1.12l0.18,1.08c0.12,0.72-0.3,1.45-1,1.87c0.8,0.04,1.47,0.47,1.66,1.22
								c0.19,0.77,0.45,1.46,0.71,2.22c0.04,0.15,0.03,0.31-0.05,0.46c-0.07,0.15-0.19,0.26-0.34,0.32
								c-0.76,0.23-1.58,0.5-2.36,0.67c-0.78,0.16-1.6-0.32-2.07-1.05c-0.04,0.83-0.48,1.55-1.31,1.68l-1.28,0.19l-1.27,0.1
								c-0.17,0-0.35-0.07-0.52-0.19c-0.16-0.12-0.27-0.28-0.33-0.44c-0.2-0.84-0.38-1.67-0.53-2.49c-0.13-0.83,0.43-1.48,1.19-1.76
								c-0.83-0.24-1.52-0.89-1.6-1.69c-0.06-0.82-0.15-1.58-0.12-2.42C78.3,130.93,78.37,130.78,78.49,130.66z"/>
						</g>
						<g>
							<path class="st6" d="M80.26,132.36c0.24-0.26,0.85-0.21,1.36,0.25c0.28,0.28,0.49,0.62,0.58,0.87l0.07,0.23
								c0.11,0.33,0.28,0.54,0.65,0.82c0.26,0.2,0.52,0.14,0.7-0.09c0.26-0.36,0.36-0.61,0.37-0.95l0-0.24
								c0.02-0.27,0.12-0.65,0.36-0.96c0.41-0.54,0.98-0.72,1.24-0.52c0.26,0.19,0.26,0.8-0.13,1.36c-0.22,0.32-0.55,0.54-0.8,0.63
								l-0.22,0.07c-0.32,0.11-0.53,0.28-0.79,0.64c-0.17,0.25-0.14,0.52,0.12,0.71c0.37,0.27,0.6,0.39,0.97,0.37l0.25-0.02
								c0.28,0,0.68,0.06,1.02,0.26c0.58,0.35,0.81,0.93,0.64,1.24c-0.17,0.31-0.79,0.37-1.4,0c-0.35-0.21-0.6-0.55-0.72-0.79
								L84.43,136c-0.15-0.31-0.31-0.53-0.68-0.81c-0.25-0.2-0.52-0.14-0.7,0.09c-0.26,0.36-0.36,0.61-0.35,0.97l0.01,0.25
								c0,0.28-0.08,0.68-0.3,1.01c-0.39,0.56-1,0.7-1.33,0.46c-0.32-0.24-0.37-0.88,0.04-1.42c0.24-0.31,0.6-0.51,0.86-0.59
								l0.24-0.06c0.34-0.1,0.54-0.26,0.81-0.63c0.17-0.25,0.14-0.52-0.12-0.71c-0.37-0.28-0.62-0.38-0.98-0.4l-0.25-0.01
								c-0.28-0.02-0.69-0.13-0.99-0.42C80.15,133.24,80.02,132.62,80.26,132.36z"/>
						</g>
					</g>
				</g>
				<g>
					<g>
						<g>
							<path class="st4" d="M78.93,105.33c0.3,0.21,0.26,0.84,0.3,1.11c0.03,0.59-0.15,0.96-0.43,1.22
								c-0.26,0.25-0.62,0.37-0.99,0.46c-0.74,0.17-1.5,0.15-1.38,0.71c0.17,0.81,2.99-0.28,3.17,1.22
								c0.65,1.68-0.44,1.65-0.89,1.16c-0.67-0.62-3.29-0.43-3.38-2.02c-0.03-0.35-0.01-0.46,0.23-0.89
								c-0.44,0.3-0.56,0.35-0.97,0.42c-0.9,0.18-1.6-0.29-2.06-0.9c-0.49-0.6-0.88-1.31-1.4-1.51c-0.77-0.25-1.28-1.3,1.23-1.08
								c2.1-0.03,1.35,2.54,2.37,2.5c1.42-0.04-0.63-2.54,2.64-2.56C77.75,105.18,78.63,105.12,78.93,105.33z"/>
						</g>
						<g>
							<path class="st4" d="M57.28,105.59c-0.27,0.38-0.14,1.56-0.14,2.06c0.1,2.19,0.93,2.55,1.71,2.6
								c0.77,0.05,1.49-0.19,1.59,0.69c0.15,1.29-2.94,0.59-2.47,3.36c0.52,3.32,1.46,2.45,1.5,1.42c0.09-1.43,2.64-2.42,2.16-4.63
								c-0.1-0.51-0.16-0.65-0.55-1.21c0.53,0.32,0.66,0.34,1.08,0.32c0.95-0.03,1.35-0.82,1.79-1.67c0.41-0.85,0.72-1.74,1.23-2.02
								c0.74-0.37,1.13-1.52-1.35-1.25c-2.1-0.03-1.05,3.46-2.07,3.59c-1.41,0.17,0.32-3.63-2.95-3.61
								C58.44,105.3,57.55,105.21,57.28,105.59z"/>
						</g>
						<g>
							<path class="st4" d="M66.08,132.61c-0.23-0.07-0.51-0.36-0.76-0.67c-0.25-0.32-0.45-0.7-0.59-0.9
								c-2.28-3.74,1.71-3.08,0.72-4.6c-0.61-1.15-2.72,1.25-3.92-1.29c-0.85-1.45-0.87-2.19-0.66-2.42
								c0.21-0.23,0.67,0.01,0.98,0.42c0.99,1.06,3.61,0.38,4.47,2.48c0.2,0.48,0.27,0.61,0.3,1.27c0.23-0.56,0.31-0.66,0.66-0.89
								c1.55-1.03,3.47,1.38,4.59,1.22c0.82-0.14,1.88,0.52-0.3,1.78c-0.82,0.62-1.63,0.13-2.23-0.53c-0.6-0.66-1.1-1.4-1.56-1.16
								c-0.63,0.33-0.04,1.05,0.36,1.9c0.39,0.86,0.73,1.77-0.61,2.75C67.2,132.15,66.54,132.75,66.08,132.61z"/>
						</g>
						<g>
							<path class="st4" d="M83.73,120.07c0.05-0.17-0.03-0.37-0.15-0.55c-0.11-0.19-0.22-0.39-0.28-0.51
								c-1.22-2.02-3.15,0.71-3.68-0.27c-0.31-0.76,2.59-1.53,1.91-2.88c-0.31-0.84-0.6-1.12-0.88-1.09
								c-0.28,0.03-0.53,0.37-0.57,0.7c-0.1,0.86-2.36,2.26-1.55,3.63c0.16,0.31,0.28,0.37,0.75,0.56
								c-0.55,0.02-0.68,0.05-1.06,0.24c-1.71,0.77-0.78,3.04-1.41,4c-0.47,0.66-0.2,1.76,1.69,0.11c0.87-0.61,0.68-1.27,0.5-1.92
								c-0.19-0.64-0.49-1.21-0.06-1.49c0.59-0.38,0.81,0.21,1.22,0.69c0.4,0.49,1.11,0.77,2.42-0.18
								C82.87,120.88,83.62,120.41,83.73,120.07z"/>
						</g>
						<g>
							<path class="st5" d="M68.12,105.75c-0.28,0-0.64,0.27-0.83,0.45c-0.73,0.84-1.46,1.72-2.18,2.66
								c-0.69,0.93-1.29,1.91-1.92,2.94c-1.32,2.07-2.27,4.27-3.25,6.68c-0.1,0.31-0.2,0.85-0.06,1.2c0.13,0.35,0.53,0.74,0.78,0.93
								c1.08,0.7,2.13,1.35,3.2,1.94c1.12,0.57,2.23,1.09,3.32,1.57c0.55,0.23,1.07,0.47,1.63,0.67l1.69,0.55
								c1.12,0.34,2.19,0.66,3.28,0.9c0.27,0.03,0.73,0.02,0.96-0.14c0.23-0.16,0.39-0.58,0.45-0.82c0.21-1.08,0.49-2.15,0.77-3.17
								c0.14-0.51,0.29-1,0.45-1.49c0.17-0.49,0.38-0.99,0.57-1.47c0.4-0.96,0.81-1.87,1.25-2.74c0.48-0.89,1.02-1.74,1.54-2.53
								c0.1-0.2,0.24-0.53,0.17-0.73c-0.09-0.19-0.4-0.38-0.59-0.48c-1.73-0.68-3.66-1.53-5.32-2.63c-0.85-0.55-1.76-1.14-2.6-1.79
								c-0.8-0.65-1.61-1.36-2.42-2.11C68.79,105.99,68.4,105.74,68.12,105.75z"/>
						</g>
						<g>
							<path class="st4" d="M68.49,110.18c0.17-0.02,0.33,0.02,0.46,0.1c0.63,0.48,1.26,0.94,1.89,1.37
								c0.59,0.43,0.86,1.18,0.65,1.96c0.61-0.53,1.44-0.7,2.09-0.37c0.66,0.35,1.32,0.67,1.97,0.96c0.13,0.07,0.23,0.17,0.28,0.3
								c0.05,0.13,0.04,0.27-0.02,0.4c-0.36,0.62-0.72,1.28-1.06,1.95c-0.35,0.66-1.12,1.01-1.91,0.94
								c0.56,0.53,0.93,1.23,0.66,1.95c-0.27,0.72-0.52,1.47-0.77,2.24c-0.06,0.15-0.17,0.27-0.32,0.35
								c-0.15,0.08-0.31,0.1-0.46,0.06c-0.74-0.26-1.5-0.55-2.26-0.86c-0.75-0.31-1.2-1.15-1.09-2.05
								c-0.53,0.65-1.31,0.98-2.04,0.59c-0.74-0.4-1.49-0.82-2.24-1.27c-0.14-0.1-0.26-0.26-0.33-0.45
								c-0.07-0.19-0.07-0.38-0.03-0.54c0.36-0.81,0.73-1.59,1.11-2.35c0.38-0.75,1.2-0.94,2-0.72c-0.55-0.68-0.83-1.59-0.36-2.29
								c0.45-0.7,0.91-1.38,1.37-2.04C68.18,110.28,68.32,110.2,68.49,110.18z"/>
						</g>
						<g>
							<path class="st6" d="M68.87,112.6c0.35-0.07,0.84,0.33,1.01,0.99c0.1,0.38,0.04,0.78-0.04,1.04l-0.09,0.23
								c-0.12,0.34-0.12,0.61,0,1.05c0.09,0.31,0.35,0.41,0.64,0.33c0.43-0.14,0.64-0.28,0.85-0.55l0.13-0.19
								c0.17-0.21,0.49-0.46,0.87-0.57c0.64-0.19,1.19,0,1.32,0.3c0.11,0.3-0.22,0.79-0.86,1.01c-0.37,0.13-0.77,0.11-1.03,0.04
								l-0.23-0.07c-0.34-0.1-0.6-0.08-1.03,0.06c-0.28,0.1-0.41,0.33-0.3,0.63c0.16,0.43,0.31,0.65,0.6,0.86l0.2,0.13
								c0.22,0.16,0.49,0.46,0.62,0.83c0.23,0.64,0.15,1.22-0.19,1.37c-0.31,0.14-0.92-0.14-1.16-0.82
								c-0.14-0.39-0.13-0.81-0.07-1.08l0.06-0.24c0.08-0.35,0.06-0.61-0.1-1.05c-0.11-0.3-0.36-0.41-0.65-0.33
								c-0.43,0.14-0.64,0.28-0.84,0.57l-0.13,0.2c-0.16,0.22-0.45,0.5-0.82,0.63c-0.64,0.23-1.24-0.02-1.38-0.4
								c-0.15-0.38,0.2-0.93,0.86-1.12c0.38-0.11,0.77-0.06,1.03,0.03l0.23,0.08c0.34,0.11,0.61,0.1,1.03-0.04
								c0.29-0.1,0.4-0.33,0.3-0.64c-0.12-0.45-0.24-0.68-0.51-0.91l-0.19-0.16c-0.2-0.19-0.45-0.52-0.55-0.92
								C68.29,113.24,68.53,112.67,68.87,112.6z"/>
						</g>
					</g>
				</g>
				<g>
					<g>
						<g>
							<path class="st4" d="M83.72,89.95c0.05,0.17-0.03,0.36-0.15,0.55c-0.11,0.19-0.22,0.39-0.28,0.51
								c-1.22,2.02-3.15-0.7-3.68,0.27c-0.31,0.76,2.59,1.53,1.91,2.87c-0.31,0.84-0.6,1.12-0.88,1.09
								c-0.28-0.03-0.53-0.37-0.57-0.7c-0.1-0.87-2.36-2.25-1.55-3.62c0.16-0.31,0.28-0.37,0.75-0.56
								c-0.55-0.02-0.68-0.05-1.06-0.24c-1.71-0.77-0.78-3.04-1.41-4c-0.48-0.66-0.2-1.76,1.69-0.11c0.87,0.61,0.68,1.27,0.51,1.92
								c-0.19,0.64-0.49,1.21-0.06,1.49c0.59,0.38,0.81-0.21,1.22-0.69c0.4-0.49,1.11-0.77,2.42,0.18
								C82.86,89.15,83.62,89.62,83.72,89.95z"/>
						</g>
						<g>
							<path class="st4" d="M66.06,77.43c-0.23,0.07-0.51,0.36-0.76,0.67c-0.24,0.32-0.45,0.69-0.59,0.9
								c-2.28,3.74,1.7,3.08,0.72,4.6c-0.61,1.15-2.72-1.25-3.92,1.29c-0.85,1.45-0.87,2.19-0.66,2.42
								c0.21,0.23,0.67-0.01,0.98-0.42c0.99-1.07,3.61-0.38,4.47-2.48c0.2-0.48,0.27-0.61,0.3-1.27c0.22,0.56,0.31,0.65,0.67,0.89
								c1.55,1.04,3.47-1.38,4.58-1.22c0.81,0.14,1.88-0.52-0.3-1.77c-0.82-0.62-1.64-0.14-2.23,0.53c-0.6,0.66-1.1,1.4-1.56,1.16
								c-0.63-0.33-0.04-1.05,0.36-1.9c0.38-0.86,0.73-1.77-0.61-2.75C67.18,77.89,66.52,77.29,66.06,77.43z"/>
						</g>
						<g>
							<path class="st4" d="M57.28,104.45c-0.27-0.39-0.14-1.57-0.15-2.07c0.1-2.19,0.93-2.55,1.71-2.6
								c0.77-0.05,1.49,0.19,1.59-0.69c0.15-1.29-2.94-0.59-2.47-3.36c0.52-3.32,1.46-2.45,1.49-1.42c0.09,1.43,2.65,2.42,2.16,4.63
								c-0.1,0.51-0.16,0.65-0.55,1.2c0.53-0.32,0.66-0.34,1.09-0.33c0.95,0.03,1.35,0.82,1.79,1.67c0.41,0.85,0.72,1.74,1.23,2.01
								c0.74,0.37,1.13,1.52-1.35,1.26c-2.1,0.03-1.05-3.46-2.07-3.59c-1.41-0.17,0.32,3.63-2.95,3.61
								C58.44,104.74,57.55,104.84,57.28,104.45z"/>
						</g>
						<g>
							<path class="st4" d="M78.93,104.7c0.3-0.21,0.26-0.85,0.3-1.12c0.03-0.59-0.15-0.96-0.43-1.21
								c-0.27-0.25-0.62-0.37-0.99-0.45c-0.74-0.17-1.5-0.15-1.38-0.71c0.17-0.81,2.99,0.28,3.17-1.22
								c0.65-1.68-0.44-1.65-0.89-1.16c-0.67,0.62-3.29,0.43-3.38,2.02c-0.03,0.35-0.01,0.46,0.23,0.89
								c-0.44-0.3-0.56-0.35-0.97-0.42c-0.9-0.18-1.6,0.3-2.06,0.9c-0.49,0.6-0.88,1.31-1.4,1.51c-0.77,0.26-1.28,1.3,1.23,1.09
								c2.1,0.03,1.35-2.55,2.37-2.5c1.42,0.04-0.63,2.54,2.63,2.56C77.75,104.85,78.63,104.91,78.93,104.7z"/>
						</g>
						<g>
							<path class="st5" d="M74.72,83.92c-0.23-0.16-0.69-0.17-0.96-0.14c-1.08,0.25-2.16,0.56-3.28,0.9l-1.69,0.55
								c-0.55,0.2-1.08,0.44-1.63,0.67c-1.09,0.47-2.2,1-3.32,1.57c-1.07,0.59-2.12,1.25-3.2,1.95c-0.25,0.19-0.65,0.58-0.78,0.93
								c-0.14,0.35-0.04,0.9,0.06,1.2c0.98,2.41,1.93,4.61,3.25,6.68c0.63,1.03,1.24,2,1.93,2.94c0.72,0.94,1.45,1.82,2.18,2.66
								c0.19,0.18,0.55,0.45,0.83,0.45c0.28,0,0.67-0.24,0.88-0.4c0.81-0.75,1.62-1.46,2.42-2.11c0.83-0.65,1.75-1.24,2.6-1.79
								c1.66-1.11,3.59-1.95,5.32-2.64c0.19-0.1,0.5-0.29,0.58-0.48c0.07-0.19-0.07-0.53-0.17-0.73c-0.52-0.79-1.06-1.65-1.54-2.53
								c-0.43-0.86-0.85-1.78-1.25-2.74c-0.19-0.48-0.4-0.98-0.57-1.47c-0.15-0.48-0.3-0.98-0.45-1.49
								c-0.28-1.01-0.56-2.08-0.78-3.16C75.1,84.5,74.95,84.09,74.72,83.92z"/>
						</g>
						<g>
							<path class="st4" d="M72.39,87.71c0.15,0.08,0.26,0.2,0.32,0.35c0.24,0.77,0.5,1.51,0.77,2.23c0.27,0.72-0.1,1.42-0.66,1.95
								c0.8-0.08,1.57,0.27,1.91,0.93c0.35,0.68,0.7,1.33,1.06,1.95c0.06,0.13,0.07,0.27,0.02,0.4c-0.05,0.13-0.15,0.24-0.28,0.31
								c-0.65,0.3-1.3,0.62-1.97,0.96c-0.66,0.34-1.48,0.17-2.09-0.37c0.21,0.77-0.06,1.52-0.65,1.96
								c-0.62,0.43-1.25,0.89-1.89,1.37c-0.13,0.08-0.29,0.12-0.46,0.1c-0.16-0.02-0.31-0.1-0.41-0.22
								c-0.46-0.65-0.92-1.33-1.37-2.04c-0.47-0.7-0.19-1.61,0.36-2.29c-0.8,0.22-1.63,0.02-2-0.72c-0.38-0.76-0.75-1.54-1.11-2.35
								c-0.05-0.17-0.04-0.36,0.03-0.55c0.07-0.19,0.19-0.34,0.33-0.45c0.75-0.45,1.5-0.87,2.24-1.27c0.73-0.39,1.51-0.07,2.04,0.59
								c-0.11-0.9,0.34-1.74,1.09-2.05c0.76-0.31,1.52-0.6,2.26-0.86C72.09,87.61,72.25,87.63,72.39,87.71z"/>
						</g>
						<g>
							<path class="st6" d="M71.33,89.92c0.34,0.15,0.41,0.73,0.19,1.37c-0.14,0.37-0.41,0.67-0.62,0.83l-0.2,0.13
								c-0.29,0.2-0.44,0.43-0.6,0.86c-0.11,0.3,0.01,0.53,0.3,0.63c0.43,0.14,0.69,0.15,1.03,0.06l0.23-0.07
								c0.26-0.07,0.66-0.09,1.04,0.04c0.64,0.22,0.98,0.71,0.86,1.01c-0.13,0.3-0.67,0.5-1.32,0.3c-0.38-0.11-0.69-0.36-0.87-0.57
								l-0.14-0.19c-0.2-0.27-0.42-0.41-0.85-0.55c-0.29-0.08-0.55,0.02-0.64,0.33c-0.12,0.45-0.12,0.72,0,1.05l0.09,0.23
								c0.09,0.26,0.14,0.66,0.04,1.04c-0.17,0.66-0.66,1.06-1.01,0.99c-0.35-0.07-0.59-0.64-0.41-1.33c0.1-0.4,0.35-0.74,0.55-0.92
								l0.19-0.16c0.27-0.23,0.39-0.46,0.51-0.91c0.1-0.3-0.02-0.53-0.3-0.64c-0.43-0.14-0.69-0.15-1.03-0.04l-0.23,0.08
								c-0.26,0.09-0.65,0.14-1.03,0.03c-0.65-0.19-1.01-0.75-0.86-1.12c0.14-0.38,0.74-0.62,1.38-0.4
								c0.37,0.13,0.66,0.41,0.82,0.63l0.13,0.2c0.2,0.29,0.41,0.43,0.84,0.57c0.29,0.08,0.54-0.02,0.65-0.33
								c0.16-0.43,0.19-0.7,0.1-1.05l-0.06-0.24c-0.06-0.27-0.07-0.69,0.07-1.08C70.41,90.07,71.02,89.78,71.33,89.92z"/>
						</g>
					</g>
				</g>
				<g>
					<g>
						<g>
							<path class="st4" d="M96.64,80.32c-0.1,0.35-0.72,0.49-0.96,0.61c-0.56,0.19-0.96,0.14-1.27-0.01
								c-0.31-0.16-0.55-0.47-0.74-0.8c-0.39-0.65-0.61-1.38-1.11-1.1c-0.71,0.41,1.17,2.71-0.17,3.39
								c-1.4,1.14-1.72,0.07-1.38-0.48c0.42-0.77-0.65-3.33,0.87-3.85c0.33-0.13,0.44-0.14,0.93-0.04c-0.43-0.33-0.51-0.42-0.7-0.8
								c-0.46-0.82-0.2-1.57,0.2-2.27c0.42-0.64,0.98-1.22,1-1.78c0-0.81,0.85-1.6,1.42,0.85c0.68,1.99-2.01,2.02-1.64,3
								c0.47,1.31,2.23-1.34,3.25,1.75C96.42,79.15,96.75,79.97,96.64,80.32z"/>
						</g>
						<g>
							<path class="st4" d="M89.7,59.81c-0.45-0.14-1.55,0.33-2.02,0.48c-1.03,0.37-1.57,0.8-1.81,1.25
								c-0.25,0.43-0.22,0.84-0.12,1.22c0.19,0.75,0.65,1.36-0.17,1.72c-1.18,0.55-1.5-2.66-3.96-1.31
								c-2.99,1.53-1.89,2.12-0.89,1.86c1.41-0.3,3.08,1.69,5.06,0.61c0.46-0.25,0.57-0.34,0.98-0.88c-0.14,0.6-0.12,0.73,0.03,1.12
								c0.32,0.88,1.22,1.07,2.13,1.15c0.94,0.14,1.89,0.17,2.31,0.56c0.58,0.59,1.81,0.62,0.78-1.66c-0.62-2-3.64,0.02-4.07-0.88
								c-0.61-1.32,3.57-0.79,2.54-3.89C90.34,60.82,90.16,59.95,89.7,59.81z"/>
						</g>
						<g>
							<path class="st4" d="M66.74,76.51c0-0.48,0.77-1.38,1.05-1.8c2.88-3.28,3.47,0.69,4.63-0.69c0.87-0.97-2.09-2.26-0.01-4.14
								c2.33-2.42,2.56-1.18,2.02-0.3c-0.35,0.62-0.17,1.51-0.12,2.42c0.07,0.92-0.06,1.77-0.86,2.58
								c-0.37,0.36-0.49,0.45-1.12,0.68c0.61,0.05,0.73,0.1,1.06,0.36c1.48,1.17-0.33,3.65,0.25,4.74c0.39,0.74,0.06,1.93-1.8,0.25
								c-0.86-0.6-0.58-1.48-0.18-2.29c0.37-0.83,1-1.47,0.62-1.84c-0.49-0.48-1.07,0.24-1.69,0.93c-0.64,0.67-1.48,1.23-2.8,0.27
								C67.52,77.43,66.74,76.99,66.74,76.51z"/>
						</g>
						<g>
							<path class="st4" d="M84.1,89.46c0.36,0,0.67-0.55,0.85-0.76c1.58-1.76-1.62-2.77-0.83-3.55c0.59-0.57,2.2,1.93,3.31,0.91
								c1.48-1.03,0.56-1.66-0.05-1.49c-0.44,0.09-1.15-0.31-1.91-0.58c-0.73-0.25-1.58-0.44-2.03,0.22
								c-0.22,0.28-0.26,0.38-0.31,0.89c-0.19-0.51-0.25-0.62-0.55-0.93c-1.25-1.38-3.22,0.12-4.24-0.11
								c-0.77-0.24-1.76,0.33,0.39,1.63c0.84,0.63,1.47,0.3,1.98-0.11c0.49-0.43,1.01-0.83,1.4-0.52c0.57,0.46,0,0.79-0.28,1.38
								c-0.29,0.58-0.4,1.28,0.92,2.25C83.06,88.88,83.74,89.45,84.1,89.46z"/>
						</g>
						<g>
							<path class="st5" d="M92.9,70.16c-0.09-0.27-0.46-0.53-0.69-0.66c-4.14-1.88-8.82-2.89-13.95-3.18
								c-0.31,0.02-0.85,0.11-1.15,0.33c-0.3,0.22-0.55,0.72-0.66,1.01l-0.48,1.82c-0.14,0.6-0.24,1.24-0.35,1.85
								c-0.21,1.23-0.37,2.43-0.5,3.59c-0.09,1.2-0.12,2.4-0.12,3.55l0.02,1.7c0.03,0.57,0.09,1.15,0.15,1.71
								c0.05,0.27,0.2,0.7,0.42,0.87c0.23,0.17,0.67,0.19,0.93,0.18c0.54-0.07,1.06-0.14,1.6-0.19c0.55-0.03,1.09-0.05,1.63-0.07
								c1.07-0.02,2.09-0.02,3.11,0.03c1.05,0.1,2.06,0.22,3.03,0.38c0.49,0.08,0.95,0.15,1.44,0.27c0.49,0.12,0.97,0.25,1.43,0.38
								c0.22,0.04,0.59,0.08,0.76-0.05c0.17-0.12,0.24-0.49,0.27-0.72c0.18-3.79,1.09-7.97,3-11.86
								C92.88,70.87,92.99,70.43,92.9,70.16z"/>
						</g>
						<g>
							<path class="st4" d="M88.8,71.87c0.07,0.15,0.09,0.31,0.05,0.46c-0.26,0.75-0.52,1.44-0.71,2.22
								c-0.19,0.76-0.86,1.18-1.66,1.22c0.7,0.42,1.12,1.15,1,1.87l-0.18,1.08l-0.1,1.12c-0.02,0.14-0.09,0.27-0.21,0.36
								c-0.11,0.09-0.25,0.12-0.4,0.1c-0.72-0.16-1.45-0.31-2.21-0.44c-0.72-0.1-1.28-0.72-1.48-1.53
								c-0.28,0.76-0.87,1.29-1.64,1.25c-0.77-0.03-1.6-0.09-2.36-0.04c-0.15-0.01-0.3-0.07-0.42-0.19
								c-0.12-0.12-0.19-0.27-0.2-0.43c-0.03-0.84,0.06-1.59,0.12-2.42c0.07-0.8,0.77-1.45,1.6-1.69c-0.77-0.28-1.32-0.93-1.2-1.76
								c0.16-0.81,0.33-1.64,0.53-2.49c0.06-0.17,0.17-0.32,0.33-0.44c0.16-0.12,0.34-0.18,0.52-0.19l1.27,0.1l1.28,0.19
								c0.83,0.14,1.28,0.86,1.31,1.68c0.47-0.73,1.29-1.21,2.07-1.05c0.78,0.16,1.6,0.44,2.36,0.67
								C88.61,71.61,88.73,71.72,88.8,71.87z"/>
						</g>
						<g>
							<path class="st6" d="M86.63,73.02c0.17,0.31-0.06,0.89-0.64,1.24c-0.34,0.21-0.74,0.27-1.02,0.26l-0.24-0.02
								c-0.37-0.03-0.6,0.1-0.97,0.37c-0.26,0.19-0.29,0.46-0.12,0.71c0.26,0.36,0.47,0.53,0.79,0.64l0.22,0.07
								c0.25,0.1,0.58,0.31,0.8,0.63c0.39,0.56,0.39,1.16,0.13,1.36c-0.26,0.19-0.83,0.02-1.24-0.52c-0.24-0.31-0.34-0.7-0.36-0.96
								l0-0.24c-0.01-0.35-0.11-0.59-0.37-0.95c-0.19-0.24-0.45-0.29-0.7-0.09c-0.37,0.28-0.54,0.48-0.65,0.81l-0.07,0.23
								c-0.09,0.25-0.29,0.59-0.58,0.87c-0.5,0.46-1.12,0.51-1.36,0.25c-0.24-0.26-0.11-0.88,0.41-1.36c0.3-0.29,0.7-0.4,0.99-0.42
								l0.25-0.01c0.36-0.02,0.61-0.12,0.98-0.4c0.26-0.19,0.29-0.46,0.12-0.71c-0.26-0.36-0.47-0.53-0.81-0.63l-0.23-0.06
								c-0.26-0.08-0.62-0.28-0.86-0.59c-0.41-0.54-0.36-1.18-0.04-1.42c0.32-0.24,0.94-0.1,1.33,0.46c0.22,0.32,0.3,0.73,0.3,1
								l-0.01,0.25c-0.01,0.36,0.09,0.6,0.35,0.97c0.19,0.24,0.45,0.29,0.7,0.09c0.37-0.27,0.53-0.5,0.68-0.81l0.09-0.22
								c0.12-0.24,0.37-0.58,0.72-0.79C85.83,72.65,86.46,72.71,86.63,73.02z"/>
						</g>
					</g>
				</g>
				<g>
					<g>
						<g>
							<path class="st4" d="M112.77,80.09c-0.29,0.23-0.88,0.01-1.15-0.03c-2.28-0.59-0.3-3.27-1.4-3.39
								c-0.82-0.08-0.65,2.93-2.13,2.67c-1.81,0.06-1.44-0.92-0.84-1.22c0.41-0.23,0.76-0.98,1.2-1.6c0.44-0.64,1-1.19,1.76-1
								c0.35,0.08,0.44,0.13,0.78,0.48c-0.15-0.51-0.16-0.63-0.1-1.05c0.21-1.94,2.63-1.66,3.35-2.55c0.48-0.67,1.63-0.81,0.65,1.51
								c-0.61,1.96-2.83,0.52-3.1,1.5c-0.18,0.68,0.45,0.72,1.03,0.98c0.58,0.25,1.1,0.73,0.59,2.31
								C113.27,79.02,113.05,79.89,112.77,80.09z"/>
						</g>
						<g>
							<path class="st4" d="M119.2,59.41c-0.28-0.38-1.45-0.61-1.93-0.76c-2.13-0.54-2.72,0.1-3.01,0.82
								c-0.28,0.72-0.28,1.48-1.15,1.31c-1.28-0.24,0.34-2.98-2.44-3.36c-0.82-0.2-1.41-0.18-1.81-0.14
								c-0.4,0.05-0.61,0.16-0.69,0.29c-0.16,0.27,0.22,0.63,0.7,0.81c0.65,0.25,1.03,1.07,1.52,1.87c0.49,0.78,1.08,1.5,2.22,1.61
								c0.52,0.06,0.67,0.04,1.32-0.16c-0.47,0.41-0.53,0.53-0.64,0.94c-0.49,1.72,2.38,2.9,2.58,4.01c0.13,0.8,1.1,1.55,1.61-0.89
								c0.69-2.03-2.98-2.04-2.79-3.06c0.27-1.39,3.38,1.36,4.35-1.7C119.11,60.62,119.48,59.81,119.2,59.41z"/>
						</g>
						<g>
							<path class="st4" d="M90.78,59.42c0.28-0.38,1.46-0.61,1.93-0.76c2.13-0.55,2.72,0.1,3.01,0.82C96,60.2,96,60.96,96.87,60.79
								c1.28-0.24-0.34-2.98,2.44-3.36c0.82-0.2,1.41-0.18,1.81-0.14c0.4,0.05,0.61,0.16,0.69,0.29c0.16,0.27-0.22,0.63-0.7,0.81
								c-0.33,0.13-0.59,0.4-0.82,0.73c-0.24,0.35-0.45,0.75-0.7,1.14c-0.49,0.78-1.08,1.5-2.22,1.61
								c-0.52,0.06-0.67,0.04-1.32-0.16c0.46,0.41,0.53,0.53,0.64,0.93c0.49,1.72-2.38,2.9-2.58,4.01c-0.13,0.8-1.1,1.55-1.61-0.89
								c-0.69-2.03,2.98-2.04,2.79-3.06c-0.27-1.38-3.38,1.36-4.35-1.69C90.87,60.63,90.51,59.82,90.78,59.42z"/>
						</g>
						<g>
							<path class="st4" d="M97.22,80.09c0.29,0.22,0.88,0,1.15-0.04c2.28-0.59,0.29-3.27,1.4-3.4c0.82-0.08,0.65,2.93,2.14,2.67
								c1.81,0.06,1.44-0.92,0.83-1.23c-0.2-0.11-0.39-0.35-0.59-0.66c-0.19-0.29-0.4-0.62-0.61-0.94c-0.44-0.64-1-1.19-1.77-1
								c-0.34,0.08-0.44,0.12-0.78,0.48c0.15-0.51,0.16-0.63,0.1-1.05c-0.22-1.93-2.63-1.65-3.35-2.55
								c-0.49-0.68-1.63-0.81-0.65,1.52c0.61,1.96,2.84,0.52,3.11,1.5c0.18,0.68-0.45,0.72-1.03,0.98c-0.58,0.25-1.1,0.73-0.58,2.31
								C96.72,79.03,96.94,79.89,97.22,80.09z"/>
						</g>
						<g>
							<path class="st5" d="M115.7,69.68c0.08-0.27-0.06-0.69-0.18-0.93c-0.57-0.95-1.2-1.9-1.87-2.87c-0.67-1-1.42-1.82-2.2-2.74
								c-0.79-0.88-1.62-1.86-2.52-2.66c-0.89-0.82-1.84-1.65-2.83-2.47c-0.26-0.18-0.75-0.45-1.12-0.46
								c-0.37,0.01-0.86,0.29-1.12,0.46c-0.99,0.82-1.94,1.64-2.83,2.47c-0.89,0.8-1.73,1.78-2.51,2.66
								c-0.78,0.93-1.53,1.74-2.2,2.75c-0.67,0.97-1.29,1.93-1.87,2.87c-0.12,0.24-0.26,0.66-0.17,0.93
								c0.08,0.27,0.43,0.57,0.65,0.72c0.97,0.55,1.89,1.11,2.76,1.68c0.86,0.54,1.72,1.28,2.5,1.91c0.79,0.68,1.52,1.28,2.22,2.04
								c0.7,0.74,1.34,1.49,1.94,2.22c0.16,0.16,0.44,0.39,0.64,0.37c0.21,0.01,0.49-0.22,0.64-0.37c0.6-0.74,1.24-1.48,1.94-2.22
								c0.7-0.77,1.43-1.36,2.22-2.04c0.78-0.64,1.63-1.37,2.5-1.91c0.87-0.57,1.79-1.13,2.76-1.68
								C115.27,70.24,115.62,69.95,115.7,69.68z"/>
						</g>
						<g>
							<path class="st4" d="M111.37,68.68c-0.03,0.17-0.11,0.31-0.24,0.41c-0.65,0.46-1.28,0.92-1.88,1.39
								c-0.59,0.43-1.39,0.42-2.06,0.01c0.32,0.74,0.23,1.58-0.3,2.11c-0.54,0.53-1.04,1.06-1.53,1.59
								c-0.1,0.09-0.24,0.14-0.38,0.14c-0.14,0.01-0.27-0.04-0.38-0.14c-0.48-0.53-0.99-1.06-1.53-1.59
								c-0.52-0.53-0.62-1.37-0.3-2.11c-0.68,0.41-1.47,0.42-2.06,0c-0.6-0.47-1.23-0.93-1.88-1.39c-0.12-0.1-0.21-0.24-0.23-0.41
								c-0.03-0.16,0-0.32,0.09-0.46c0.48-0.63,0.99-1.27,1.52-1.91c0.52-0.66,1.47-0.72,2.29-0.37c-0.46-0.7-0.52-1.54,0.07-2.13
								c0.6-0.59,1.23-1.18,1.89-1.76c0.14-0.11,0.33-0.17,0.53-0.18c0.2,0.01,0.38,0.08,0.52,0.18c0.66,0.59,1.29,1.17,1.89,1.76
								c0.59,0.58,0.53,1.43,0.07,2.13c0.81-0.34,1.76-0.29,2.29,0.37c0.53,0.64,1.04,1.28,1.52,1.91
								C111.37,68.35,111.4,68.51,111.37,68.68z"/>
						</g>
						<g>
							<path class="st6" d="M108.94,68.3c-0.04,0.34-0.57,0.68-1.25,0.65c-0.4-0.02-0.76-0.19-0.98-0.35l-0.19-0.15
								c-0.28-0.21-0.54-0.29-1-0.32c-0.32-0.02-0.5,0.17-0.51,0.47c0,0.45,0.07,0.7,0.26,1l0.14,0.2c0.14,0.23,0.29,0.61,0.28,1
								c-0.02,0.68-0.37,1.14-0.7,1.12c-0.32,0.02-0.68-0.45-0.7-1.12c-0.01-0.39,0.13-0.77,0.28-1l0.14-0.2
								c0.2-0.3,0.26-0.55,0.26-1c-0.01-0.3-0.19-0.49-0.51-0.47c-0.46,0.02-0.72,0.1-1,0.32l-0.19,0.15
								c-0.22,0.16-0.59,0.33-0.98,0.35c-0.68,0.03-1.21-0.31-1.25-0.65c-0.04-0.37,0.42-0.77,1.14-0.8
								c0.41-0.02,0.81,0.11,1.05,0.25l0.21,0.13c0.31,0.18,0.56,0.24,1.03,0.21c0.32-0.01,0.5-0.22,0.51-0.52
								c0-0.45-0.07-0.7-0.28-0.97l-0.15-0.18c-0.16-0.22-0.34-0.58-0.35-0.97c-0.02-0.68,0.4-1.18,0.8-1.2
								c0.4,0.02,0.82,0.52,0.8,1.2c-0.01,0.39-0.18,0.75-0.35,0.97l-0.15,0.18c-0.22,0.27-0.28,0.52-0.28,0.97
								c0.01,0.3,0.19,0.51,0.51,0.52c0.46,0.02,0.72-0.03,1.03-0.21l0.2-0.13c0.24-0.14,0.64-0.27,1.05-0.25
								C108.52,67.54,108.99,67.94,108.94,68.3z"/>
						</g>
					</g>
				</g>
				<g>
					<g>
						<g>
							<path class="st4" d="M125.9,89.44c-0.36,0.01-0.67-0.55-0.85-0.76c-1.58-1.76,1.62-2.77,0.83-3.55
								c-0.59-0.57-2.2,1.93-3.31,0.91c-1.48-1.03-0.56-1.66,0.05-1.49c0.44,0.09,1.15-0.31,1.91-0.58
								c0.38-0.13,0.76-0.24,1.12-0.23c0.37,0,0.69,0.12,0.91,0.45c0.22,0.28,0.26,0.38,0.31,0.89c0.19-0.51,0.25-0.62,0.55-0.92
								c1.24-1.38,3.22,0.11,4.24-0.11c0.77-0.24,1.76,0.33-0.39,1.63c-0.84,0.63-1.46,0.3-1.98-0.11c-0.49-0.43-1.01-0.83-1.4-0.52
								c-0.57,0.46,0,0.8,0.28,1.38c0.29,0.58,0.4,1.28-0.92,2.25C126.93,88.87,126.25,89.44,125.9,89.44z"/>
						</g>
						<g>
							<path class="st4" d="M143.25,76.49c0-0.48-0.77-1.38-1.05-1.79c-2.89-3.28-3.47,0.69-4.63-0.69c-0.87-0.97,2.09-2.26,0-4.14
								c-2.33-2.42-2.56-1.18-2.02-0.3c0.35,0.62,0.17,1.51,0.12,2.42c-0.03,0.45-0.02,0.91,0.1,1.34c0.13,0.42,0.36,0.84,0.76,1.24
								c0.37,0.36,0.49,0.45,1.12,0.68c-0.61,0.05-0.73,0.1-1.05,0.37c-1.48,1.17,0.33,3.65-0.25,4.74
								c-0.39,0.74-0.06,1.93,1.8,0.25c0.86-0.6,0.58-1.48,0.19-2.29c-0.38-0.83-1-1.47-0.62-1.84c0.49-0.48,1.06,0.24,1.69,0.93
								c0.64,0.67,1.48,1.23,2.8,0.27C142.47,77.41,143.24,76.97,143.25,76.49z"/>
						</g>
						<g>
							<path class="st4" d="M120.28,59.8c0.45-0.14,1.55,0.34,2.03,0.48c1.03,0.37,1.57,0.8,1.81,1.25
								c0.25,0.43,0.22,0.84,0.12,1.22c-0.19,0.75-0.65,1.36,0.17,1.72c1.18,0.55,1.49-2.66,3.96-1.31
								c2.99,1.53,1.89,2.12,0.89,1.86c-1.41-0.3-3.08,1.7-5.06,0.61c-0.46-0.25-0.57-0.35-0.98-0.88c0.14,0.6,0.12,0.73-0.02,1.13
								c-0.32,0.88-1.22,1.07-2.13,1.15c-0.94,0.14-1.89,0.17-2.31,0.57c-0.58,0.59-1.81,0.62-0.79-1.66c0.62-2,3.64,0.03,4.08-0.88
								c0.61-1.31-3.57-0.79-2.54-3.89C119.64,60.81,119.83,59.94,120.28,59.8z"/>
						</g>
						<g>
							<path class="st4" d="M113.35,80.31c0.1,0.35,0.72,0.5,0.97,0.61c0.56,0.19,0.96,0.14,1.27-0.01c0.31-0.16,0.55-0.47,0.74-0.8
								c0.39-0.65,0.61-1.38,1.11-1.1c0.71,0.41-1.17,2.71,0.17,3.39c1.4,1.14,1.72,0.07,1.38-0.48c-0.42-0.78,0.65-3.33-0.87-3.85
								c-0.33-0.13-0.44-0.14-0.92-0.04c0.43-0.33,0.51-0.42,0.71-0.8c0.45-0.82,0.2-1.57-0.2-2.27c-0.42-0.64-0.98-1.22-1.01-1.78
								c0-0.81-0.85-1.6-1.42,0.85c-0.68,1.99,2.01,2.02,1.65,3c-0.47,1.32-2.23-1.34-3.25,1.75
								C113.57,79.14,113.25,79.96,113.35,80.31z"/>
						</g>
						<g>
							<path class="st5" d="M134.4,82.74c0.22-0.17,0.37-0.6,0.42-0.87c0.06-0.56,0.12-1.14,0.15-1.71l0.02-1.7
								c-0.01-1.15-0.03-2.35-0.12-3.55c-0.28-2.31-0.61-4.87-1.34-7.26c-0.11-0.29-0.36-0.79-0.66-1.01
								c-0.3-0.22-0.84-0.31-1.15-0.33c-5.13,0.3-9.81,1.31-13.95,3.19c-0.23,0.13-0.6,0.39-0.69,0.66
								c-0.09,0.27,0.02,0.71,0.11,0.95c1.91,3.89,2.83,8.07,3.01,11.86c0.03,0.23,0.1,0.6,0.27,0.72c0.16,0.12,0.53,0.09,0.76,0.05
								c1.91-0.59,3.78-0.82,5.9-1.04c1.02-0.06,2.04-0.06,3.11-0.04c0.53,0.01,1.08,0.03,1.63,0.07c0.54,0.04,1.06,0.12,1.6,0.19
								C133.72,82.93,134.17,82.91,134.4,82.74z"/>
						</g>
						<g>
							<path class="st4" d="M131.52,79.35c-0.12,0.12-0.27,0.18-0.42,0.19c-0.76-0.05-1.59,0.01-2.36,0.04
								c-0.77,0.04-1.36-0.48-1.64-1.25c-0.2,0.81-0.75,1.42-1.48,1.53c-0.76,0.13-1.5,0.28-2.21,0.44c-0.14,0.02-0.28-0.01-0.4-0.1
								c-0.11-0.09-0.18-0.21-0.21-0.36l-0.1-1.12l-0.18-1.08c-0.12-0.72,0.3-1.45,1-1.87c-0.8-0.04-1.47-0.47-1.66-1.22
								c-0.19-0.77-0.45-1.46-0.71-2.22c-0.04-0.15-0.03-0.31,0.05-0.46c0.07-0.15,0.19-0.26,0.34-0.32
								c0.76-0.23,1.58-0.5,2.36-0.67c0.78-0.16,1.6,0.32,2.07,1.05c0.04-0.83,0.48-1.55,1.31-1.68l1.28-0.19l1.27-0.1
								c0.17,0,0.35,0.07,0.52,0.19c0.16,0.12,0.27,0.28,0.33,0.44c0.2,0.84,0.38,1.67,0.53,2.49c0.13,0.83-0.43,1.48-1.19,1.76
								c0.83,0.24,1.52,0.89,1.6,1.69c0.06,0.82,0.15,1.58,0.12,2.42C131.71,79.09,131.64,79.24,131.52,79.35z"/>
						</g>
						<g>
							<path class="st6" d="M129.74,77.66c-0.24,0.26-0.85,0.21-1.36-0.25c-0.28-0.28-0.49-0.62-0.58-0.87l-0.07-0.23
								c-0.11-0.33-0.28-0.54-0.65-0.82c-0.26-0.2-0.52-0.14-0.7,0.09c-0.26,0.36-0.36,0.61-0.37,0.95l0,0.24
								c-0.02,0.27-0.12,0.65-0.36,0.96c-0.41,0.54-0.98,0.72-1.24,0.52c-0.26-0.19-0.26-0.8,0.13-1.36
								c0.22-0.32,0.55-0.54,0.8-0.63l0.22-0.07c0.32-0.11,0.53-0.28,0.79-0.64c0.17-0.25,0.14-0.52-0.12-0.71
								c-0.37-0.27-0.6-0.39-0.97-0.37l-0.25,0.02c-0.28,0-0.68-0.06-1.02-0.26c-0.58-0.35-0.81-0.93-0.64-1.24
								c0.17-0.31,0.79-0.37,1.4,0c0.35,0.21,0.6,0.55,0.72,0.79l0.09,0.22c0.15,0.31,0.31,0.53,0.68,0.81
								c0.25,0.2,0.52,0.14,0.7-0.09c0.26-0.36,0.36-0.61,0.35-0.97l-0.01-0.25c0-0.28,0.08-0.68,0.3-1.01
								c0.39-0.56,1-0.7,1.33-0.46c0.32,0.24,0.37,0.88-0.04,1.42c-0.24,0.31-0.6,0.51-0.86,0.59l-0.24,0.06
								c-0.34,0.1-0.54,0.26-0.81,0.63c-0.17,0.25-0.14,0.52,0.12,0.71c0.37,0.28,0.62,0.38,0.98,0.4l0.25,0.01
								c0.28,0.02,0.69,0.13,0.99,0.42C129.85,76.78,129.98,77.4,129.74,77.66z"/>
						</g>
					</g>
				</g>
				<g>
					<g>
						<g>
							<path class="st4" d="M131.07,104.69c-0.3-0.21-0.26-0.84-0.3-1.11c-0.03-0.59,0.15-0.96,0.43-1.22
								c0.26-0.25,0.62-0.37,0.99-0.46c0.74-0.17,1.5-0.15,1.38-0.71c-0.17-0.81-2.99,0.28-3.17-1.22
								c-0.65-1.68,0.44-1.65,0.89-1.16c0.67,0.62,3.29,0.43,3.38,2.02c0.03,0.35,0.01,0.46-0.23,0.89c0.44-0.3,0.56-0.35,0.97-0.42
								c0.9-0.18,1.6,0.29,2.06,0.9c0.49,0.6,0.88,1.31,1.4,1.51c0.77,0.25,1.28,1.3-1.23,1.08c-2.1,0.03-1.35-2.54-2.37-2.5
								c-1.42,0.04,0.63,2.54-2.64,2.56C132.26,104.84,131.37,104.89,131.07,104.69z"/>
						</g>
						<g>
							<path class="st4" d="M152.72,104.43c0.27-0.38,0.14-1.56,0.14-2.06c-0.1-2.19-0.93-2.55-1.71-2.6
								c-0.77-0.05-1.49,0.19-1.59-0.69c-0.15-1.29,2.94-0.59,2.47-3.36c-0.52-3.32-1.46-2.45-1.5-1.42
								c-0.09,1.43-2.64,2.42-2.16,4.63c0.1,0.51,0.16,0.65,0.55,1.21c-0.53-0.32-0.66-0.34-1.08-0.32
								c-0.95,0.03-1.35,0.82-1.79,1.67c-0.41,0.85-0.72,1.74-1.23,2.02c-0.74,0.37-1.13,1.52,1.35,1.25
								c2.1,0.03,1.05-3.46,2.07-3.59c1.41-0.17-0.32,3.63,2.95,3.61C151.56,104.72,152.45,104.81,152.72,104.43z"/>
						</g>
						<g>
							<path class="st4" d="M143.93,77.41c0.23,0.07,0.51,0.36,0.76,0.67c0.25,0.32,0.45,0.7,0.59,0.9c2.28,3.74-1.71,3.08-0.72,4.6
								c0.61,1.15,2.72-1.25,3.92,1.29c0.85,1.45,0.87,2.19,0.66,2.42c-0.21,0.23-0.67-0.01-0.98-0.42
								c-0.99-1.06-3.61-0.38-4.47-2.48c-0.2-0.48-0.27-0.61-0.3-1.27c-0.23,0.56-0.31,0.66-0.66,0.89
								c-1.55,1.03-3.47-1.38-4.59-1.22c-0.82,0.14-1.88-0.52,0.3-1.78c0.82-0.62,1.63-0.13,2.23,0.53c0.6,0.66,1.1,1.4,1.56,1.16
								c0.63-0.33,0.04-1.05-0.36-1.9c-0.39-0.86-0.73-1.77,0.61-2.75C142.81,77.87,143.47,77.27,143.93,77.41z"/>
						</g>
						<g>
							<path class="st4" d="M126.27,89.94c-0.05,0.17,0.03,0.37,0.15,0.55c0.11,0.19,0.22,0.39,0.28,0.51
								c1.22,2.02,3.15-0.71,3.68,0.27c0.31,0.76-2.59,1.53-1.91,2.88c0.31,0.84,0.6,1.12,0.88,1.09c0.28-0.03,0.53-0.37,0.57-0.7
								c0.1-0.86,2.36-2.26,1.55-3.63c-0.16-0.31-0.28-0.37-0.75-0.56c0.55-0.02,0.68-0.05,1.06-0.24c1.71-0.77,0.78-3.04,1.41-4
								c0.47-0.66,0.2-1.76-1.69-0.11c-0.87,0.61-0.68,1.27-0.5,1.92c0.19,0.64,0.49,1.21,0.06,1.49c-0.59,0.38-0.81-0.21-1.22-0.69
								c-0.4-0.49-1.11-0.77-2.42,0.18C127.13,89.13,126.38,89.61,126.27,89.94z"/>
						</g>
						<g>
							<path class="st5" d="M141.88,104.27c0.28,0,0.64-0.27,0.83-0.45c0.73-0.84,1.46-1.72,2.18-2.66
								c0.69-0.93,1.29-1.91,1.92-2.94c1.32-2.07,2.27-4.27,3.25-6.68c0.1-0.31,0.2-0.85,0.06-1.2c-0.13-0.35-0.53-0.74-0.78-0.93
								c-1.08-0.7-2.13-1.35-3.2-1.94c-1.12-0.57-2.23-1.09-3.32-1.57c-0.55-0.23-1.07-0.47-1.63-0.67l-1.69-0.55
								c-1.12-0.34-2.19-0.66-3.28-0.9c-0.27-0.03-0.73-0.02-0.96,0.14c-0.23,0.16-0.39,0.58-0.45,0.82
								c-0.21,1.08-0.49,2.15-0.77,3.17c-0.14,0.51-0.29,1-0.45,1.49c-0.17,0.49-0.38,0.99-0.57,1.47c-0.4,0.96-0.81,1.87-1.25,2.74
								c-0.48,0.89-1.02,1.74-1.54,2.53c-0.1,0.2-0.24,0.53-0.17,0.73c0.09,0.19,0.4,0.38,0.59,0.48c1.73,0.68,3.66,1.53,5.32,2.63
								c0.85,0.55,1.76,1.14,2.6,1.79c0.8,0.65,1.61,1.36,2.42,2.11C141.22,104.03,141.6,104.27,141.88,104.27z"/>
						</g>
						<g>
							<path class="st4" d="M141.52,99.84c-0.17,0.02-0.33-0.02-0.46-0.1c-0.63-0.48-1.26-0.94-1.89-1.37
								c-0.59-0.43-0.86-1.18-0.65-1.96c-0.61,0.53-1.44,0.7-2.09,0.37c-0.66-0.35-1.32-0.67-1.97-0.96
								c-0.13-0.07-0.23-0.17-0.28-0.3c-0.05-0.13-0.04-0.27,0.02-0.4c0.36-0.62,0.72-1.28,1.06-1.95c0.35-0.66,1.12-1.01,1.91-0.94
								c-0.56-0.53-0.93-1.23-0.66-1.95c0.27-0.72,0.52-1.47,0.77-2.24c0.06-0.15,0.17-0.27,0.32-0.35c0.15-0.08,0.31-0.1,0.46-0.06
								c0.74,0.26,1.5,0.55,2.26,0.86c0.75,0.31,1.2,1.15,1.09,2.05c0.53-0.65,1.31-0.98,2.04-0.59c0.74,0.4,1.49,0.82,2.24,1.27
								c0.14,0.1,0.26,0.26,0.33,0.45c0.07,0.19,0.07,0.38,0.03,0.54c-0.36,0.81-0.73,1.59-1.11,2.35c-0.38,0.75-1.2,0.94-2,0.72
								c0.55,0.68,0.83,1.59,0.36,2.29c-0.45,0.7-0.91,1.38-1.37,2.04C141.82,99.74,141.68,99.82,141.52,99.84z"/>
						</g>
						<g>
							<path class="st6" d="M141.13,97.41c-0.35,0.07-0.84-0.33-1.01-0.99c-0.1-0.38-0.04-0.78,0.04-1.04l0.09-0.23
								c0.12-0.34,0.12-0.61,0-1.05c-0.09-0.31-0.35-0.41-0.64-0.33c-0.43,0.14-0.64,0.28-0.85,0.55l-0.13,0.19
								c-0.17,0.21-0.49,0.46-0.87,0.57c-0.64,0.19-1.19,0-1.32-0.3c-0.11-0.3,0.22-0.79,0.86-1.01c0.37-0.13,0.77-0.11,1.03-0.04
								l0.23,0.07c0.34,0.1,0.6,0.08,1.03-0.06c0.28-0.1,0.41-0.33,0.3-0.63c-0.16-0.43-0.31-0.65-0.6-0.86l-0.2-0.13
								c-0.22-0.16-0.49-0.46-0.62-0.83c-0.23-0.64-0.15-1.22,0.19-1.37c0.31-0.14,0.92,0.14,1.16,0.82
								c0.14,0.39,0.13,0.81,0.07,1.08l-0.06,0.24c-0.08,0.35-0.06,0.61,0.1,1.05c0.11,0.3,0.36,0.41,0.65,0.33
								c0.43-0.14,0.64-0.28,0.84-0.57l0.13-0.2c0.16-0.22,0.45-0.5,0.82-0.63c0.64-0.23,1.24,0.02,1.38,0.4
								c0.15,0.38-0.2,0.93-0.86,1.12c-0.38,0.11-0.77,0.06-1.03-0.03l-0.23-0.08c-0.34-0.11-0.61-0.1-1.03,0.04
								c-0.29,0.1-0.4,0.33-0.3,0.64c0.12,0.45,0.24,0.68,0.51,0.91l0.19,0.16c0.2,0.19,0.45,0.52,0.55,0.92
								C141.72,96.78,141.48,97.34,141.13,97.41z"/>
						</g>
					</g>
				</g>
			</g>
		</g>
	</g>
	<rect x="86.03" y="90.74" class="st7" width="41.49" height="28.53"/>
	<text transform="matrix(1 0 0 1 86.0349 119.2488)" class="st8 st9 st10">MC</text>
	<path class="st5" d="M105,0C47.01,0,0,47.01,0,105c0,57.99,47.01,105,105,105s105-47.01,105-105C210,47.01,162.99,0,105,0z
		 M105,197.54c-51.11,0-92.54-41.43-92.54-92.54c0-51.11,41.43-92.54,92.54-92.54S197.54,53.9,197.54,105
		C197.54,156.11,156.11,197.54,105,197.54z"/>
	<g>
		<circle class="st0" cx="105" cy="105" r="25.65"/>
	</g>
	<rect x="86.03" y="90.74" class="st7" width="41.49" height="28.53"/>
	<text transform="matrix(1 0 0 1 86.0349 119.2488)" class="st8 st9 st10">MC</text>
</g>
</svg>
