<?xml version="1.0" encoding="utf-8"?>
<!-- Generator: Adobe Illustrator 25.2.0, SVG Export Plug-In . SVG Version: 6.00 Build 0)  -->
<svg version="1.1" id="Layer_1" xmlns="http://www.w3.org/2000/svg" xmlns:xlink="http://www.w3.org/1999/xlink" x="0px" y="0px"
	 viewBox="0 0 331.45 299.54" style="enable-background:new 0 0 331.45 299.54;" xml:space="preserve">
<style type="text/css">
	.st0{opacity:0.7;fill:#FCD6A0;enable-background:new    ;}
	.st1{fill:#FFFFFF;}
	.st2{fill:#582C5B;}
	.st3{fill:#414042;}
</style>
<circle class="st0" cx="166.08" cy="149.77" r="149.77"/>
<path class="st1" d="M22.03,105.37c0.28,0.06,0.04-0.21,0.55-0.25c3.09-0.2,7.28,2.9,7.71,13.52c0.15,3.73-0.5,8.52-1.66,13.27
	c6.76-3.03,13.03-5.32,15.48-6.34c0.77-0.34,2.68,0.76,2.71,1.4c0.04,1,0.07,1.65-1.83,2.07c-5.37,1.21-11.59,3.42-17.28,6.18
	c-2.47,8.51-6.44,16.39-10.31,18.17c-1.13,1.37-3.38,1.52-4.11,1.57c-4,0.26-6.11-3.2-6.17-4.77c-0.26-6.46,9.25-12.49,18.81-17.08
	c1.42-5.34,2.1-10.64,1.98-13.8c-0.23-5.74-2.09-11.23-5.03-11.46c-0.49,0.25-1.14-0.21-1.54-0.33c-1.88-0.53-13.26,10.95-13,17.34
	c0.06,1.44,3.33,4.1,4.81,4.72c0.57,0.25-0.07,1.01-0.63,1.12c-0.45,0.1-1.58,0.18-2.39-0.71c-1.94,0.77-5.47-2.95-5.56-5.1
	c-0.39-9.48,12.62-19.83,16.89-20.11C22.17,104.71,21.75,105.31,22.03,105.37z M24.88,136.69c-6.46,3.45-11.87,7.69-13.79,11.85
	c0.09,2.16,0.4,2.71,1.32,3.37C18.15,151.53,22.32,144.42,24.88,136.69z"/>
<path class="st1" d="M61.15,103.23c0.05,0.96-0.73,3.24-1.31,4.43c-0.58,1.18-1.41,1.29-1.98,2.54c-0.29,0.59-1.77,4.13-3.46,8.7
	c5.08-0.84,10.46-2.21,14.61-3.77c0.77,0.02,1.46,0.95-0.04,1.8c-2.99,1.69-9.55,3.76-15.57,4.91c-1.62,4.7-3.13,10.16-3.66,14.67
	c-0.63,5.22-0.63,8.81,2.12,8.67c2.88-0.15,4.64-1.91,6.23-3.46c0.46,0.3,0.63,1.06,0.28,1.65c-0.65,1.06-2.87,2.78-3.35,3.31
	c-0.48,0.54-3.01,1.18-3.65,1.21c-0.64,0.03-2.91-0.49-3.41-1.49c-0.21-0.44,0.02-0.77-0.11-0.89s-0.25,0.08-0.46-0.23
	s-0.89-2.39-0.79-4.06c-0.46-4.01,1.7-11.69,4.08-18.99c-1.02,0.18-2.04,0.23-2.93,0.28c-3.07,0.16-6.01,0.18-9.34-0.86
	c-2.58-0.25-2.27-2.96-0.41-3.05c1.92-0.1,2.38,1.48,9.61,1.1c1.28-0.07,2.62-0.2,4.08-0.34c1.16-3.52,2.34-6.79,3.29-9.4
	c0.73-2.02,1.33-5.26,1.46-7.64c0.03-0.58,1.29-1.16,1.8-1.18C59.82,101.05,61.1,102.27,61.15,103.23z"/>
<path class="st1" d="M76.04,113.53c2.9-2.14,7.58-10.84,7.44-14.68c-0.1-1.98,0.08-2.12-1.77-2.02c-0.64,0.03-1.16-0.13-1.2-0.84
	c-0.1-1.92,0.8-3.05,2.66-3.15c1.85-0.1,3.91,2.49,4.1,6.26c0.25,4.86-7.53,14.23-11.14,16.28
	C75.51,115.74,75.36,114.02,76.04,113.53z"/>
<path class="st1" d="M89.97,141.15c3-0.16,4.5-1,4.79-1.47c0.36-0.53,0.26-1.1-0.6-1.76c-2.47-1.92-6.36-4.03-9.67-7.25
	c-2.06-0.15-2.68-4.73-1.07-5.78c4.33-2.98,10.45-7.27,14.67-7.49c0.45-0.02,0.9,0.08,1.24,0.38c1,0.78,1.55,2.61,1.58,3.38
	c0.04,0.77-0.26,1.23-0.86,0.81c-2.89-0.17-10.38,3.74-13.02,5.99c-0.45,3.61,7.56,6.15,10.6,9.26c2.16,2.19,1.82,4.2,0.14,5.12
	c-5.17,2.96-14.6,0.18-18.46-2.63c-0.93-0.66-0.18-1.08,0.28-0.78C82.24,140.39,86.9,141.31,89.97,141.15z"/>
<path class="st1" d="M137.19,119.93c0.05,1.02-0.84,2.29-1.23,2.31c-1.21,0.06-1.68-1.51-2.38-1.48
	c-2.05,0.11-8.13,10.16-7.83,15.79c0.06,1.09,0.26,2.61,0.77,2.59c0.51-0.03,1.75-2.08,2.38-2.37c0.38-0.08,3.86-5.84,4.92-9.03
	c-0.06-2.37,0.52-3.49,1.35-3.53c1.34-0.07,3.11,0.61,3.13,0.99c0.03,0.51,0.56,1,0.64,1.25s0.13,1.34,0.22,1.78
	c0.39,2.67,2.09,10.59,6.05,10.39c1.79-0.09,3.04-0.73,3.48-0.82c0.44-0.09,1.05,0.52,1.08,1.16c0.02,0.32-1.4,1.42-4.4,1.57
	c-1.85,0.1-3.47-0.21-4.3-1.32c-2.08-0.66-4.3-5.1-4.77-7.96c-0.09-0.57-0.62-0.74-1.03-0.07c-1.19,1.86-2.56,5.07-4.01,6.68
	c-1.4,2.64-3.44,4.09-5.55,4.2c-2.05,0.11-3.46-1.17-3.64-4.68c-0.3-5.82,5.72-19.39,11.8-19.71
	C135.53,117.58,137.15,119.1,137.19,119.93z"/>
<path class="st1" d="M165.55,105.71c-0.12-2.24,5.92-5.63,15.13-6.1c9.39-0.49,17.65,4.21,18.06,12.2
	c0.34,6.65-3.6,12.17-10.13,16.03c3.76,5.83,12.58,11.46,14.69,11.35c1.02-0.05,1.39-0.33,1.82-0.8c2.96,0.29,3.2,3.55-1.15,3.78
	c-6.52,0.34-17.58-11.52-19.65-14.49c-1.18-1.67-0.19-3.71,2.69-2.51c4.56-1.07,9.4-6.64,9.09-12.58c-0.26-4.99-4.8-8.59-10.88-9.63
	c-2.61,10.2-11.93,27.02-13.33,35.87c-0.28,0.78-1.42,1.1-2.06,1.13c-1.02,0.05-2.08-1.88-1.21-3.59
	c6.74-13.42,11.72-26.05,13.38-33.76c-0.58-0.03-1.22,0-1.86,0.03c-5.24,0.27-10.99,3.13-9.92,6.47
	C168.73,110.22,165.66,107.94,165.55,105.71z"/>
<path class="st1" d="M212.47,113.4c0.34-2.07,3.19-2.73,4.03-1.3c4.01,6.9,10.34,7.92,18.09,5.28c-0.42-1.84-0.79-4.19,0.29-5.53
	c0.54-0.67,5.68,0.86,5.64,2.59c-0.04,1.73-2.46,4.42-2.38,6.08c0.7,3.62,1.45,9.35,4.26,12.92c0.48,0.62,0.99,0.46,1.5-0.65
	c6.23-13.4,11.38-20.33,13.81-20.45c0.89-0.05,1.68,0.23,2.37,2.38c1,0.78,3.4,2.64,3.36,3.03c-0.09,0.77-0.76,1.32-1.72,1.37
	c-0.19,0.01-1.79-1.19-3.05-1.96c-0.79-0.47-1.84-0.8-3.46,1.2c-1.57,1.88-6.81,9.58-8.87,15.58c-0.02,2.12-2.43,2.63-3.83,2.7
	c-3.19,0.17-6.3-6.66-7.29-17.05l-0.01-0.13c-3.14,1.19-6.07,1.66-8.82,1.67c0.36,0.69,0.46,1.39,0.36,2.1
	c-0.34,2-7.37,9.93-10.49,12.65c-2.03,1.71-4.3,2.34-6.31,1.86c-4.48-1.05-4.4-5.8-3.97-8.57c0.46-3.42,3.38-7.74,3.06-14
	C208.98,114.09,211.14,113.6,212.47,113.4z M214.4,117.27c0.03,0.51-0.08,0.97-0.19,1.36c-0.61,1.76-7.1,10.24-4.42,16.12
	c0.94,2.07,3.59,0.07,5.61-1.7c1.16-1.09,5.62-5.42,7.15-9.15c0.4-0.98,0.34-2.07-0.03-3.01
	C219.37,120.35,216.67,119.02,214.4,117.27z"/>
<path class="st1" d="M269.81,110.5c0.41,0.43-0.14,0.97,0.25,1.2c0.93,0.59,1.3,1.66,1.26,3.2c0.27,2.74-3.28,9.65-4.36,14.77
	c-0.52,2.4-0.12,3.85,1.65,3.31c5.61-2.98,13.7-10.26,17.79-15.28c0.82-0.3,1.25,0.64,0.35,1.9c-3.59,4.93-15.77,15.88-18.52,16.08
	c-2.24,1.21-4.64-0.53-4.25-2.79c-1.22-3.72,5.06-18.59,3.22-21.89C268.12,110.07,269.4,110.07,269.81,110.5z M270.99,96.15
	c0-1.22,3.62-1.85,4.26-1.95c0.47,0.42,0.94,0.85,0.96,1.3c0.02,0.45-0.22,3.22-1.04,3.39C273.39,99.29,271.01,97.88,270.99,96.15z"
	/>
<path class="st1" d="M291.98,109.22c0.32,0.05,0.79,1.62,0.69,2.21c-0.1,0.58-0.19,0.01-0.67,0.61c-1.57,4.38-4.67,13.7-4.72,16.52
	c2.72-3.15,9.06-13.22,15.58-18.43c0.55-0.41,1.36-0.97,2.32-1.02c2.17-0.11,2.91,2.93,2.69,6.14c-0.04,0.51-0.58,1.25-0.29,1.81
	c-0.44,2.65-1.7,6.82-1.39,10.2c0.14,1.47,0.98,2.83,2.45,2.76c2.24-0.12,4.25-0.92,7.21-3.13c0.39,0.11,0.56,1,0.01,1.41
	c-2.09,1.65-4.11,3.48-5.9,3.7c-1.63,0.66-3.73,1.03-4.29,0.03c-1.23-0.26-2.46-2.95-2.56-3.58c-0.84-2.65,0.34-7.07,0.85-11.96
	c0.21-2.13-1.06-3.15-2.16-2.19c-6.01,5.18-10.08,13.27-13.69,18.97c-0.41,0.66-3.53,1.21-3.79-0.25c-0.79-0.34-1.11-2.89-0.82-4.64
	c0.94-5.43,3.39-13.76,5.82-18.88C289.99,109.26,291.46,109.18,291.98,109.22z"/>
<path class="st1" d="M317.72,105.07c2.9-2.14,7.58-10.84,7.44-14.68c-0.1-1.98,0.08-2.12-1.77-2.02c-0.64,0.03-1.16-0.13-1.2-0.84
	c-0.1-1.92,0.8-3.05,2.66-3.15c1.85-0.1,3.91,2.49,4.1,6.26c0.25,4.86-7.53,14.23-11.14,16.28
	C317.19,107.28,317.04,105.55,317.72,105.07z"/>
<path class="st1" d="M56.27,163.9c0.15-0.78,1.66-1.43,2.48-1.54c0.83-0.11,2.04,1.05,2.12,2.52c0.11,2.11-0.62,6.57-1.94,8.24
	c-0.21,0.91-3.06,12.78-3.24,17.92c-0.09,2.06,0.55,1.89,1.5,0.5c4.28-6.5,12.81-23.61,13.51-24.99s1.18-1.98,1.62-2.07
	c0.44-0.09,0.68,0.67,1.31,0.51s1.05,0.46,1.15,1.22s0.05,2.18-0.11,2.83c-0.11,5.32-0.95,18.82-0.31,23.66
	c0.62,4.58,1.58,4.47,3.27,2.52c6.47-7.45,11.27-28.65,11.45-30.13c0.02-4.49-0.11-8.32,2.25-8.45c1.53-0.08,3.06,0.93,1.7,3.12
	c-0.53,3.42-0.6,9.45,2.78,15.24c0.42,0.68-0.39,1.17-1.43,0.91c-1.04-0.27-2.52-1.6-3.33-4.89c-0.09-0.44-0.34-0.43-0.62,0.48
	c-2.19,7.29-7.76,25.91-13.86,29.36c-0.05,0.32-0.08,0.84-0.47,0.79c-0.58-0.03-2.8-0.88-3.31-2.01c-0.8-1.82-1.03-3.73-1.31-6.66
	c-0.42-4.46,0.27-13.28,0.44-21.17c0-1.28-0.19-1.27-0.78-0.28c-2.7,4.88-10.09,19.3-12.35,22.68c-0.28,0.72-0.09,0.65-0.26,1.17
	s-2.96,3.49-3.66,3.52s-2.22-2.06-2.51-2.69c-0.07-0.19,0.17-0.39,0.54-0.67c-0.67-7.98,4.8-23.64,3.86-29.42
	C56.62,165.74,56.11,164.68,56.27,163.9z"/>
<path class="st1" d="M124.93,180.53c-3.12,4.13-13,15.09-22.99,16.38c-5.9,2.36-7.56-3.65-7.46-6.79
	c0.18-6.42,4.82-13.32,10.57-17.46c0.99-0.69,1.4-0.2,1.73-0.03c0.33,0.18,0.49-0.41,1-0.44c1.28-0.07,3.57,3.4,3.81,5.57
	c0.12,1.15-0.35,1.94-0.9,2.48c-0.12,0.13,0.1,0.76-0.32,1.3c-2.1,2.86-6.01,6.53-12.03,10.23c0.56,3.3,3.04,3.11,7.94,1.19
	c5.4-2.07,12.33-6.98,17.69-13.6C124.48,179.27,125.83,179.33,124.93,180.53z M98.2,189.09c3.93-2.13,10.87-7.87,10.79-11.84
	c-0.03-0.64-1.94-1.63-2.45-1.6C103.6,175.8,98.69,182.53,98.2,189.09z"/>
<path class="st1" d="M188.33,184.62c-5.28,5.72-13.69,11.54-17.46,11.73c-3,0.16-4.99-2.24-5.37-5.94c-0.36-3.31,0.53-7.14,1-9.22
	c0.41-1.94-0.53-1.51-1.06-0.59c-2,3.44-5.01,8.46-8.42,11.84c-1.09,2.49-3.07,5.03-5.31,5.14c-4.79,0.25-4.11-5.04-3.46-8.73
	c0.25-1.42-0.19-1.21-0.92-0.4c-3.94,4.37-8.33,8.7-11.59,8.87c-2.3,0.12-4.67-2.26-4.74-4.95c-0.43-2.16,0.29-5.59,0.73-8.11
	c0.36-1.75-0.39-1.33-0.93-0.59c-2.33,3.32-2.93,4.12-5.66,7.09c-1.03,2.3-2.53,4.3-4.64,4.41c-4.41,0.23-4.18-3.95-3.52-7.38
	c1.65-7.71,6.98-12.41,10.05-12.57c2.17-0.11,4.03,1.07,5.33,2.61c2.13-3.51,3.69-6.79,5.01-9.61c1.59-3.93,3.77-8.85,5.24-12.7
	c1.03-3.71,2.3-6.33,3.39-6.39c1.34-0.07,2.28,2,1.91,3.55c-1.72,5.09-4.55,9.91-5.73,11.77c-3.84,7.57-8.4,16.07-8.79,24.61
	c-0.15,3.21,1.02,6.03,3.06,5.93c3.13-0.16,9.81-7.3,14.11-13.42c2.09-4.27,4.89-7.11,7.19-7.23c2.37-0.12,6,1.93,6.81,4.07
	c2.3-3.84,4.15-7.78,5.65-10.87c1.74-4.7,5.38-13.73,7.1-13.82c1.41-0.07,2.24,1.23,1.62,2.8c-1.93,4.71-4.3,8.62-5.53,10.67
	c-3.31,7.8-4.58,11.77-5.26,18.47c-0.68,6.76,1.4,8.51,4.81,7.57c4.04-1.11,9.17-4.9,14.91-10.32
	C188.62,182.87,189.18,183.74,188.33,184.62z M129.44,182.22c0.83-1.26,0.56-1.63,0.08-2.18c-0.68-0.73-1.41-1.27-2.75-1.2
	c-1.92,0.1-5.64,3.69-7.05,9.85c-0.88,4.08,0.43,4.53,3.82,0.76C125.71,187.02,127.77,184.68,129.44,182.22z M162,182.45
	c0.65-1.06,0.55-1.82,0.06-2.57c-0.77-1.18-2.23-2.19-3.76-2.11c-2.24,0.12-5.52,4.77-7.07,11.96c-1.03,4.8-0.29,6.74,4.13,1.84
	C157.85,188.82,160.1,185.24,162,182.45z"/>
<path class="st1" d="M192.31,168.58c0.41,0.43-0.14,0.97,0.25,1.2c0.93,0.59,1.3,1.66,1.26,3.2c0.27,2.74-3.28,9.65-4.36,14.77
	c-0.52,2.4-0.12,3.85,1.65,3.31c5.61-2.98,13.7-10.26,17.79-15.28c0.82-0.3,1.25,0.64,0.35,1.9c-3.59,4.93-15.77,15.88-18.52,16.08
	c-2.24,1.21-4.64-0.53-4.25-2.79c-1.22-3.72,5.06-18.59,3.22-21.89C190.62,168.16,191.9,168.15,192.31,168.58z M193.49,154.23
	c0-1.22,3.62-1.85,4.26-1.95c0.47,0.42,0.94,0.85,0.96,1.3s-0.22,3.21-1.04,3.39C195.89,157.37,193.51,155.96,193.49,154.23z"/>
<path class="st1" d="M214.48,167.31c0.32,0.05,0.79,1.63,0.69,2.21c-0.1,0.58-0.19,0.01-0.67,0.61c-1.41,3.79-5.62,15.22-4.72,16.52
	c2.72-3.15,8.73-13.4,15.58-18.43c0.55-0.41,1.19-0.57,2.14-0.82c2.4-0.64,3.27,2.52,1.81,6.44c-0.17,0.46-0.93,0.69-0.64,1.25
	c-0.44,2.65-2.25,7.29-1.95,10.67c0.14,1.47,0.68,2.02,1.99,1.37c4.81-2.43,12.18-9.86,16.09-14.74c0.39,0.11,1.08,1.03,0.66,1.57
	c-4.55,6.19-11.93,13.43-16.35,15.84c-3.68,1.98-5.99,0.57-6.26-2.05c-0.11-0.89,0.42-0.6,0.32-1.23c-0.84-2.65,2.44-9.8,3.02-14.7
	c0.08-0.9-0.54-0.61-1.41,0.01c-6.49,4.57-10.78,13.31-14.18,19.51c-0.35,0.66-3.53,1.21-3.79-0.25c-0.79-0.34-1.11-2.89-0.82-4.64
	c0.94-5.43,3.39-13.76,5.82-18.88C212.49,167.35,213.96,167.27,214.48,167.31z"/>
<path class="st1" d="M240.89,213.23c2.78,0.5,6.04,0.33,9.12-3.36c6.39-7.7,8.39-24.85,8.54-36.78c0.02-2.05-0.49-1.96-1.36-0.19
	c-2.32,4.73-3.54,8.45-7.82,13.54c-0.73,0.68-0.89,0.11-1.5,0.78c-2.74,2.77-7.17,0.12-7.38-3.91c-0.44-8.5,7.87-15.15,13.73-16.92
	c1.23-1.02,3.01-2.46,4.11-2.33c0.26,0.05,0.45,0.1,0.65,0.22c0.55-0.48,1.18-0.64,1.5-0.65c1.34-0.07,1.62,1.65,1.59,3.44
	c-0.32,17.32-2.15,33.95-9.73,43.57c-3.49,4.41-8.93,5.78-11.97,4.02c-1.19-0.71-0.24,0.33-1.74-0.17
	c-2.87-1.01-9.81-3.91-11.16-8.84C228.3,205.23,230.54,211.46,240.89,213.23z M243.92,183.98c0.02,1.54,1.89,1.76,3.5-0.44
	c2.64-2.19,5.21-7,7.57-12.12c0.58-1.25,0.23-1.68-0.72-1.5c-1.08,0.18-2.17,0.18-3,0.16C247.09,173.31,243.86,179.11,243.92,183.98
	z"/>
<path class="st1" d="M277.68,188.64c-1.21,0.19-3.38-0.85-3.56-1.87c-0.09-0.57-0.91-2.77,1.05-3.26c2.09-0.49,3.2-0.04,4.2,0.62
	C280.04,187.11,278.89,188.45,277.68,188.64z M279.73,171.3c-0.13,1.29-2.27,0.63-2.64-0.31c0.98-8.25,5.03-19.16,7.03-26.38
	c0.42-0.6,0.99-0.76,1.44-0.65c2.29-0.31,3.96,0.95,2.33,3.02C286,151.36,280.66,163.37,279.73,171.3z"/>
<g>
	<path class="st2" d="M119.04,226.03v6.88h-1.53v-9.7h1.55l3.35,5.34l3.21-5.34h1.53v9.7h-1.53v-6.85l-3.11,5.1h-0.25L119.04,226.03
		z"/>
	<path class="st2" d="M135.34,231.07h-4.56l-0.7,1.83h-1.59l3.84-9.7h1.52l3.82,9.7h-1.63L135.34,231.07z M134.84,229.8l-1.78-4.65
		l-1.79,4.65H134.84z"/>
	<path class="st2" d="M139.77,224.57h-2.04v-1.37h5.6v1.37h-2.03v8.33h-1.53L139.77,224.57L139.77,224.57z"/>
	<path class="st2" d="M146.26,224.57h-2.04v-1.37h5.6v1.37h-2.03v8.33h-1.53L146.26,224.57L146.26,224.57z"/>
	<path class="st2" d="M160.45,231.97c-0.83,0.74-1.83,1.26-3.25,1.25c-1.9-0.01-3.18-1.07-3.18-2.63c0-1.47,1.05-2.24,2.51-3.11
		c-0.78-0.88-1.33-1.44-1.33-2.33c0-1.31,1.25-2.26,2.76-2.26c1.73,0,2.76,0.98,2.76,2.15c0,1.07-0.82,1.73-1.94,2.44
		c-0.1,0.06-0.21,0.13-0.31,0.18c0.58,0.66,1.31,1.48,2.01,2.28c0.39-0.47,0.77-0.96,1.14-1.46l0.95,0.97
		c-0.4,0.51-0.78,1.03-1.18,1.51c0.78,0.88,1.44,1.63,1.69,1.91v0.03h-1.79C161.13,232.73,160.83,232.4,160.45,231.97z
		 M157.36,231.9c0.81,0,1.52-0.39,2.18-0.97c-0.81-0.91-1.68-1.91-2.24-2.56c-1.03,0.65-1.62,1.18-1.62,2.08
		C155.68,231.24,156.5,231.89,157.36,231.9z M157.67,226.78c0.04-0.01,0.06-0.04,0.09-0.05c0.94-0.6,1.46-1,1.46-1.64
		c0-0.51-0.4-1.07-1.26-1.07c-0.7,0-1.21,0.51-1.21,1.14S157.1,226.14,157.67,226.78z"/>
	<path class="st2" d="M174.73,224.91c-0.62-0.4-1.35-0.61-2.13-0.61c-2.15,0-3.84,1.75-3.84,3.73c0,2.03,1.69,3.78,3.84,3.78
		c0.78,0,1.51-0.22,2.13-0.61v1.52c-0.66,0.32-1.42,0.49-2.21,0.49c-3,0-5.31-2.31-5.31-5.17c0-2.85,2.3-5.15,5.31-5.15
		c0.79,0,1.53,0.17,2.21,0.49V224.91z"/>
	<path class="st2" d="M176.49,223.2h1.53v3.85h4.22v-3.85h1.53v9.7h-1.53v-4.49h-4.22v4.49h-1.53V223.2z"/>
	<path class="st2" d="M191.96,231.07h-4.56l-0.7,1.83h-1.59l3.83-9.7h1.52l3.82,9.7h-1.62L191.96,231.07z M191.47,229.8l-1.78-4.65
		l-1.79,4.65H191.47z"/>
	<path class="st2" d="M197.18,229.41L197.18,229.41l-0.01,3.5h-1.53v-9.7h2.24c2.31,0,3.85,1.05,3.85,3.02
		c0,1.62-1.2,2.67-2.73,3.03l3.02,3.65h-1.88L197.18,229.41z M197.16,224.63v3.39H198c1.27,0,2.17-0.74,2.17-1.81
		c0-0.87-0.62-1.59-2.17-1.59L197.16,224.63L197.16,224.63z"/>
	<path class="st2" d="M205.09,223.2v8.32h3.46v1.38h-4.99v-9.7H205.09z"/>
	<path class="st2" d="M216.23,231.07h-4.56l-0.7,1.83h-1.59l3.83-9.7h1.52l3.82,9.7h-1.62L216.23,231.07z M215.74,229.8l-1.78-4.65
		l-1.79,4.65H215.74z"/>
	<path class="st2" d="M136.73,253.9h-6.27l-0.07-0.17c0.43-0.53,3.33-3.9,3.78-4.47c0.85-1.03,1.17-1.6,1.17-2.39
		c0-0.91-0.75-1.74-1.89-1.75c-0.73,0-1.44,0.22-2.22,0.9v-1.47c0.72-0.44,1.53-0.65,2.37-0.65c1.92,0.01,3.24,1.31,3.24,2.91
		c0.01,1.2-0.55,1.94-1.55,3.13c-0.35,0.43-1.53,1.75-2.44,2.74h4.38L136.73,253.9z"/>
	<path class="st2" d="M145.78,248.73v0.68c0,3.17-1.48,4.81-3.5,4.81c-1.99,0-3.48-1.64-3.48-4.81v-0.68c0-3.21,1.5-4.84,3.48-4.84
		C144.3,243.89,145.78,245.52,145.78,248.73z M144.34,248.73c0-2.46-0.83-3.6-2.05-3.6c-1.17,0-2.05,1.14-2.05,3.6v0.68
		c0,2.44,0.88,3.58,2.05,3.58c1.21,0,2.05-1.13,2.05-3.58V248.73z"/>
	<path class="st2" d="M153.32,253.9h-6.27l-0.06-0.17c0.43-0.53,3.33-3.9,3.78-4.47c0.85-1.03,1.17-1.6,1.17-2.39
		c0-0.91-0.75-1.74-1.89-1.75c-0.73,0-1.44,0.22-2.22,0.9v-1.47c0.71-0.44,1.53-0.65,2.37-0.65c1.92,0.01,3.24,1.31,3.24,2.91
		c0.01,1.2-0.55,1.94-1.55,3.13c-0.35,0.43-1.53,1.75-2.44,2.74h4.38L153.32,253.9z"/>
	<path class="st2" d="M158.62,253.9h-1.43v-7.55l-1.87,1.92v-1.85l2.18-2.22h1.12V253.9z"/>
	<path class="st2" d="M166.76,250.01l-0.74,1.52l-0.66-0.05l-0.29-1.84l-1.68-0.24l-0.14-0.62l1.67-0.86l-0.3-1.68l0.56-0.3
		l1.31,1.3l1.51-0.8l0.48,0.43l-0.85,1.67l1.25,1.18l-0.27,0.59L166.76,250.01z"/>
	<path class="st2" d="M179.71,253.9h-6.27l-0.07-0.17c0.43-0.53,3.33-3.9,3.78-4.47c0.84-1.03,1.17-1.6,1.17-2.39
		c0-0.91-0.75-1.74-1.88-1.75c-0.73,0-1.44,0.22-2.22,0.9v-1.47c0.71-0.44,1.53-0.65,2.37-0.65c1.92,0.01,3.24,1.31,3.24,2.91
		c0.01,1.2-0.55,1.94-1.55,3.13c-0.35,0.43-1.53,1.75-2.44,2.74h4.38L179.71,253.9z"/>
	<path class="st2" d="M188.76,248.73v0.68c0,3.17-1.48,4.81-3.5,4.81c-1.99,0-3.48-1.64-3.48-4.81v-0.68c0-3.21,1.5-4.84,3.48-4.84
		C187.28,243.89,188.76,245.52,188.76,248.73z M187.32,248.73c0-2.46-0.83-3.6-2.05-3.6c-1.17,0-2.05,1.14-2.05,3.6v0.68
		c0,2.44,0.88,3.58,2.05,3.58c1.21,0,2.05-1.13,2.05-3.58V248.73z"/>
	<path class="st2" d="M196.3,253.9h-6.27l-0.07-0.17c0.43-0.53,3.33-3.9,3.78-4.47c0.84-1.03,1.17-1.6,1.17-2.39
		c0-0.91-0.75-1.74-1.88-1.75c-0.73,0-1.44,0.22-2.22,0.9v-1.47c0.71-0.44,1.53-0.65,2.37-0.65c1.92,0.01,3.24,1.31,3.24,2.91
		c0.01,1.2-0.55,1.94-1.55,3.13c-0.35,0.43-1.53,1.75-2.44,2.74h4.38L196.3,253.9z"/>
	<path class="st2" d="M204.41,253.9h-6.27l-0.07-0.17c0.43-0.53,3.33-3.9,3.78-4.47c0.84-1.03,1.17-1.6,1.17-2.39
		c0-0.91-0.75-1.74-1.88-1.75c-0.73,0-1.44,0.22-2.22,0.9v-1.47c0.71-0.44,1.53-0.65,2.37-0.65c1.92,0.01,3.24,1.31,3.24,2.91
		c0.01,1.2-0.55,1.94-1.55,3.13c-0.35,0.43-1.53,1.75-2.44,2.74h4.38L204.41,253.9z"/>
</g>
<g>
	<path class="st3" d="M157.44,55.24c1.47-1.5,3.07-2.79,4.71-4.1c0.03-0.03-0.01-0.08-0.05-0.06c-1.74,1.13-3.31,2.6-4.71,4.11
		C157.36,55.22,157.41,55.27,157.44,55.24L157.44,55.24z"/>
	<path class="st3" d="M157.5,53.43c1.13-0.66,2.21-1.43,3.14-2.35c0.05-0.05-0.03-0.13-0.08-0.08c-0.99,0.85-2,1.65-3.1,2.37
		C157.43,53.4,157.46,53.46,157.5,53.43L157.5,53.43z"/>
	<path class="st3" d="M156.41,52.88c1-0.7,2.04-1.42,2.91-2.27c0.03-0.03-0.01-0.09-0.05-0.06c-0.98,0.74-1.9,1.56-2.88,2.3
		C156.37,52.86,156.39,52.89,156.41,52.88L156.41,52.88z"/>
	<path class="st3" d="M155.46,52.5c0.69-0.43,1.37-0.92,1.92-1.53c0.05-0.05-0.02-0.12-0.08-0.08c-0.62,0.53-1.22,1.06-1.89,1.52
		C155.35,52.45,155.4,52.53,155.46,52.5L155.46,52.5z"/>
	<path class="st3" d="M153.61,52.26c0.5-0.31,1-0.62,1.44-1.01c0.03-0.03-0.01-0.08-0.05-0.06c-0.49,0.32-0.95,0.68-1.43,1.01
		C153.54,52.22,153.57,52.28,153.61,52.26L153.61,52.26z"/>
	<path class="st3" d="M152.86,51.8c0.27-0.12,0.51-0.29,0.71-0.5c0.04-0.04-0.03-0.11-0.07-0.07c-0.2,0.21-0.43,0.37-0.69,0.48
		C152.76,51.74,152.81,51.82,152.86,51.8L152.86,51.8z"/>
	<path class="st3" d="M151.81,51.64c0.11-0.11,0.22-0.21,0.35-0.3c0.12-0.08,0.25-0.14,0.37-0.22c0.05-0.04,0.02-0.12-0.04-0.1
		c-0.29,0.06-0.57,0.31-0.76,0.53C151.67,51.61,151.75,51.7,151.81,51.64L151.81,51.64z"/>
	<path class="st3" d="M150.4,51.62c0.1-0.18,0.25-0.3,0.42-0.4c0.03-0.02,0.01-0.07-0.02-0.06c-0.2,0.08-0.35,0.24-0.44,0.43
		C150.34,51.63,150.38,51.65,150.4,51.62L150.4,51.62z"/>
	<path class="st3" d="M166.79,53.02c0.05,1.36,0.09,2.73,0.13,4.09c0.03,1.36-0.04,2.75,0.09,4.1c0.01,0.08,0.11,0.08,0.12,0
		c0.12-1.35,0-2.75-0.05-4.1c-0.05-1.37-0.12-2.73-0.22-4.09C166.85,52.97,166.79,52.97,166.79,53.02L166.79,53.02z"/>
	<path class="st3" d="M167.64,53.79c0.03,0.97,0.1,1.93,0.13,2.9s-0.01,1.94,0.07,2.91c0.01,0.08,0.12,0.08,0.13,0
		c0.17-1.89-0.01-3.95-0.27-5.82C167.69,53.74,167.64,53.75,167.64,53.79L167.64,53.79z"/>
	<path class="st3" d="M168.52,54.69c0.01,1.39-0.03,2.82,0.12,4.2c0.01,0.07,0.11,0.08,0.12,0c0.07-1.39-0.07-2.81-0.14-4.2
		C168.61,54.64,168.52,54.64,168.52,54.69L168.52,54.69z"/>
	<path class="st3" d="M169.26,55.83c0.13,0.91,0.09,1.8,0.12,2.72c0,0.05,0.08,0.06,0.09,0.01c0.13-0.9,0.02-1.86-0.12-2.76
		C169.34,55.75,169.25,55.77,169.26,55.83L169.26,55.83z"/>
	<path class="st3" d="M170.02,56.52c-0.04,0.72-0.08,1.47,0.03,2.19c0.01,0.05,0.09,0.04,0.09-0.01c0.01-0.72-0.05-1.45-0.03-2.17
		C170.12,56.45,170.03,56.45,170.02,56.52L170.02,56.52z"/>
	<path class="st3" d="M170.7,57.36c0,0.44-0.06,0.91,0.02,1.34c0.01,0.05,0.09,0.05,0.09,0c0.08-0.43,0.02-0.91,0.02-1.34
		C170.83,57.27,170.7,57.27,170.7,57.36L170.7,57.36z"/>
	<path class="st3" d="M171.27,57.51c0.07,0.35,0.07,0.68,0.07,1.03c0,0.06,0.09,0.08,0.11,0.01c0.06-0.36,0.02-0.73-0.05-1.08
		C171.38,57.4,171.25,57.43,171.27,57.51L171.27,57.51z"/>
	<path class="st3" d="M168.94,50.71c0.65,0.84,1.39,1.62,2.11,2.41c0.71,0.79,1.4,1.62,2.17,2.34c0.07,0.07,0.16-0.03,0.1-0.1
		c-0.66-0.84-1.42-1.59-2.15-2.37c-0.72-0.78-1.43-1.58-2.21-2.3C168.95,50.66,168.93,50.68,168.94,50.71L168.94,50.71z"/>
	<path class="st3" d="M169.77,50.5c0.62,0.27,1.12,1.16,1.55,1.67c0.48,0.56,0.94,1.17,1.5,1.66c0.04,0.04,0.12-0.01,0.08-0.06
		c-0.47-0.68-1.08-1.28-1.63-1.9c-0.42-0.46-0.87-1.2-1.48-1.42C169.76,50.44,169.74,50.49,169.77,50.5L169.77,50.5z"/>
	<path class="st3" d="M171.07,50.54c0.77,0.75,1.41,1.58,2.06,2.43c0.04,0.05,0.13-0.02,0.09-0.07c-0.56-0.9-1.31-1.7-2.09-2.43
		C171.1,50.43,171.03,50.49,171.07,50.54L171.07,50.54z"/>
	<path class="st3" d="M172.19,50.73c0.47,0.83,1.09,1.74,1.89,2.29c0.07,0.05,0.15-0.06,0.09-0.12c-0.68-0.73-1.36-1.36-1.89-2.22
		C172.25,50.62,172.16,50.67,172.19,50.73L172.19,50.73z"/>
	<path class="st3" d="M173.53,50.95c0.31,0.31,0.61,0.62,0.91,0.93c0.27,0.28,0.53,0.6,0.85,0.82c0.04,0.03,0.09-0.03,0.07-0.07
		c-0.22-0.32-0.55-0.58-0.82-0.85c-0.31-0.3-0.62-0.61-0.93-0.91C173.56,50.83,173.48,50.9,173.53,50.95L173.53,50.95z"/>
	<path class="st3" d="M174.85,51.01c0.22,0.32,0.47,0.62,0.76,0.88c0.25,0.23,0.56,0.52,0.89,0.62c0.06,0.02,0.12-0.07,0.07-0.12
		c-0.26-0.23-0.58-0.39-0.85-0.61c-0.29-0.25-0.54-0.53-0.77-0.83C174.9,50.9,174.8,50.95,174.85,51.01L174.85,51.01z"/>
	<path class="st3" d="M176.41,51c0.47,0.41,0.94,0.85,1.43,1.24c0.06,0.05,0.16-0.03,0.09-0.09c-0.46-0.43-0.96-0.81-1.45-1.22
		C176.44,50.89,176.36,50.96,176.41,51L176.41,51z"/>
	<path class="st3" d="M178.14,50.97c0.16,0.15,0.31,0.3,0.47,0.45c0.14,0.13,0.28,0.32,0.45,0.4c0.05,0.03,0.12-0.03,0.09-0.09
		c-0.09-0.17-0.28-0.3-0.42-0.43c-0.16-0.15-0.32-0.3-0.48-0.45C178.17,50.8,178.07,50.9,178.14,50.97L178.14,50.97z"/>
	<path class="st3" d="M179.18,50.91c0.27,0.3,0.53,0.65,0.85,0.9c0.05,0.04,0.15-0.01,0.1-0.08c-0.23-0.34-0.56-0.63-0.84-0.93
		C179.22,50.72,179.11,50.83,179.18,50.91L179.18,50.91z"/>
	<path class="st3" d="M180.3,50.81c0.2,0.28,0.43,0.54,0.71,0.74c0.06,0.04,0.14-0.06,0.08-0.11c-0.25-0.22-0.48-0.44-0.67-0.71
		C180.37,50.65,180.24,50.73,180.3,50.81L180.3,50.81z"/>
	<path class="st3" d="M172.8,46.19c-0.93,0.77-1.98,1.53-2.8,2.43c-0.03,0.04,0.01,0.1,0.05,0.07c1.01-0.68,1.91-1.62,2.81-2.44
		C172.9,46.21,172.84,46.15,172.8,46.19L172.8,46.19z"/>
	<path class="st3" d="M173.32,46.62c-0.49,0.49-0.99,0.98-1.45,1.49c-0.04,0.04,0.02,0.1,0.06,0.06c0.5-0.48,0.97-0.99,1.45-1.49
		C173.42,46.64,173.36,46.59,173.32,46.62L173.32,46.62z"/>
	<path class="st3" d="M173.98,46.9c-0.38,0.37-0.79,0.73-1.14,1.14c-0.04,0.05,0.02,0.11,0.07,0.07c0.4-0.35,0.76-0.76,1.14-1.14
		C174.09,46.93,174.02,46.86,173.98,46.9L173.98,46.9z"/>
	<path class="st3" d="M174.94,47.29c-0.16,0.14-0.32,0.28-0.48,0.42c-0.16,0.14-0.33,0.27-0.47,0.43c-0.02,0.03,0.01,0.08,0.05,0.06
		c0.17-0.11,0.32-0.26,0.47-0.4c0.17-0.15,0.34-0.3,0.5-0.45C175.06,47.32,174.99,47.25,174.94,47.29L174.94,47.29z"/>
	<path class="st3" d="M175.99,47.49c-0.32,0.25-0.65,0.49-0.95,0.76c-0.03,0.03,0.01,0.08,0.05,0.06c0.33-0.23,0.65-0.5,0.97-0.75
		C176.09,47.51,176.03,47.45,175.99,47.49L175.99,47.49z"/>
	<path class="st3" d="M188.19,52.38c2.22-0.57,4.49-1.12,6.65-1.89c0.06-0.02,0.04-0.11-0.03-0.09c-2.23,0.5-4.45,1.25-6.63,1.95
		C188.17,52.36,188.17,52.39,188.19,52.38L188.19,52.38z"/>
	<path class="st3" d="M189.87,51.35c0.77-0.14,1.52-0.35,2.25-0.64c0.06-0.02,0.04-0.12-0.03-0.1c-0.74,0.25-1.48,0.48-2.23,0.68
		C189.82,51.31,189.83,51.36,189.87,51.35L189.87,51.35z"/>
	<path class="st3" d="M190.14,50.59c0.23-0.08,0.46-0.16,0.67-0.27c0.04-0.02,0.01-0.1-0.03-0.08c-0.23,0.08-0.44,0.19-0.65,0.3
		C190.1,50.56,190.12,50.6,190.14,50.59L190.14,50.59z"/>
	<path class="st3" d="M190.68,48.48c0.62,0.14,1.24,0.28,1.86,0.38c0.07,0.01,0.1-0.1,0.03-0.11c-0.62-0.14-1.25-0.25-1.87-0.35
		C190.66,48.39,190.63,48.47,190.68,48.48L190.68,48.48z"/>
	<path class="st3" d="M174.42,56.21c1.65-0.51,3.36-0.98,4.98-1.59c0.05-0.02,0.03-0.1-0.02-0.09c-1.69,0.35-3.37,0.98-4.97,1.62
		C174.37,56.17,174.38,56.22,174.42,56.21L174.42,56.21z"/>
	<path class="st3" d="M171.43,60.01c-0.55,1.79-1.11,3.61-1.47,5.44c-0.02,0.08,0.1,0.12,0.13,0.04c0.57-1.78,0.98-3.64,1.41-5.46
		C171.51,59.98,171.44,59.96,171.43,60.01L171.43,60.01z"/>
	<path class="st3" d="M149.23,54.22c1.13,0.39,2.28,0.73,3.43,1.08c1.14,0.34,2.29,0.76,3.45,1c0.09,0.02,0.12-0.1,0.04-0.14
		c-1.11-0.43-2.3-0.7-3.44-1.04c-1.15-0.33-2.3-0.66-3.46-0.95C149.22,54.17,149.2,54.21,149.23,54.22L149.23,54.22z"/>
	<path class="st3" d="M135.42,50.45c1.01,0.31,2.03,0.6,3.07,0.82c0.05,0.01,0.08-0.07,0.02-0.08c-1.01-0.31-2.05-0.55-3.08-0.78
		C135.41,50.4,135.4,50.44,135.42,50.45L135.42,50.45z"/>
	<path class="st3" d="M161.07,65.39c0.48,2.02,0.94,4.05,1.48,6.06c0.02,0.06,0.11,0.04,0.09-0.03c-0.47-2.02-1.01-4.03-1.53-6.04
		C161.11,65.35,161.06,65.36,161.07,65.39L161.07,65.39z"/>
	<path class="st3" d="M168.57,71.49c-0.16,0.6-1.85,7.22-1.89,7.21c0.05,0.01,0.09-0.06,0.04-0.09c-0.01-0.01-0.02-0.01-0.03-0.02
		c-0.02-0.01-0.06-0.01-0.07,0.02c-0.01,0.02-0.02,0.03-0.03,0.05c-0.01,0.02-0.01,0.04,0,0.06c0.01,0.01,0.02,0.03,0.03,0.04
		c0.02,0.03,0.06,0.04,0.1,0.03c0.31-0.14,0.31-0.7,0.39-0.99c0.18-0.7,0.35-1.4,0.53-2.1c0.35-1.4,0.69-2.8,1.03-4.2
		C168.66,71.46,168.59,71.44,168.57,71.49L168.57,71.49z"/>
	<path class="st3" d="M167.38,73.35c-0.3,1.22-0.71,2.47-0.88,3.72c-0.01,0.09,0.1,0.12,0.13,0.04c0.38-1.2,0.56-2.51,0.81-3.74
		C167.46,73.33,167.39,73.31,167.38,73.35L167.38,73.35z"/>
	<path class="st3" d="M166.85,73.28c-0.09,0.38-0.18,0.75-0.25,1.13c-0.01,0.07,0.09,0.1,0.11,0.03c0.09-0.37,0.15-0.76,0.22-1.14
		C166.94,73.25,166.86,73.22,166.85,73.28L166.85,73.28z"/>
	<path class="st3" d="M168.06,38.3c0.03,2.18-0.1,4.44,0.16,6.6c0.01,0.06,0.1,0.07,0.1,0c0.14-2.17-0.11-4.42-0.19-6.6
		C168.12,38.26,168.06,38.25,168.06,38.3L168.06,38.3z"/>
	<path class="st3" d="M168.93,40.91c0.06,0.94,0,1.89,0.07,2.83c0.01,0.07,0.11,0.07,0.11,0c0.11-0.92,0-1.9-0.08-2.83
		C169.03,40.84,168.93,40.84,168.93,40.91L168.93,40.91z"/>
	<path class="st3" d="M169.65,40.76c0.02,0.72-0.01,1.46,0.09,2.17c0.01,0.07,0.11,0.08,0.11,0c0.04-0.72-0.06-1.46-0.09-2.17
		C169.75,40.69,169.65,40.69,169.65,40.76L169.65,40.76z"/>
	<path class="st3" d="M170.46,40.91c0,0.43-0.02,0.87,0,1.31c0,0.07,0.1,0.07,0.11,0c0.02-0.43,0-0.87,0-1.31
		C170.56,40.84,170.46,40.84,170.46,40.91L170.46,40.91z"/>
	<path class="st3" d="M171.16,41.13c0.03,0.27,0.04,0.55,0.11,0.81c0.02,0.06,0.11,0.05,0.11-0.02c0.01-0.26-0.04-0.53-0.07-0.8
		C171.29,41.03,171.15,41.03,171.16,41.13L171.16,41.13z"/>
	<path class="st3" d="M164.08,38.88c0.04,2.07-0.08,4.17,0.05,6.24c0.01,0.09,0.14,0.09,0.14,0c0.15-2.05-0.03-4.18-0.12-6.24
		C164.15,38.83,164.08,38.83,164.08,38.88L164.08,38.88z"/>
	<path class="st3" d="M163.37,42.29c-0.02,0.75-0.07,1.5-0.03,2.25c0,0.08,0.12,0.08,0.12,0c0.04-0.75-0.01-1.5-0.03-2.25
		C163.43,42.25,163.37,42.25,163.37,42.29L163.37,42.29z"/>
	<path class="st3" d="M154.47,48.25c2.65,0.04,5.29,0.1,7.94,0.14c0.04,0,0.04-0.05,0-0.06c-2.63-0.24-5.31-0.26-7.94-0.11
		C154.45,48.23,154.45,48.25,154.47,48.25L154.47,48.25z"/>
	<path class="st3" d="M158.3,47.6c0.95,0.08,1.94,0.1,2.89,0.03c0.06,0,0.06-0.09,0-0.1c-0.95-0.07-1.94-0.06-2.89,0.03
		C158.27,47.56,158.27,47.6,158.3,47.6L158.3,47.6z"/>
	<path class="st3" d="M159.33,46.86c0.28-0.03,0.57-0.03,0.85-0.11c0.03-0.01,0.03-0.06-0.01-0.06c-0.28,0-0.57,0.08-0.84,0.13
		C159.3,46.83,159.31,46.87,159.33,46.86L159.33,46.86z"/>
	<path class="st3" d="M172.15,72.57c-1.05,0.22-2.09,0.39-3.15,0.54c-0.06,0.01-0.05,0.11,0.01,0.11c1.05-0.05,2.15-0.27,3.15-0.61
		C172.18,72.6,172.18,72.56,172.15,72.57L172.15,72.57z"/>
	<path class="st3" d="M188.96,55.75c0.46-0.71,0.68-1.82,0.69-2.66c0-0.05-0.07-0.06-0.09-0.01c-0.11,0.44-0.18,0.89-0.28,1.34
		c-0.11,0.44-0.29,0.87-0.35,1.32C188.93,55.75,188.95,55.76,188.96,55.75L188.96,55.75z"/>
	<path class="st3" d="M188.77,54.49c0.13-0.42,0.24-0.9,0.18-1.35c-0.01-0.05-0.08-0.03-0.09,0.01c-0.05,0.44-0.04,0.88-0.14,1.32
		C188.71,54.51,188.76,54.52,188.77,54.49L188.77,54.49z"/>
	<path class="st3" d="M188.52,44.55c0.11,0.39,0.13,0.78,0.18,1.18c0.01,0.08,0.13,0.09,0.13,0c0.02-0.41-0.11-0.82-0.25-1.2
		C188.56,44.5,188.51,44.52,188.52,44.55L188.52,44.55z"/>
	<path class="st3" d="M188.73,43.29c0.38,1,0.56,1.94,0.67,3c0.01,0.09,0.14,0.09,0.14,0c0.02-1.03-0.28-2.12-0.75-3.03
		C188.77,43.24,188.72,43.26,188.73,43.29L188.73,43.29z"/>
	<path class="st3" d="M183.99,33.94c-0.28-0.59-0.7-1.09-1.24-1.45c-0.05-0.03-0.1,0.05-0.05,0.08c0.52,0.37,0.94,0.84,1.24,1.4
		C183.95,34,184.01,33.97,183.99,33.94L183.99,33.94z"/>
	<path class="st3" d="M181.44,31.41c0.18,0.14,0.36,0.28,0.52,0.43c0.15,0.14,0.29,0.31,0.46,0.42c0.03,0.02,0.08-0.01,0.06-0.05
		c-0.08-0.2-0.26-0.35-0.41-0.48c-0.17-0.15-0.36-0.3-0.57-0.41C181.46,31.28,181.39,31.37,181.44,31.41L181.44,31.41z"/>
	<path class="st3" d="M171.12,25.81c-0.75-0.18-1.55-0.45-2.32-0.51c-0.05,0-0.06,0.07-0.01,0.09c0.73,0.25,1.56,0.32,2.32,0.45
		C171.13,25.85,171.14,25.82,171.12,25.81L171.12,25.81z"/>
	<path class="st3" d="M170.35,26.02c-0.18-0.06-0.37-0.08-0.55-0.1c-0.21-0.03-0.43-0.08-0.64-0.05c-0.06,0.01-0.07,0.08-0.01,0.1
		c0.18,0.06,0.38,0.06,0.56,0.07c0.21,0.01,0.43,0.04,0.64,0.01C170.36,26.05,170.37,26.03,170.35,26.02L170.35,26.02z"/>
	<path class="st3" d="M159.45,26.22c0.78-0.17,1.55-0.47,2.36-0.47c0.05,0,0.06-0.08,0.01-0.08c-0.78-0.12-1.65,0.28-2.37,0.53
		C159.43,26.2,159.43,26.22,159.45,26.22L159.45,26.22z"/>
	<path class="st3" d="M160.55,26.57c0.15-0.07,0.31-0.12,0.47-0.15c0.14-0.03,0.29-0.02,0.44-0.05c0.03-0.01,0.03-0.06,0-0.07
		c-0.31-0.07-0.67,0.07-0.93,0.23C160.5,26.54,160.53,26.58,160.55,26.57L160.55,26.57z"/>
	<path class="st3" d="M149.6,30.99c-0.28,0.13-0.52,0.35-0.75,0.55c-0.26,0.22-0.53,0.44-0.74,0.71c-0.05,0.06,0.02,0.14,0.09,0.09
		c0.25-0.2,0.47-0.44,0.71-0.66c0.24-0.21,0.51-0.41,0.71-0.65C149.64,31.01,149.62,30.98,149.6,30.99L149.6,30.99z"/>
	<path class="st3" d="M149.59,31.56c-0.29,0.29-0.62,0.56-0.87,0.88c-0.05,0.06,0.02,0.13,0.08,0.08c0.3-0.27,0.56-0.62,0.83-0.92
		C149.65,31.58,149.62,31.54,149.59,31.56L149.59,31.56z"/>
	<path class="st3" d="M146.63,33.84c0.21-0.26,0.45-0.5,0.7-0.71c0.28-0.24,0.61-0.4,0.9-0.62c0.03-0.03,0.02-0.09-0.03-0.08
		c-0.65,0.21-1.21,0.84-1.58,1.39C146.61,33.84,146.62,33.85,146.63,33.84L146.63,33.84z"/>
	<path class="st3" d="M147.54,33.78c0.25-0.21,0.5-0.44,0.72-0.68c0.04-0.04-0.02-0.09-0.06-0.06c-0.25,0.22-0.48,0.46-0.7,0.71
		C147.47,33.77,147.51,33.8,147.54,33.78L147.54,33.78z"/>
	<path class="st3" d="M141.98,43.56c-0.2,0.82-0.39,1.67-0.52,2.51c-0.01,0.07,0.09,0.11,0.11,0.03c0.19-0.83,0.33-1.69,0.44-2.54
		C142.02,43.54,141.99,43.54,141.98,43.56L141.98,43.56z"/>
	<path class="st3" d="M142.33,44.54c-0.11,0.38-0.21,0.79-0.2,1.19c0,0.07,0.11,0.07,0.11,0c0.02-0.4,0.04-0.79,0.14-1.18
		C142.39,44.52,142.34,44.51,142.33,44.54L142.33,44.54z"/>
	<path class="st3" d="M142.2,55.79c-0.25-0.97-0.39-1.94-0.56-2.93c-0.01-0.04-0.08-0.03-0.08,0.01c0.05,0.99,0.29,1.99,0.57,2.93
		C142.15,55.85,142.21,55.84,142.2,55.79L142.2,55.79z"/>
	<path class="st3" d="M142.48,54.76c-0.09-0.49-0.08-0.97-0.11-1.47c0-0.04-0.06-0.05-0.07-0.01c-0.08,0.49,0.03,1.02,0.15,1.49
		C142.46,54.79,142.49,54.78,142.48,54.76L142.48,54.76z"/>
	<path class="st3" d="M147.26,64.83c0.44,0.5,0.84,1.08,1.32,1.54c0.04,0.04,0.11-0.01,0.08-0.06c-0.36-0.56-0.9-1.04-1.38-1.5
		C147.26,64.8,147.24,64.82,147.26,64.83L147.26,64.83z"/>
	<path class="st3" d="M150.62,68.11c-0.61-0.41-1.18-0.86-1.73-1.34c-0.07-0.07-0.18,0.04-0.11,0.11c0.52,0.52,1.14,0.96,1.81,1.29
		C150.62,68.18,150.65,68.13,150.62,68.11L150.62,68.11z"/>
	<path class="st3" d="M159.63,72.57c0.69,0.2,1.39,0.44,2.1,0.57c0.05,0.01,0.06-0.05,0.02-0.07
		C161.06,72.84,160.33,72.72,159.63,72.57C159.62,72.57,159.62,72.57,159.63,72.57L159.63,72.57z"/>
	<path class="st3" d="M155.04,61.3c0.8-0.92,1.69-1.81,2.39-2.8c0.03-0.04-0.03-0.08-0.07-0.05c-0.86,0.86-1.58,1.89-2.35,2.83
		C155,61.3,155.02,61.32,155.04,61.3L155.04,61.3z"/>
	<path class="st3" d="M155.53,61.65c0.69-0.85,1.45-1.62,2.16-2.46c0.03-0.04-0.02-0.09-0.06-0.06c-0.83,0.69-1.54,1.59-2.13,2.49
		C155.49,61.65,155.52,61.67,155.53,61.65L155.53,61.65z"/>
	<path class="st3" d="M156.18,61.53c0.29-0.34,0.59-0.66,0.92-0.96s0.7-0.55,1.03-0.85c0.03-0.03-0.01-0.09-0.05-0.06
		c-0.77,0.42-1.42,1.16-1.94,1.85C156.13,61.53,156.16,61.55,156.18,61.53L156.18,61.53z"/>
	<path class="st3" d="M156.93,61.39c0.51-0.31,1-0.7,1.37-1.17c0.05-0.06-0.03-0.15-0.09-0.09c-0.43,0.42-0.84,0.83-1.32,1.19
		C156.84,61.35,156.88,61.42,156.93,61.39L156.93,61.39z"/>
	<path class="st3" d="M154.44,59.59c0.67-0.57,1.5-1.36,1.82-2.21c0.02-0.05-0.05-0.08-0.08-0.05c-0.31,0.35-0.54,0.78-0.83,1.15
		c-0.29,0.37-0.61,0.73-0.94,1.07C154.37,59.57,154.41,59.61,154.44,59.59L154.44,59.59z"/>
	<path class="st3" d="M154.53,58.64c0.39-0.28,0.82-0.72,0.93-1.2c0.01-0.04-0.05-0.07-0.07-0.03c-0.13,0.2-0.22,0.42-0.36,0.62
		c-0.15,0.21-0.33,0.4-0.54,0.56C154.46,58.61,154.5,58.66,154.53,58.64L154.53,58.64z"/>
	<path class="st3" d="M154.03,58.48c0.25-0.4,0.58-0.8,0.75-1.24c0.01-0.02-0.03-0.05-0.04-0.03c-0.3,0.36-0.51,0.84-0.74,1.25
		C153.99,58.48,154.02,58.49,154.03,58.48L154.03,58.48z"/>
	<path class="st3" d="M153.46,40.07c0.4,0.8,0.83,1.74,1.45,2.39c0.06,0.06,0.15-0.02,0.11-0.08c-0.22-0.4-0.53-0.76-0.79-1.15
		c-0.25-0.39-0.49-0.79-0.72-1.19C153.49,40,153.44,40.03,153.46,40.07L153.46,40.07z"/>
	<path class="st3" d="M154.47,40.51c0.23,0.41,0.48,0.82,0.74,1.21c0.11,0.16,0.25,0.53,0.5,0.47c0.02-0.01,0.05-0.03,0.05-0.05
		c0-0.01,0.01-0.02,0.01-0.04c0.02-0.08-0.08-0.12-0.12-0.05c0.02-0.03-0.53-0.71-0.59-0.79c-0.18-0.26-0.36-0.52-0.52-0.79
		C154.51,40.43,154.45,40.47,154.47,40.51L154.47,40.51z"/>
	<path class="st3" d="M155.13,40.5c0.38,0.43,0.67,0.92,1.02,1.35c0.05,0.06,0.13-0.02,0.1-0.08c-0.24-0.5-0.68-0.95-1.06-1.34
		C155.15,40.4,155.09,40.46,155.13,40.5L155.13,40.5z"/>
	<path class="st3" d="M155.96,38.97c0.52,0.65,0.89,1.37,1.36,2.04c0.05,0.07,0.15,0.01,0.12-0.07c-0.33-0.74-0.9-1.42-1.43-2.03
		C155.99,38.88,155.94,38.93,155.96,38.97L155.96,38.97z"/>
	<path class="st3" d="M156.42,38.79c0.22,0.34,0.44,0.67,0.66,1c0.13,0.18,0.24,0.51,0.49,0.54c0.03,0,0.07-0.02,0.08-0.05
		c0.03-0.07,0.03-0.1-0.01-0.16c-0.02-0.03-0.06-0.05-0.1-0.04c-0.01,0-0.02,0.01-0.03,0.01c-0.09,0.03-0.08,0.18,0.02,0.17
		c0.01,0,0.02,0,0.03,0c-0.03-0.02-0.06-0.04-0.09-0.07c0,0,0,0,0-0.01c0.04-0.01,0.07-0.03,0.11-0.04
		c-0.12-0.03-0.26-0.29-0.33-0.39s-0.15-0.19-0.22-0.29c-0.19-0.24-0.38-0.48-0.57-0.71C156.45,38.72,156.4,38.76,156.42,38.79
		L156.42,38.79z"/>
	<path class="st3" d="M156.02,37.52c0.63,0.62,1.24,1.33,1.94,1.87c0.08,0.06,0.16-0.06,0.1-0.13c-0.57-0.66-1.33-1.22-1.99-1.79
		C156.03,37.43,155.98,37.48,156.02,37.52L156.02,37.52z"/>
	<path class="st3" d="M175.07,37.34c-0.85,0.55-1.81,1.05-2.58,1.71c-0.05,0.04,0.01,0.12,0.07,0.09c0.9-0.46,1.73-1.16,2.56-1.73
		C175.15,37.38,175.11,37.31,175.07,37.34L175.07,37.34z"/>
	<path class="st3" d="M174.31,38.42c-0.49,0.4-1.07,0.76-1.5,1.22c-0.03,0.03,0.01,0.09,0.05,0.07c0.54-0.33,1.03-0.82,1.52-1.22
		C174.43,38.45,174.36,38.38,174.31,38.42L174.31,38.42z"/>
	<path class="st3" d="M174.68,38.93c-0.6,0.39-1.19,0.85-1.61,1.44c-0.04,0.05,0.05,0.12,0.09,0.07c0.49-0.52,0.96-1.03,1.55-1.44
		C174.76,38.97,174.72,38.9,174.68,38.93L174.68,38.93z"/>
	<path class="st3" d="M174.53,39.69c-0.23,0.23-0.45,0.46-0.68,0.69c-0.2,0.2-0.44,0.4-0.6,0.64c-0.03,0.05,0.03,0.11,0.08,0.08
		c0.23-0.17,0.42-0.42,0.62-0.63c0.22-0.24,0.44-0.47,0.66-0.71C174.64,39.71,174.57,39.64,174.53,39.69L174.53,39.69z"/>
	<path class="st3" d="M175.43,40.81c-0.37,0.42-0.79,0.83-1.12,1.27c-0.03,0.04,0.04,0.09,0.07,0.06c0.4-0.39,0.74-0.85,1.11-1.27
		C175.52,40.82,175.47,40.76,175.43,40.81L175.43,40.81z"/>
	<path class="st3" d="M176.35,40.67c-0.27,0.26-0.53,0.53-0.78,0.81c-0.22,0.25-0.49,0.5-0.64,0.8c-0.03,0.06,0.04,0.11,0.09,0.07
		c0.26-0.24,0.45-0.56,0.67-0.83c0.23-0.27,0.47-0.54,0.71-0.8C176.42,40.69,176.38,40.64,176.35,40.67L176.35,40.67z"/>
	<path class="st3" d="M177.55,39.85c-0.65,0.84-1.45,1.65-1.97,2.58c-0.03,0.06,0.04,0.12,0.09,0.07c0.75-0.75,1.31-1.74,1.94-2.6
		C177.64,39.87,177.58,39.82,177.55,39.85L177.55,39.85z"/>
	<path class="st3" d="M177.43,40.66c-0.43,0.63-0.87,1.24-1.27,1.88c-0.04,0.07,0.06,0.13,0.11,0.06c0.43-0.62,0.83-1.27,1.25-1.9
		C177.55,40.65,177.47,40.61,177.43,40.66L177.43,40.66z"/>
	<path class="st3" d="M174.8,61.56c-0.31-0.3-0.67-0.54-1.02-0.8c-0.39-0.29-0.78-0.59-1.19-0.84c-0.07-0.04-0.15,0.06-0.09,0.12
		c0.34,0.27,0.7,0.51,1.06,0.76c0.4,0.27,0.79,0.58,1.22,0.79C174.8,61.6,174.82,61.58,174.8,61.56L174.8,61.56z"/>
	<path class="st3" d="M174.52,60.67c-0.24-0.27-0.55-0.48-0.83-0.71c-0.31-0.24-0.63-0.55-0.99-0.71c-0.06-0.03-0.12,0.04-0.07,0.09
		c0.23,0.27,0.57,0.47,0.86,0.68c0.33,0.24,0.65,0.5,1.01,0.67C174.51,60.7,174.53,60.68,174.52,60.67L174.52,60.67z"/>
	<path class="st3" d="M174.68,60.02c-0.57-0.52-1.12-1.08-1.72-1.57c-0.06-0.05-0.15,0.03-0.09,0.09c0.57,0.53,1.19,1,1.79,1.5
		C174.68,60.05,174.7,60.03,174.68,60.02L174.68,60.02z"/>
	<path class="st3" d="M175.07,59.64c-0.6-0.6-1.19-1.24-1.84-1.8c-0.05-0.04-0.12,0.02-0.07,0.07c0.58,0.63,1.24,1.19,1.86,1.78
		C175.05,59.72,175.1,59.67,175.07,59.64L175.07,59.64z"/>
	<path class="st3" d="M176.36,59.2c-0.51-0.76-1.1-1.6-1.76-2.25c-0.04-0.04-0.12,0.01-0.09,0.07c0.49,0.78,1.18,1.54,1.81,2.21
		C176.34,59.25,176.37,59.23,176.36,59.2L176.36,59.2z"/>
	<path class="st3" d="M176.66,58.61c-0.2-0.28-0.4-0.56-0.59-0.84c-0.15-0.23-0.28-0.52-0.5-0.68c-0.04-0.03-0.08,0.02-0.08,0.06
		c0.05,0.29,0.31,0.57,0.48,0.8c0.19,0.26,0.38,0.5,0.59,0.74C176.61,58.74,176.7,58.67,176.66,58.61L176.66,58.61z"/>
	<path class="st3" d="M177,58.19c-0.26-0.56-0.54-1.15-0.9-1.66c-0.05-0.06-0.14-0.01-0.1,0.06c0.25,0.57,0.62,1.11,0.96,1.62
		C176.98,58.24,177.02,58.22,177,58.19L177,58.19z"/>
	<path class="st3" d="M170.94,70.11c1.18-0.45,2.37-0.93,3.48-1.54c0.05-0.03,0.01-0.09-0.04-0.07c-1.16,0.5-2.29,1.07-3.44,1.59
		C170.92,70.1,170.93,70.12,170.94,70.11L170.94,70.11z"/>
	<path class="st3" d="M171.42,69.39c0.64-0.23,1.28-0.54,1.78-1c0.04-0.03-0.01-0.1-0.05-0.07c-0.57,0.38-1.11,0.74-1.75,0.99
		C171.34,69.32,171.36,69.41,171.42,69.39L171.42,69.39z"/>
	<path class="st3" d="M171.79,68.14c0.37-0.11,0.73-0.26,1.04-0.48c0.04-0.03,0.01-0.09-0.04-0.07c-0.33,0.19-0.66,0.36-1.03,0.48
		C171.72,68.08,171.74,68.15,171.79,68.14L171.79,68.14z"/>
	<path class="st3" d="M172.01,67.29c0.18-0.23,0.39-0.42,0.63-0.58c0.05-0.04,0.01-0.12-0.05-0.09c-0.26,0.14-0.48,0.34-0.67,0.58
		C171.86,67.26,171.96,67.36,172.01,67.29L172.01,67.29z"/>
	<path class="st3" d="M185.15,56.98c0.3-0.34,0.47-0.8,0.65-1.21c0.19-0.43,0.35-0.86,0.47-1.31c0.02-0.08-0.09-0.1-0.11-0.03
		c-0.19,0.45-0.35,0.91-0.54,1.35c-0.17,0.39-0.4,0.77-0.5,1.18C185.12,56.98,185.14,57,185.15,56.98L185.15,56.98z"/>
	<path class="st3" d="M184.85,56.12c0.19-0.44,0.42-0.93,0.52-1.4c0.01-0.04-0.05-0.07-0.07-0.03c-0.23,0.43-0.36,0.95-0.5,1.41
		C184.79,56.14,184.84,56.15,184.85,56.12L184.85,56.12z"/>
	<path class="st3" d="M184.3,55.94c0-0.16,0.02-0.31,0.07-0.45c0.04-0.13,0.13-0.25,0.17-0.38c0.01-0.05-0.04-0.07-0.08-0.04
		c-0.23,0.19-0.28,0.6-0.27,0.88C184.2,56,184.3,56,184.3,55.94L184.3,55.94z"/>
	<path class="st3" d="M183.71,55.82c-0.03-0.11,0-0.24,0.06-0.34c0.03-0.05-0.04-0.09-0.07-0.06c-0.12,0.11-0.16,0.27-0.12,0.43
		C183.6,55.94,183.73,55.91,183.71,55.82L183.71,55.82z"/>
	<path class="st3" d="M185.08,42.2c0.53,0.69,0.76,1.43,0.95,2.27c0.02,0.08,0.15,0.06,0.14-0.02c-0.04-0.85-0.47-1.67-1.01-2.31
		C185.13,42.08,185.04,42.15,185.08,42.2L185.08,42.2z"/>
	<path class="st3" d="M184.81,43.19c0.18,0.32,0.35,0.69,0.58,0.99c0.02,0.03,0.09,0.01,0.07-0.03c-0.14-0.35-0.38-0.68-0.57-1
		C184.86,43.09,184.78,43.14,184.81,43.19L184.81,43.19z"/>
	<path class="st3" d="M184.07,42.99c0.11,0.14,0.2,0.3,0.26,0.47c0.05,0.14,0.05,0.3,0.12,0.44c0.02,0.04,0.08,0.03,0.1-0.01
		c0.09-0.32-0.18-0.74-0.38-0.97C184.12,42.87,184.03,42.94,184.07,42.99L184.07,42.99z"/>
	<path class="st3" d="M183.59,43.2c0.11,0.2,0.16,0.4,0.21,0.63c0.01,0.05,0.1,0.06,0.11,0c0.04-0.25-0.07-0.51-0.23-0.69
		C183.63,43.09,183.56,43.15,183.59,43.2L183.59,43.2z"/>
	<path class="st3" d="M170.6,29.09c0.99-0.04,1.74,0.36,2.45,1.01c0.04,0.04,0.12-0.01,0.08-0.06c-0.55-0.8-1.61-1.12-2.53-0.98
		C170.57,29.06,170.58,29.09,170.6,29.09L170.6,29.09z"/>
	<path class="st3" d="M171.3,30c0.5,0.16,0.98,0.38,1.48,0.52c0.04,0.01,0.07-0.05,0.03-0.07c-0.44-0.26-1-0.39-1.5-0.49
		C171.29,29.95,171.27,29.99,171.3,30L171.3,30z"/>
	<path class="st3" d="M171.36,30.74c0.37,0.11,0.77,0.28,1.15,0.32c0.03,0,0.05-0.05,0.02-0.06c-0.35-0.16-0.78-0.22-1.15-0.32
		C171.34,30.67,171.32,30.73,171.36,30.74L171.36,30.74z"/>
	<path class="st3" d="M171.71,31.69c0.24,0.07,0.56,0.14,0.81,0.04c0.05-0.02,0.04-0.08-0.01-0.09c-0.12-0.02-0.24,0-0.37,0
		c-0.14,0-0.27-0.01-0.41-0.03C171.69,31.61,171.67,31.67,171.71,31.69L171.71,31.69z"/>
	<path class="st3" d="M171.79,32.38c0.17,0.03,0.34,0.06,0.51,0.09c0.06,0.01,0.07-0.09,0.01-0.1c-0.17-0.03-0.34-0.05-0.51-0.07
		C171.75,32.28,171.74,32.37,171.79,32.38L171.79,32.38z"/>
	<path class="st3" d="M157.81,29.84c0.65-0.35,1.31-0.55,2.03-0.68c0.05-0.01,0.04-0.1-0.01-0.09c-0.73,0.07-1.43,0.33-2.07,0.69
		C157.7,29.79,157.75,29.87,157.81,29.84L157.81,29.84z"/>
	<path class="st3" d="M158.2,30.36c0.53-0.16,1.08-0.3,1.58-0.53c0.05-0.02,0.01-0.09-0.03-0.08c-0.53,0.13-1.05,0.36-1.57,0.55
		C158.15,30.32,158.16,30.37,158.2,30.36L158.2,30.36z"/>
	<path class="st3" d="M158.36,30.97c0.17-0.05,0.33-0.1,0.5-0.14c0.15-0.04,0.3-0.07,0.43-0.16c0.04-0.03,0.03-0.1-0.03-0.1
		c-0.15,0.01-0.3,0.08-0.44,0.13c-0.16,0.06-0.32,0.12-0.49,0.17C158.27,30.9,158.29,30.99,158.36,30.97L158.36,30.97z"/>
	<path class="st3" d="M158.29,31.56c0.3-0.05,0.63-0.07,0.91-0.18c0.06-0.02,0.05-0.11-0.01-0.11c-0.31,0-0.63,0.1-0.93,0.16
		C158.17,31.45,158.2,31.58,158.29,31.56L158.29,31.56z"/>
	<path class="st3" d="M158.36,32.26c0.26-0.05,0.52-0.09,0.77-0.18c0.05-0.02,0.05-0.1-0.01-0.1c-0.26,0.03-0.53,0.11-0.79,0.16
		C158.26,32.16,158.29,32.27,158.36,32.26L158.36,32.26z"/>
	<path class="st3" d="M158.71,32.89c0.07-0.02,0.14-0.05,0.21-0.07c0.06-0.02,0.03-0.12-0.03-0.09c-0.07,0.02-0.14,0.05-0.21,0.07
		C158.62,32.81,158.65,32.91,158.71,32.89L158.71,32.89z"/>
	<path class="st3" d="M146.01,41.18c-0.48,0.98-0.98,2.1-1.25,3.15c-0.02,0.06,0.08,0.11,0.11,0.05c0.5-0.97,0.87-2.14,1.17-3.19
		C146.05,41.18,146.02,41.17,146.01,41.18L146.01,41.18z"/>
	<path class="st3" d="M145.98,42.24c-0.06,0.29-0.12,0.58-0.19,0.87c-0.07,0.25-0.17,0.5-0.19,0.76c0,0.05,0.07,0.07,0.09,0.02
		c0.25-0.47,0.31-1.12,0.4-1.63C146.09,42.2,145.99,42.17,145.98,42.24L145.98,42.24z"/>
	<path class="st3" d="M146.68,42.66c-0.12,0.3-0.29,0.61-0.36,0.92c-0.01,0.04,0.05,0.07,0.07,0.03c0.16-0.28,0.24-0.63,0.35-0.93
		C146.76,42.64,146.69,42.62,146.68,42.66L146.68,42.66z"/>
	<path class="st3" d="M147.1,42.93c-0.09,0.14-0.14,0.35-0.03,0.49c0.03,0.04,0.1,0.03,0.1-0.03c-0.02-0.15-0.03-0.27,0.05-0.4
		C147.26,42.93,147.14,42.86,147.1,42.93L147.1,42.93z"/>
	<path class="st3" d="M147.77,43.08c-0.02,0.12-0.04,0.25-0.05,0.37c-0.01,0.06,0.08,0.07,0.1,0.01c0.03-0.12,0.06-0.23,0.09-0.35
		C147.93,43.03,147.79,42.99,147.77,43.08L147.77,43.08z"/>
	<path class="st3" d="M145.05,55.23c0.25,0.8,0.45,1.71,0.87,2.44c0.03,0.06,0.11,0.02,0.1-0.04c-0.15-0.82-0.59-1.65-0.92-2.42
		C145.09,55.18,145.04,55.2,145.05,55.23L145.05,55.23z"/>
	<path class="st3" d="M145.83,55.73c0.21,0.48,0.37,1.04,0.67,1.47c0.03,0.04,0.1,0.02,0.08-0.04c-0.13-0.51-0.45-1.01-0.67-1.49
		C145.88,55.63,145.81,55.68,145.83,55.73L145.83,55.73z"/>
	<path class="st3" d="M146.68,55.81c0.19,0.39,0.29,0.83,0.48,1.21c0.03,0.06,0.11,0.01,0.1-0.04c-0.06-0.42-0.31-0.85-0.51-1.21
		C146.72,55.71,146.65,55.76,146.68,55.81L146.68,55.81z"/>
	<path class="st3" d="M147.52,56.17c0.06,0.12,0.11,0.23,0.17,0.35c0.05,0.1,0.09,0.23,0.18,0.3c0.03,0.03,0.09,0.01,0.09-0.04
		c-0.01-0.12-0.08-0.21-0.14-0.31c-0.07-0.12-0.13-0.24-0.2-0.36C147.58,56.05,147.49,56.1,147.52,56.17L147.52,56.17z"/>
	<path class="st3" d="M148.31,56.29c0.02,0.1,0.04,0.2,0.09,0.29c0.01,0.03,0.07,0.02,0.07-0.02c-0.01-0.1-0.04-0.2-0.06-0.3
		C148.39,56.21,148.3,56.23,148.31,56.29L148.31,56.29z"/>
	<path class="st3" d="M157.98,69.05c0.64,0.43,1.41,0.97,2.18,1.12c0.06,0.01,0.1-0.07,0.04-0.1c-0.34-0.22-0.74-0.35-1.1-0.52
		c-0.37-0.18-0.74-0.35-1.1-0.54C157.97,68.99,157.95,69.03,157.98,69.05L157.98,69.05z"/>
	<path class="st3" d="M158.41,68.76c0.44,0.29,1.02,0.59,1.56,0.62c0.04,0,0.05-0.06,0.01-0.07c-0.24-0.09-0.5-0.13-0.75-0.22
		c-0.28-0.1-0.54-0.22-0.8-0.37C158.4,68.7,158.38,68.74,158.41,68.76L158.41,68.76z"/>
	<path class="st3" d="M158.96,68.14c0.12,0.06,0.24,0.11,0.36,0.17c0.1,0.04,0.19,0.11,0.3,0.11c0.03,0,0.05-0.04,0.03-0.06
		c-0.08-0.08-0.2-0.11-0.3-0.15c-0.11-0.05-0.23-0.1-0.34-0.15C158.95,68.04,158.9,68.12,158.96,68.14L158.96,68.14z"/>
	<path class="st3" d="M158.9,67.1c0.08,0,0.15,0,0.23,0c0.07,0,0.14,0.01,0.21-0.01c0.04-0.01,0.04-0.06,0-0.07
		c-0.06-0.03-0.14-0.01-0.21-0.01c-0.08,0-0.15,0-0.23,0C158.84,67,158.84,67.1,158.9,67.1L158.9,67.1z"/>
	<path class="st3" d="M158.98,66.09c0.05,0,0.09-0.01,0.14-0.01c0.03,0,0.03-0.04,0-0.05c-0.05,0-0.09-0.01-0.14-0.01
		C158.93,66.02,158.93,66.09,158.98,66.09L158.98,66.09z"/>
	<path class="st3" d="M150.01,32.74c3.3-2.93,7.38-4.85,11.75-5.47c0.41-0.06,0.23-0.68-0.17-0.62c-4.48,0.63-8.65,2.63-12.03,5.64
		C149.26,32.57,149.71,33.02,150.01,32.74L150.01,32.74z"/>
	<path class="st3" d="M142.85,45.87c0.82-1.91,1.22-3.99,2-5.92c0.88-2.19,2.17-4.11,3.77-5.83c0.28-0.3-0.17-0.75-0.45-0.45
		c-3.06,3.35-4.82,7.63-5.61,12.08C142.53,45.91,142.77,46.05,142.85,45.87L142.85,45.87z"/>
	<path class="st3" d="M181.43,32.29c-3.37-3-7.55-5.01-12.03-5.64c-0.4-0.06-0.58,0.56-0.17,0.62c4.37,0.62,8.45,2.54,11.75,5.47
		C181.29,33.02,181.74,32.57,181.43,32.29L181.43,32.29z"/>
	<path class="st3" d="M188.44,45.74c-0.79-4.44-2.55-8.73-5.61-12.08c-0.28-0.3-0.73,0.15-0.45,0.45c1.6,1.72,2.89,3.65,3.77,5.83
		c0.78,1.93,1.18,4.01,2,5.92C188.22,46.04,188.47,45.91,188.44,45.74L188.44,45.74z"/>
	<path class="st3" d="M149.56,66.65c3.37,3,7.55,5.01,12.03,5.64c0.4,0.06,0.58-0.56,0.17-0.62c-4.37-0.62-8.45-2.54-11.75-5.47
		C149.71,65.92,149.26,66.37,149.56,66.65L149.56,66.65z"/>
	<path class="st3" d="M142.55,53.34c0.4,2.2,1.26,4.44,2.24,6.45c0.99,2.02,2.28,3.96,3.79,5.63c0.27,0.3,0.73-0.15,0.45-0.45
		c-1.51-1.64-2.8-3.57-3.79-5.57c-0.98-2-1.53-4.14-2.4-6.18C142.77,53.04,142.52,53.17,142.55,53.34L142.55,53.34z"/>
	<path class="st3" d="M180.98,66.34c-3.3,2.93-7.38,4.85-11.75,5.47c-0.41,0.06-0.23,0.68,0.17,0.62c4.48-0.63,8.65-2.63,12.03-5.64
		C181.74,66.51,181.29,66.06,180.98,66.34L180.98,66.34z"/>
	<path class="st3" d="M188.15,53.21c-0.82,1.91-1.22,3.99-2,5.92c-0.88,2.19-2.17,4.11-3.77,5.83c-0.28,0.3,0.17,0.75,0.45,0.45
		c3.06-3.35,4.82-7.63,5.61-12.08C188.47,53.17,188.22,53.04,188.15,53.21L188.15,53.21z"/>
	<path class="st3" d="M164.46,20.49c-1.68,6.07-3.17,12.2-4.69,18.32c-0.15,0.61-0.31,1.22-0.45,1.83c-0.04,0.19-0.08,0.65-0.09,0.7
		c-0.03,0.14,0.18,0.2,0.21,0.06c0-0.02,0.15-0.37,0.2-0.51c0.15-0.49,0.26-0.99,0.38-1.49c0.41-1.67,0.81-3.34,1.22-5.02
		c0.91-3.75,1.82-7.5,2.7-11.25c0.21-0.87,0.4-1.74,0.59-2.62C164.53,20.46,164.47,20.45,164.46,20.49L164.46,20.49z"/>
	<path class="st3" d="M136.45,48.63c6.08-1.42,12.13-2.94,18.19-4.47c0.83-0.21,1.72-0.48,2.52-0.68c0.13-0.03,0.08-0.24-0.06-0.21
		c-6.01,1.51-12.14,2.97-18.16,4.59c-0.84,0.23-1.68,0.45-2.52,0.68C136.36,48.55,136.39,48.64,136.45,48.63L136.45,48.63z"/>
	<path class="st3" d="M163.98,46.1c-1.46-1.63-2.92-3.27-4.43-4.86c-0.17-0.18-0.45,0.09-0.28,0.28c1.4,1.47,3.1,3.14,4.63,4.66
		C163.95,46.22,164.02,46.15,163.98,46.1L163.98,46.1z"/>
	<path class="st3" d="M166.89,29.98c-0.14,5.13-0.06,10.42,0.02,15.45c0,0.21,0.33,0.21,0.32,0c-0.08-5.15-0.22-10.3-0.28-15.45
		C166.96,29.94,166.89,29.94,166.89,29.98L166.89,29.98z"/>
	<path class="st3" d="M164.58,76.94c0.05-6.12,0.05-12.23,0.01-18.34c0-0.83-0.03-1.85-0.03-2.59c0-0.21-0.33-0.21-0.32,0
		c0.04,6,0.09,12.25,0.22,18.34c0.02,0.86,0.04,1.73,0.06,2.59C164.52,76.98,164.58,76.98,164.58,76.94L164.58,76.94z"/>
	<path class="st3" d="M164.41,52.77c-0.99,0.69-1.85,1.55-2.71,2.39c-0.91,0.9-1.88,1.76-2.78,2.67c-0.12,0.13,0.04,0.37,0.2,0.25
		c0.97-0.72,1.81-1.64,2.65-2.5c0.9-0.91,1.82-1.82,2.69-2.76C164.48,52.8,164.44,52.75,164.41,52.77L164.41,52.77z"/>
	<path class="st3" d="M168.81,48.23c1.97-1.44,3.71-3.08,5.27-4.97c0.14-0.17-0.1-0.41-0.24-0.24c-1.58,1.81-3.28,3.54-5.07,5.15
		C168.73,48.2,168.77,48.25,168.81,48.23L168.81,48.23z"/>
	<path class="st3" d="M194.18,48.47c-5.9-1.59-11.79-3.24-17.7-4.83c-0.59-0.16-1.19-0.31-1.78-0.47c-0.17-0.04-0.33-0.09-0.5-0.12
		c-0.07-0.01-0.27-0.05-0.15-0.02c-0.2-0.05-0.28,0.26-0.08,0.31c-0.1-0.03,0.03,0.01,0.09,0.04c0.13,0.05,0.26,0.09,0.4,0.13
		c0.48,0.13,0.96,0.26,1.44,0.39c1.61,0.43,3.22,0.84,4.82,1.26c3.63,0.95,7.25,1.94,10.91,2.8c0.85,0.2,1.69,0.4,2.53,0.62
		C194.22,48.6,194.25,48.49,194.18,48.47L194.18,48.47z"/>
	<path class="st3" d="M180.91,34.06c-2.64,2.36-5.26,5.25-7.57,7.7c-0.22,0.23,0.13,0.58,0.35,0.35c2.47-2.61,5.02-5.18,7.35-7.92
		C181.1,34.1,180.99,33.99,180.91,34.06L180.91,34.06z"/>
	<path class="st3" d="M150.07,34.09c0.97,1.41,2.25,2.63,3.41,3.88c1.2,1.29,2.4,2.58,3.62,3.86c0.24,0.26,0.63-0.13,0.39-0.39
		c-1.21-1.28-2.44-2.55-3.67-3.81c-1.19-1.22-2.34-2.56-3.7-3.6C150.09,34.02,150.05,34.06,150.07,34.09L150.07,34.09z"/>
	<path class="st3" d="M181.03,65.07c-2.33-2.74-4.88-5.31-7.35-7.92c-0.22-0.23-0.56,0.12-0.35,0.35c2.31,2.45,4.94,5.34,7.57,7.7
		C180.99,65.27,181.1,65.16,181.03,65.07L181.03,65.07z"/>
	<path class="st3" d="M150.13,65.35c1.37-1.08,2.54-2.46,3.74-3.71c1.22-1.27,2.42-2.55,3.62-3.83c0.24-0.26-0.15-0.65-0.39-0.39
		c-1.21,1.3-2.42,2.61-3.62,3.93c-1.16,1.27-2.44,2.52-3.41,3.95C150.04,65.34,150.1,65.37,150.13,65.35L150.13,65.35z"/>
	<path class="st3" d="M150.42,33.36c0.83-0.58,1.6-1.24,2.44-1.8c0.88-0.58,1.8-1.1,2.75-1.56c1.94-0.95,3.96-1.54,6.07-1.97
		c0.23-0.05,0.13-0.38-0.09-0.34c-2.09,0.31-4.15,1.03-6.05,1.96c-1.84,0.89-3.82,2.08-5.2,3.62
		C150.29,33.31,150.35,33.41,150.42,33.36L150.42,33.36z"/>
	<path class="st3" d="M148.98,34.54c-1.53,1.3-2.63,3.23-3.48,5.02c-0.87,1.83-1.55,3.8-1.92,5.79c-0.05,0.26,0.34,0.38,0.41,0.11
		c0.45-2,1.04-3.94,1.93-5.8c0.88-1.82,2.07-3.36,3.19-5.03C149.16,34.56,149.04,34.48,148.98,34.54L148.98,34.54z"/>
	<path class="st3" d="M180.56,33.25c-1.38-1.53-3.36-2.72-5.2-3.62c-1.9-0.92-3.96-1.64-6.05-1.96c-0.22-0.03-0.32,0.29-0.09,0.34
		c2.11,0.44,4.13,1.02,6.07,1.97c0.91,0.45,1.8,0.94,2.65,1.5c0.88,0.58,1.68,1.26,2.54,1.87
		C180.55,33.41,180.61,33.31,180.56,33.25L180.56,33.25z"/>
	<path class="st3" d="M181.8,34.63c1.12,1.67,2.32,3.21,3.19,5.03c0.89,1.85,1.48,3.8,1.93,5.8c0.06,0.27,0.45,0.15,0.41-0.11
		c-0.37-2-1.05-3.96-1.92-5.79c-0.85-1.78-1.95-3.72-3.48-5.02C181.86,34.48,181.74,34.55,181.8,34.63L181.8,34.63z"/>
	<path class="st3" d="M150.48,65.77c1.38,1.53,3.36,2.72,5.2,3.62c1.9,0.92,3.96,1.64,6.05,1.96c0.22,0.03,0.32-0.29,0.09-0.34
		c-2.11-0.44-4.13-1.02-6.07-1.97c-0.91-0.45-1.8-0.94-2.65-1.5c-0.88-0.58-1.68-1.26-2.54-1.87
		C150.5,65.62,150.43,65.72,150.48,65.77L150.48,65.77z"/>
	<path class="st3" d="M149.24,64.39c-1.12-1.67-2.32-3.21-3.19-5.03c-0.89-1.85-1.48-3.8-1.93-5.8c-0.06-0.27-0.45-0.15-0.41,0.11
		c0.37,2,1.05,3.96,1.92,5.79c0.85,1.78,1.95,3.72,3.48,5.02C149.18,64.54,149.3,64.47,149.24,64.39L149.24,64.39z"/>
	<path class="st3" d="M180.62,65.67c-0.83,0.58-1.6,1.24-2.44,1.8c-0.88,0.58-1.8,1.1-2.75,1.56c-1.94,0.95-3.96,1.54-6.07,1.97
		c-0.23,0.05-0.13,0.37,0.09,0.34c2.09-0.31,4.15-1.03,6.05-1.96c1.84-0.89,3.82-2.08,5.2-3.62
		C180.75,65.72,180.69,65.62,180.62,65.67L180.62,65.67z"/>
	<path class="st3" d="M182.06,64.49c1.53-1.3,2.63-3.23,3.48-5.02c0.87-1.83,1.55-3.8,1.92-5.79c0.05-0.26-0.34-0.38-0.41-0.11
		c-0.45,2-1.04,3.94-1.93,5.8c-0.88,1.82-2.07,3.36-3.19,5.03C181.89,64.47,182,64.54,182.06,64.49L182.06,64.49z"/>
	<path class="st3" d="M173.85,31.99c-0.16,0.38-0.34,0.73-0.63,1.04c-0.11,0.12-0.3,0.25-0.33,0.43c-0.03,0.17,0.1,0.34,0.19,0.48
		c0.22,0.35,0.46,0.69,0.69,1.03c0.09,0.13,0.25,0.15,0.36,0.05c0.31-0.28,0.63-0.55,0.94-0.83c0.18-0.17,0.41-0.33,0.38-0.61
		c-0.02-0.31-0.42-0.69-0.59-0.92c-0.23-0.32-0.42-0.63-0.73-0.87c-0.12-0.09-0.3,0.06-0.25,0.2c0.2,0.56,0.78,0.93,0.98,1.47
		c0.14,0.39-0.76,0.97-1.05,1.24c0.12,0.02,0.24,0.03,0.36,0.05c-0.2-0.28-0.4-0.57-0.59-0.85c-0.25-0.36-0.27-0.32-0.02-0.65
		c0.28-0.35,0.52-0.76,0.57-1.21C174.14,31.86,173.91,31.86,173.85,31.99L173.85,31.99z"/>
	<path class="st3" d="M182.28,39.5c-0.43,0.42-0.66,0.98-1.07,1.42c-0.09,0.1-0.08,0.23,0,0.33c0.37,0.45,0.71,0.91,1.01,1.42
		c0.09,0.16,0.34,0.17,0.43,0c0.19-0.36,0.44-0.68,0.66-1.02c0.12-0.18,0.33-0.43,0.31-0.67c-0.01-0.23-0.27-0.44-0.4-0.6
		c-0.21-0.28-0.41-0.57-0.64-0.85c-0.13-0.16-0.41,0.06-0.29,0.22c0.16,0.21,0.31,0.44,0.46,0.66c0.16,0.24,0.33,0.39,0.3,0.67
		c-0.05,0.44-0.59,0.94-0.84,1.36c0.14,0,0.28,0,0.43,0c-0.32-0.56-0.68-1.05-1.1-1.51c0.01,0.09,0.02,0.18,0.04,0.28
		c0.32-0.51,0.55-1.07,0.84-1.59C182.48,39.52,182.36,39.43,182.28,39.5L182.28,39.5z"/>
	<path class="st3" d="M182.28,56.87c-0.43,0.42-0.66,0.98-1.07,1.42c-0.09,0.1-0.08,0.23,0,0.33c0.37,0.45,0.71,0.91,1.01,1.42
		c0.09,0.16,0.34,0.17,0.43,0c0.19-0.36,0.44-0.68,0.66-1.02c0.12-0.18,0.33-0.43,0.31-0.67c-0.01-0.23-0.27-0.44-0.4-0.6
		c-0.21-0.28-0.41-0.57-0.64-0.85c-0.13-0.16-0.41,0.06-0.29,0.22c0.16,0.21,0.31,0.44,0.46,0.66c0.16,0.24,0.33,0.39,0.3,0.67
		c-0.05,0.44-0.59,0.94-0.84,1.36c0.14,0,0.28,0,0.43,0c-0.32-0.56-0.68-1.05-1.1-1.51c0.01,0.09,0.02,0.18,0.04,0.28
		c0.32-0.51,0.55-1.07,0.84-1.59C182.48,56.89,182.36,56.79,182.28,56.87L182.28,56.87z"/>
	<path class="st3" d="M148.93,57.06c-0.16,0.38-0.34,0.73-0.63,1.04c-0.11,0.12-0.3,0.25-0.33,0.43c-0.03,0.17,0.1,0.34,0.19,0.48
		c0.22,0.35,0.46,0.69,0.69,1.03c0.09,0.13,0.25,0.15,0.36,0.05c0.31-0.28,0.63-0.55,0.94-0.83c0.18-0.17,0.41-0.33,0.38-0.61
		c-0.02-0.31-0.42-0.69-0.59-0.92c-0.23-0.32-0.42-0.63-0.73-0.87c-0.12-0.09-0.3,0.06-0.25,0.2c0.2,0.56,0.78,0.93,0.98,1.47
		c0.14,0.39-0.76,0.97-1.05,1.24c0.12,0.02,0.24,0.03,0.36,0.05c-0.2-0.28-0.4-0.57-0.59-0.85c-0.25-0.36-0.27-0.32-0.02-0.65
		c0.28-0.35,0.52-0.76,0.57-1.21C149.21,56.93,148.98,56.93,148.93,57.06L148.93,57.06z"/>
	<path class="st3" d="M156.79,64.43c-0.43,0.42-0.66,0.98-1.07,1.42c-0.09,0.1-0.08,0.23,0,0.33c0.37,0.45,0.71,0.91,1.01,1.42
		c0.09,0.16,0.34,0.17,0.43,0c0.19-0.36,0.44-0.68,0.66-1.02c0.12-0.18,0.33-0.43,0.31-0.67c-0.01-0.23-0.27-0.44-0.4-0.6
		c-0.21-0.28-0.41-0.57-0.64-0.85c-0.13-0.16-0.41,0.06-0.29,0.22c0.16,0.21,0.31,0.44,0.46,0.66c0.16,0.24,0.33,0.39,0.3,0.67
		c-0.05,0.44-0.59,0.94-0.84,1.36c0.14,0,0.28,0,0.43,0c-0.32-0.56-0.68-1.05-1.1-1.51c0.01,0.09,0.02,0.18,0.04,0.28
		c0.32-0.51,0.55-1.07,0.84-1.59C156.99,64.45,156.87,64.35,156.79,64.43L156.79,64.43z"/>
	<path class="st3" d="M173.88,64.43c-0.43,0.42-0.66,0.98-1.07,1.42c-0.09,0.1-0.08,0.23,0,0.33c0.37,0.45,0.71,0.91,1.01,1.42
		c0.09,0.16,0.34,0.17,0.43,0c0.19-0.36,0.44-0.68,0.66-1.02c0.12-0.18,0.33-0.43,0.31-0.67c-0.01-0.23-0.27-0.44-0.4-0.6
		c-0.21-0.28-0.41-0.57-0.64-0.85c-0.13-0.16-0.41,0.06-0.29,0.22c0.16,0.21,0.31,0.44,0.46,0.66c0.16,0.24,0.33,0.39,0.3,0.67
		c-0.05,0.44-0.59,0.94-0.84,1.36c0.14,0,0.28,0,0.43,0c-0.32-0.56-0.68-1.05-1.1-1.51c0.01,0.09,0.02,0.18,0.04,0.28
		c0.32-0.51,0.55-1.07,0.84-1.59C174.07,64.45,173.95,64.35,173.88,64.43L173.88,64.43z"/>
	<path class="st3" d="M156.93,31.24c-0.43,0.42-0.66,0.98-1.07,1.42c-0.09,0.1-0.08,0.23,0,0.33c0.37,0.45,0.71,0.91,1.01,1.42
		c0.09,0.16,0.34,0.17,0.43,0c0.19-0.36,0.44-0.68,0.66-1.02c0.12-0.18,0.33-0.43,0.31-0.67c-0.01-0.23-0.27-0.44-0.4-0.6
		c-0.21-0.28-0.41-0.57-0.64-0.85c-0.13-0.16-0.41,0.06-0.29,0.22c0.16,0.21,0.31,0.44,0.46,0.66c0.16,0.24,0.33,0.39,0.3,0.67
		c-0.05,0.44-0.59,0.94-0.84,1.36c0.14,0,0.28,0,0.43,0c-0.32-0.56-0.68-1.05-1.1-1.51c0.01,0.09,0.02,0.18,0.04,0.28
		c0.32-0.51,0.55-1.07,0.84-1.59C157.13,31.26,157.01,31.16,156.93,31.24L156.93,31.24z"/>
	<path class="st3" d="M148.67,39.22c-0.43,0.42-0.66,0.98-1.07,1.42c-0.09,0.1-0.08,0.23,0,0.33c0.37,0.45,0.71,0.91,1.01,1.42
		c0.09,0.16,0.34,0.17,0.43,0c0.19-0.36,0.44-0.68,0.66-1.02c0.12-0.18,0.33-0.43,0.31-0.67c-0.01-0.23-0.27-0.44-0.4-0.6
		c-0.21-0.28-0.41-0.57-0.64-0.85c-0.13-0.16-0.41,0.06-0.29,0.22c0.16,0.21,0.31,0.44,0.46,0.66c0.16,0.24,0.33,0.39,0.3,0.67
		c-0.05,0.44-0.59,0.94-0.84,1.36c0.14,0,0.28,0,0.43,0c-0.32-0.56-0.68-1.05-1.1-1.51c0.01,0.09,0.02,0.18,0.04,0.28
		c0.32-0.51,0.55-1.07,0.84-1.59C148.87,39.24,148.75,39.15,148.67,39.22L148.67,39.22z"/>
	<path class="st3" d="M140.93,46.35c0.67-4.34,2.26-8.81,5.03-12.26c0.81-1.01,1.69-1.98,2.65-2.85c1.67-1.53,3.66-2.69,5.69-3.67
		c2.45-1.18,5.07-2,7.77-2.41c0.63-0.1,0.36-1.06-0.27-0.96c-4.69,0.7-9.52,2.65-13.21,5.67c-2.8,2.29-5,5.29-6.48,8.58
		c-1.09,2.43-1.86,4.99-2.28,7.62C139.74,46.76,140.82,47.06,140.93,46.35L140.93,46.35z"/>
	<path class="st3" d="M162.21,73.7c-8.34-1.11-15.69-6.7-19.27-14.27c-0.97-2.05-1.64-4.25-2.01-6.49c-0.12-0.71-1.19-0.41-1.08,0.3
		c1.3,8.42,7.11,15.93,14.82,19.51c2.4,1.12,4.92,1.83,7.54,2.17C162.98,75.02,162.98,73.8,162.21,73.7L162.21,73.7z"/>
	<path class="st3" d="M190.03,53.08c-0.56,4.43-2.31,8.68-5.23,12.08c-2.54,2.97-5.82,5.27-9.42,6.75
		c-2.06,0.84-4.22,1.42-6.42,1.74c-0.77,0.11-0.44,1.29,0.32,1.17c8.18-1.22,15.88-6.19,19.54-13.73c1.23-2.53,1.97-5.23,2.31-8.01
		C191.22,52.38,190.12,52.39,190.03,53.08L190.03,53.08z"/>
	<path class="st3" d="M168.95,24.95c4.25,0.63,8.37,2.24,11.77,4.89c3.28,2.55,5.82,5.94,7.43,9.77c0.9,2.15,1.5,4.41,1.81,6.72
		c0.11,0.8,1.22,0.66,1.1-0.15c-1.3-8.73-6.65-16.5-14.88-19.96c-2.29-0.96-4.69-1.57-7.15-1.87
		C168.69,24.31,168.6,24.9,168.95,24.95L168.95,24.95z"/>
	<path class="st3" d="M200.69,49.51c-2.32-0.1-4.65-0.23-6.97-0.25c-5.55-0.04-11.11-0.07-16.66-0.08
		c-6.74-0.02-13.48-0.03-20.22-0.04c-5.8-0.01-11.61-0.01-17.41-0.02c-1.91,0-3.82,0-5.74-0.01c-0.9,0-1.82-0.06-2.72,0
		c-0.04,0-0.08,0-0.12,0c-0.6,0-0.6,0.94,0,0.94c2.32,0,4.65,0,6.97-0.01c5.55-0.01,11.11-0.01,16.66-0.02
		c6.74-0.01,13.48-0.01,20.22-0.03c5.8-0.02,11.61-0.04,17.41-0.08c1.92-0.01,3.82-0.06,5.74-0.14c0.6-0.03,1.19-0.05,1.79-0.08
		c0.28-0.01,0.67,0.04,0.94-0.04c0.03-0.01,0.08,0,0.12-0.01C200.78,49.65,200.78,49.52,200.69,49.51L200.69,49.51z"/>
	<path class="st3" d="M165.84,84.78c0.09-2.32,0.22-4.65,0.22-6.97c0.02-5.55,0.02-11.11,0.02-16.66
		c-0.01-6.74-0.02-13.48-0.04-20.22c-0.02-5.8-0.03-11.61-0.05-17.41c-0.01-1.91-0.01-3.82-0.02-5.74c0-0.9,0.05-1.82-0.01-2.72
		c0-0.04,0-0.08,0-0.12c0-0.6-0.94-0.6-0.94,0c0.01,2.32,0.02,4.65,0.04,6.97c0.03,5.55,0.06,11.11,0.08,16.66
		c0.03,6.74,0.07,13.48,0.11,20.22c0.04,5.8,0.08,11.61,0.15,17.41c0.02,1.92,0.07,3.82,0.16,5.74c0.03,0.6,0.06,1.19,0.08,1.79
		c0.01,0.28-0.04,0.67,0.04,0.94c0.01,0.03,0,0.08,0.01,0.12C165.7,84.87,165.84,84.87,165.84,84.78L165.84,84.78z"/>
	<path class="st3" d="M157.01,41.85c0.57,0.86,1.39,1.58,2.12,2.31c1.29,1.28,2.59,2.55,3.89,3.82c2.7,2.66,5.41,5.31,8.13,7.95
		c0.6,0.58,1.2,1.15,1.8,1.73c0.55,0.53,1.38-0.31,0.84-0.84c-4.51-4.35-9.05-8.67-13.59-12.98c-0.86-0.81-1.8-1.82-2.76-2.41
		C157.18,41.27,156.84,41.59,157.01,41.85L157.01,41.85z"/>
	<path class="st3" d="M173.63,41.25c-2.32,1.72-4.36,3.92-6.45,5.91c-2.8,2.65-5.59,5.32-8.37,7.99c-0.62,0.6-1.24,1.2-1.86,1.8
		c-0.55,0.53,0.29,1.36,0.84,0.84c4.58-4.42,9.12-8.87,13.66-13.33c0.88-0.86,1.83-1.81,2.56-2.72
		C174.2,41.49,173.94,41.02,173.63,41.25L173.63,41.25z"/>
	<g>
		<path class="st3" d="M165.36,13.88c0.14,0.94,0.38,1.86,0.62,2.78c0.58,2.2,1.19,4.4,1.81,6.6c1.41,4.96,2.83,9.92,4.27,14.86
			c0.33,1.15,0.67,2.29,1,3.44c0.17,0.58,1.07,0.33,0.9-0.25c-0.92-3.12-1.85-6.23-2.78-9.35c-1.48-4.95-2.93-9.91-4.51-14.83
			c-0.36-1.12-0.7-2.24-1.18-3.31C165.45,13.74,165.35,13.81,165.36,13.88L165.36,13.88z"/>
		<path class="st3" d="M165.4,13.82c-0.39,0.86-0.68,1.76-0.97,2.66c-0.7,2.16-1.38,4.33-2.04,6.51c-1.5,4.96-2.99,9.92-4.46,14.88
			c-0.34,1.15-0.68,2.29-1.02,3.44c-0.17,0.58,0.73,0.83,0.9,0.25c0.91-3.1,1.8-6.2,2.69-9.31c1.42-4.95,2.89-9.9,4.2-14.88
			c0.31-1.16,0.63-2.31,0.81-3.49C165.54,13.81,165.43,13.74,165.4,13.82L165.4,13.82z"/>
	</g>
	<path class="st3" d="M201.21,49.5c-0.95,0.13-1.87,0.37-2.8,0.6c-2.19,0.56-4.38,1.14-6.57,1.74c-4.92,1.36-9.84,2.72-14.76,4.11
		c-1.14,0.32-2.28,0.64-3.42,0.97c-0.58,0.16-0.33,1.07,0.25,0.9c3.12-0.89,6.23-1.79,9.34-2.7c4.91-1.43,9.84-2.82,14.72-4.35
		c1.11-0.35,2.22-0.68,3.29-1.15C201.34,49.59,201.28,49.49,201.21,49.5L201.21,49.5z"/>
	<path class="st3" d="M201.26,49.54c-0.86-0.37-1.74-0.66-2.63-0.94c-2.17-0.68-4.34-1.33-6.52-1.97c-4.95-1.45-9.91-2.89-14.88-4.3
		c-1.15-0.33-2.3-0.66-3.46-0.99c-0.58-0.16-0.83,0.74-0.25,0.9c3.12,0.88,6.24,1.74,9.36,2.61c4.95,1.37,9.88,2.78,14.86,4.04
		c1.15,0.29,2.29,0.61,3.47,0.77C201.28,49.68,201.34,49.57,201.26,49.54L201.26,49.54z"/>
	<path class="st3" d="M129.68,49.64c0.85,0.38,1.73,0.68,2.62,0.96c2.16,0.7,4.32,1.38,6.49,2.04c4.93,1.5,9.86,2.99,14.8,4.46
		c1.15,0.34,2.29,0.68,3.44,1.02c0.58,0.17,0.83-0.73,0.25-0.9c-3.1-0.91-6.2-1.81-9.31-2.7c-4.92-1.42-9.83-2.88-14.78-4.2
		c-1.14-0.3-2.28-0.63-3.45-0.81C129.66,49.5,129.6,49.6,129.68,49.64L129.68,49.64z"/>
	<path class="st3" d="M129.73,49.67c0.94-0.14,1.86-0.38,2.78-0.63c2.2-0.59,4.4-1.19,6.6-1.82c4.92-1.41,9.85-2.82,14.77-4.26
		c1.13-0.33,2.27-0.66,3.4-0.99c0.58-0.17,0.33-1.07-0.25-0.9c-3.1,0.91-6.19,1.85-9.29,2.78c-4.92,1.48-9.86,2.92-14.75,4.51
		c-1.12,0.36-2.24,0.71-3.31,1.19C129.6,49.58,129.66,49.68,129.73,49.67L129.73,49.67z"/>
	<path class="st3" d="M165.77,85.4c0.37-0.88,0.65-1.78,0.93-2.69c0.67-2.19,1.31-4.39,1.94-6.6c1.42-4.99,2.82-9.99,4.21-15
		c0.32-1.16,0.64-2.32,0.96-3.48c0.16-0.58-0.74-0.83-0.9-0.25c-0.87,3.16-1.72,6.33-2.56,9.49c-1.34,5-2.73,10-3.96,15.03
		c-0.28,1.15-0.58,2.29-0.74,3.46C165.63,85.43,165.74,85.46,165.77,85.4L165.77,85.4z"/>
	<path class="st3" d="M165.81,85.35c-0.15-0.96-0.4-1.89-0.65-2.82c-0.6-2.24-1.23-4.47-1.87-6.7c-1.46-5.03-2.92-10.07-4.41-15.09
		c-0.34-1.16-0.69-2.32-1.03-3.48c-0.17-0.58-1.08-0.33-0.9,0.25c0.94,3.17,1.91,6.33,2.87,9.5c1.53,5.02,3.02,10.06,4.65,15.05
		c0.37,1.13,0.72,2.27,1.21,3.35C165.71,85.48,165.82,85.42,165.81,85.35L165.81,85.35z"/>
	<g>
		<path class="st3" d="M183.26,31.71c-0.9,1.05-1.54,2.36-2.22,3.55c-1.14,1.98-2.25,3.96-3.37,5.95c-0.26,0.46-0.52,0.92-0.78,1.39
			c-0.27,0.49,0.49,0.94,0.76,0.44c1.77-3.25,3.52-6.52,5.15-9.85c0.22-0.46,0.44-0.92,0.58-1.41
			C183.4,31.71,183.31,31.66,183.26,31.71L183.26,31.71z"/>
		<path class="st3" d="M183.31,31.71c-1.3,0.38-2.52,1.13-3.72,1.75c-2.01,1.04-4,2.1-6,3.16c-0.46,0.24-0.92,0.48-1.38,0.73
			c-0.49,0.27-0.05,1.03,0.44,0.76c3.2-1.75,6.39-3.54,9.51-5.43c0.43-0.26,0.84-0.53,1.22-0.85
			C183.43,31.78,183.37,31.69,183.31,31.71L183.31,31.71z"/>
	</g>
	<path class="st3" d="M183.4,67.42c-0.27-0.3-0.61-0.52-0.95-0.74c-0.83-0.54-1.68-1.05-2.54-1.55c-1.96-1.15-3.93-2.28-5.91-3.39
		c-0.46-0.26-0.92-0.52-1.38-0.78c-0.53-0.29-1,0.52-0.47,0.81c3.22,1.79,6.44,3.62,9.76,5.21c0.46,0.22,0.91,0.46,1.42,0.56
		C183.4,67.55,183.45,67.47,183.4,67.42L183.4,67.42z"/>
	<path class="st3" d="M183.4,67.47c-0.08-0.4-0.25-0.76-0.42-1.13c-0.44-0.92-0.9-1.82-1.38-2.72c-1.07-2.02-2.16-4.03-3.26-6.03
		c-0.26-0.48-0.52-0.95-0.79-1.43c-0.29-0.53-1.1-0.05-0.81,0.47c1.81,3.24,3.61,6.52,5.61,9.64c0.28,0.44,0.55,0.9,0.93,1.25
		C183.34,67.58,183.42,67.53,183.4,67.47L183.4,67.47z"/>
	<path class="st3" d="M147.57,31.78c0.07,0.4,0.23,0.76,0.4,1.12c0.41,0.89,0.85,1.76,1.29,2.63c1.01,1.97,2.05,3.92,3.09,5.87
		c0.25,0.46,0.49,0.92,0.74,1.38c0.29,0.53,1.1,0.06,0.81-0.47c-1.72-3.15-3.43-6.35-5.34-9.39c-0.27-0.42-0.52-0.86-0.89-1.2
		C147.63,31.66,147.56,31.71,147.57,31.78L147.57,31.78z"/>
	<path class="st3" d="M147.57,31.83c0.26,0.29,0.58,0.49,0.91,0.7c0.82,0.52,1.66,1.02,2.5,1.5c1.9,1.1,3.82,2.17,5.74,3.23
		c0.46,0.25,0.92,0.51,1.38,0.76c0.53,0.29,1-0.52,0.47-0.81c-3.13-1.71-6.28-3.45-9.52-4.96c-0.46-0.21-0.92-0.46-1.42-0.54
		C147.57,31.7,147.52,31.77,147.57,31.83L147.57,31.83z"/>
	<path class="st3" d="M147.76,67.68c0.4-0.08,0.76-0.25,1.13-0.43c0.89-0.44,1.77-0.89,2.65-1.36c2-1.07,3.98-2.18,5.96-3.29
		c0.46-0.26,0.92-0.52,1.38-0.78c0.52-0.3,0.05-1.11-0.47-0.81c-3.19,1.82-6.42,3.62-9.5,5.64c-0.42,0.28-0.86,0.54-1.21,0.92
		C147.64,67.61,147.69,67.69,147.76,67.68L147.76,67.68z"/>
	<path class="st3" d="M147.8,67.68c0.3-0.28,0.51-0.62,0.73-0.97c0.52-0.83,1.01-1.67,1.5-2.52c1.12-1.96,2.22-3.93,3.3-5.91
		c0.26-0.47,0.51-0.93,0.77-1.4c0.29-0.53-0.52-1-0.81-0.47c-1.74,3.22-3.52,6.44-5.05,9.76c-0.22,0.47-0.46,0.93-0.55,1.44
		C147.67,67.67,147.75,67.73,147.8,67.68L147.8,67.68z"/>
</g>
</svg>
